<?xml version="1.0" encoding="UTF-8" standalone="no"?>
<!DOCTYPE svg PUBLIC "-//W3C//DTD SVG 1.1//EN"
"http://www.w3.org/Graphics/SVG/1.1/DTD/svg11.dtd">
<svg viewBox="0 0 909 1286" version="1.1" xmlns="http://www.w3.org/2000/svg" xmlns:xlink="http://www.w3.org/1999/xlink">
<defs>
<clipPath id="c0_4"><path d="M-.2 1287.1V-.2H910.1V1287.1Z"/></clipPath>
<clipPath id="c1_4"><path d="M99.4 1200.7c-18.6 0 -36.4 -7.3 -49.5 -20.5C36.8 1167.1 29.4 1149.3 29.4 1130.8V118.2c0 -18.6 7.4 -36.4 20.5 -49.5C63 55.6 80.8 48.2 99.4 48.2H810.1c18.5 0 36.3 7.4 49.4 20.5c11.4 11.3 18.4 26.1 20.1 41.9V1138.4c-1.7 15.7 -8.7 30.5 -20.1 41.8c-13.1 13.2 -30.9 20.5 -49.4 20.5Z"/></clipPath>
<clipPath id="c2_4"><path d="M578.3 509.8c-15.4 0 -30.1 -6.1 -41 -17C526.4 481.9 520.2 467 520.2 451.6V293.9c0 -15.4 6.2 -30.2 17.1 -41.1c10.9 -11 25.7 -17.1 41.1 -17.1H764.9c15.4 0 30.2 6.1 41.1 17.1c10.9 10.9 17.1 25.7 17.1 41.1V451.6c0 15.4 -6.2 30.3 -17.1 41.2c-10.9 10.9 -25.6 17 -41 17Z"/></clipPath>
<clipPath id="c3_4"><path d="M573.2 509.6C559.7 508.4 547 502.4 537.3 492.8C526.4 481.8 520.2 467 520.2 451.6V293.9c0 -15.4 6.2 -30.2 17.1 -41.1c10.9 -11 25.7 -17.1 41.1 -17.1H764.9c15.4 0 30.2 6.1 41.1 17.1c9.4 9.4 15.3 21.6 16.7 34.7V458c-1.4 13.1 -7.3 25.4 -16.7 34.8c-9.7 9.6 -22.4 15.6 -35.9 16.8Z"/></clipPath>
<clipPath id="c4_4"><path d="M149.2 1092.8c-15.5 0 -30.3 -6.1 -41.2 -17.1C97.1 1064.8 90.9 1050 90.9 1034.6V873.2c0 -15.4 6.2 -30.3 17.1 -41.2c10.9 -10.9 25.7 -17 41.2 -17H339.7c15.4 0 30.2 6.1 41.1 17c11 10.9 17.1 25.8 17.1 41.2v161.4c0 15.4 -6.1 30.2 -17.1 41.1c-10.9 11 -25.7 17.1 -41.1 17.1Z"/></clipPath>
<clipPath id="c5_4"><path d="M141.5 1092.3c-12.6 -1.7 -24.4 -7.5 -33.5 -16.6C97.1 1064.8 90.9 1050 90.9 1034.6V873.2c0 -15.4 6.2 -30.3 17.1 -41.2c10.9 -10.9 25.7 -17 41.2 -17H339.7c15.4 0 30.2 6.1 41.1 17c11 10.9 17.1 25.8 17.1 41.2v161.4c0 15.4 -6.1 30.2 -17.1 41.1c-9.1 9.1 -20.9 14.9 -33.5 16.6Z"/></clipPath>
<clipPath id="c6_4"><path d="M578.4 815c-15.4 0 -30.2 -6.1 -41.1 -17.1C526.4 787 520.2 772.2 520.2 756.8V599.1c0 -15.4 6.2 -30.3 17.1 -41.2c10.9 -10.9 25.7 -17 41.1 -17H764.9c15.4 0 30.2 6.1 41.1 17c10.9 10.9 17.1 25.8 17.1 41.2V756.8c0 15.4 -6.2 30.2 -17.1 41.1c-10.9 11 -25.7 17.1 -41.1 17.1Z"/></clipPath>
<clipPath id="c7_4"><path d="M573.2 814.7C559.7 813.5 547 807.6 537.3 797.9C526.4 787 520.2 772.2 520.2 756.8V599.1c0 -15.4 6.2 -30.3 17.1 -41.2c10.9 -10.9 25.7 -17 41.1 -17H764.9c15.4 0 30.2 6.1 41.1 17c9.4 9.4 15.3 21.7 16.7 34.8V763.2c-1.4 13 -7.3 25.3 -16.7 34.7c-9.7 9.7 -22.4 15.6 -35.9 16.8Z"/></clipPath>
<clipPath id="c8_4"><path d="M377.7 1256.4c-32.8 -.1 -59.4 -26.8 -59.4 -59.6c0 -32.9 26.7 -59.5 59.6 -59.5H531.6c32.9 0 59.5 26.6 59.5 59.5c0 32.8 -26.5 59.5 -59.3 59.6Z"/></clipPath>
<clipPath id="c9_4"><path d="M377.9 1256.4c-32.9 0 -59.6 -26.7 -59.6 -59.6c0 -32.9 26.7 -59.5 59.6 -59.5H531.6c31.6 0 57.5 24.6 59.4 55.7v7.6c-1.9 31.1 -27.8 55.8 -59.4 55.8Z"/></clipPath>
<style type="text/css"><![CDATA[
.g0_4{
fill: #FFF;
}
.g1_4{
fill: none;
stroke: #85927D;
stroke-width: 6.875;
}
.g2_4{
fill: none;
stroke: #85927D;
stroke-width: 4.583;
}
.g3_4{
fill: #85927D;
}
]]></style>
</defs>
<g clip-path="url(#c0_4)">
<path d="M0 0H909.8V1286.8H0V0Z" class="g0_4"/>
<path d="M0 0H909.8V1286.8H0V0Z" class="g0_4"/>
<g opacity="0.25">
<image preserveAspectRatio="none" x="-35" y="-13" width="981" height="1314" xlink:href="img/1.jpg"/>
</g>
</g>
<path clip-path="url(#c1_4)" d="M99.4 48.2H810.1c18.5 0 36.3 7.4 49.4 20.5C872.7 81.8 880 99.6 880 118.2V1130.8c0 18.5 -7.3 36.3 -20.5 49.4c-13.1 13.2 -30.9 20.5 -49.4 20.5H99.4c-18.6 0 -36.4 -7.3 -49.5 -20.5C36.8 1167.1 29.4 1149.3 29.4 1130.8V118.2c0 -18.6 7.4 -36.4 20.5 -49.5C63 55.6 80.8 48.2 99.4 48.2Z" class="g1_4"/>
<image clip-path="url(#c2_4)" preserveAspectRatio="none" x="520" y="170" width="303" height="406" xlink:href="img/2.jpg"/>
<path clip-path="url(#c3_4)" d="M578.4 235.7H764.9c15.4 0 30.2 6.1 41.1 17.1c10.9 10.9 17.1 25.7 17.1 41.1V451.6c0 15.4 -6.2 30.2 -17.1 41.2c-10.9 10.9 -25.7 17 -41.1 17H578.4c-15.4 0 -30.2 -6.1 -41.1 -17C526.4 481.8 520.2 467 520.2 451.6V293.9c0 -15.4 6.2 -30.2 17.1 -41.1c10.9 -11 25.7 -17.1 41.1 -17.1Z" class="g2_4"/>
<image clip-path="url(#c4_4)" preserveAspectRatio="none" x="91" y="774" width="307" height="360" xlink:href="img/3.jpg"/>
<path clip-path="url(#c5_4)" d="M149.2 815H339.7c15.4 0 30.2 6.1 41.1 17c11 10.9 17.1 25.8 17.1 41.2v161.4c0 15.4 -6.1 30.2 -17.1 41.1c-10.9 10.9 -25.7 17.1 -41.1 17.1H149.2c-15.5 0 -30.3 -6.2 -41.2 -17.1C97.1 1064.8 90.9 1050 90.9 1034.6V873.2c0 -15.4 6.2 -30.3 17.1 -41.2c10.9 -10.9 25.7 -17 41.2 -17Z" class="g2_4"/>
<image clip-path="url(#c6_4)" preserveAspectRatio="none" x="488" y="541" width="367" height="274" xlink:href="img/4.jpg"/>
<path clip-path="url(#c7_4)" d="M578.4 540.9H764.9c15.4 0 30.2 6.1 41.1 17c10.9 10.9 17.1 25.8 17.1 41.2V756.8c0 15.4 -6.2 30.2 -17.1 41.1C795.1 808.8 780.3 815 764.9 815H578.4c-15.4 0 -30.2 -6.2 -41.1 -17.1C526.4 787 520.2 772.2 520.2 756.8V599.1c0 -15.4 6.2 -30.3 17.1 -41.2c10.9 -10.9 25.7 -17 41.1 -17Z" class="g2_4"/>
<path clip-path="url(#c8_4)" d="M318.3 1137.3H591v119.1H318.3V1137.3Z" class="g3_4"/>
<path clip-path="url(#c9_4)" d="M377.9 1137.3H531.6c32.9 0 59.5 26.6 59.5 59.5c0 32.9 -26.6 59.6 -59.5 59.6H377.9c-32.9 0 -59.6 -26.7 -59.6 -59.6c0 -32.9 26.7 -59.5 59.6 -59.5Z" class="g2_4"/>
</svg>