<?xml version="1.0" encoding="UTF-8" standalone="no"?>
<!DOCTYPE svg PUBLIC "-//W3C//DTD SVG 1.1//EN"
"http://www.w3.org/Graphics/SVG/1.1/DTD/svg11.dtd">
<svg viewBox="0 0 909 1286" version="1.1" xmlns="http://www.w3.org/2000/svg" xmlns:xlink="http://www.w3.org/1999/xlink">
<defs>
<clipPath id="c0_7"><path d="M-.2 1287.1V-.2H910.1V1287.1Z"/></clipPath>
<clipPath id="c1_7"><path d="M99.4 1195.3c-18.6 0 -36.4 -7.4 -49.5 -20.5C36.8 1161.7 29.4 1143.9 29.4 1125.3V506.1c0 -18.6 7.4 -36.3 20.5 -49.5C63 443.5 80.8 436.1 99.4 436.1H810.1c18.5 0 36.3 7.4 49.4 20.5c13.2 13.2 20.5 30.9 20.5 49.5v619.2c0 18.6 -7.3 36.4 -20.5 49.5c-13.1 13.1 -30.9 20.5 -49.4 20.5Z"/></clipPath>
<clipPath id="c2_7"><path d="M99.4 1195.3c-18.6 0 -36.4 -7.4 -49.5 -20.5C36.8 1161.7 29.4 1143.9 29.4 1125.3V506.1c0 -18.5 7.4 -36.3 20.5 -49.5C63 443.5 80.8 436.1 99.4 436.1H810.1c18.5 0 36.3 7.4 49.4 20.5c11.4 11.4 18.4 26.2 20.1 41.9v634.4c-1.7 15.8 -8.7 30.6 -20.1 41.9c-13.1 13.1 -30.9 20.5 -49.4 20.5Z"/></clipPath>
<clipPath id="c3_7"><path d="M88.8 408.4c-32.1 0 -58.2 -26 -58.2 -58.1V100.1C30.6 67.9 56.7 41.9 88.8 41.9h733c30.4 0 55.3 23.2 58 52.8V355.6c-2.7 29.6 -27.6 52.8 -58 52.8Z"/></clipPath>
<clipPath id="c4_7"><path d="M88.8 408.4c-32.1 0 -58.2 -26 -58.2 -58.2V100.1C30.6 67.9 56.7 41.9 88.8 41.9h733c30.1 0 54.8 22.7 57.9 51.9V356.5c-3.1 29.2 -27.8 51.9 -57.9 51.9Z"/></clipPath>
<clipPath id="c5_7"><path d="M377.7 1256.4c-32.8 -.1 -59.4 -26.8 -59.4 -59.6c0 -32.9 26.7 -59.5 59.6 -59.5H531.6c32.9 0 59.5 26.6 59.5 59.5c0 32.8 -26.5 59.5 -59.3 59.6Z"/></clipPath>
<clipPath id="c6_7"><path d="M377.9 1256.4c-32.9 0 -59.6 -26.7 -59.6 -59.6c0 -32.9 26.7 -59.5 59.6 -59.5H531.6c31.6 0 57.5 24.6 59.4 55.7v7.6c-1.9 31.1 -27.8 55.8 -59.4 55.8Z"/></clipPath>
<clipPath id="c7_7"><path d="M239.9 773.1v-3.2h-7.1v3.2Zm153.2 0v-3.2h-7.2v3.2ZM-.2 1287.1V-.2H910.1V1287.1Z"/></clipPath>
<clipPath id="c8_7"><path d="M303.2 886.6v-3.3H296v3.3Zm54.1 0v-3.3h-7.1v3.3ZM-.2 1287.1V-.2H910.1V1287.1Z"/></clipPath>
<clipPath id="c9_7"><path d="M258.5 1113.4v-3.2h-7.1v3.2ZM-.2 1287.1V-.2H910.1V1287.1Z"/></clipPath>
<style type="text/css"><![CDATA[
.g0_7{
fill: #FFF;
}
.g1_7{
fill: #EAE9DE;
}
.g2_7{
fill: #85927D;
}
.g3_7{
fill: none;
stroke: #85927D;
stroke-width: 9.166;
}
.g4_7{
fill: none;
stroke: #85927D;
stroke-width: 4.583;
}
]]></style>
</defs>
<g clip-path="url(#c0_7)">
<path d="M0 0H909.8V1286.8H0V0Z" class="g0_7"/>
<path d="M0 0H909.8V1286.8H0V0Z" class="g1_7"/>
</g>
<path clip-path="url(#c1_7)" d="M29.4 436.1H880.5v759.2H29.4V436.1Z" class="g2_7"/>
<path clip-path="url(#c2_7)" d="M99.4 436.1H810.1c18.5 0 36.3 7.4 49.4 20.5c13.2 13.2 20.5 31 20.5 49.5v619.2c0 18.6 -7.3 36.4 -20.5 49.5c-13.1 13.1 -30.9 20.5 -49.4 20.5H99.4c-18.6 0 -36.4 -7.4 -49.5 -20.5C36.8 1161.7 29.4 1143.9 29.4 1125.3V506.1c0 -18.5 7.4 -36.3 20.5 -49.5C63 443.5 80.8 436.1 99.4 436.1Z" class="g3_7"/>
<image clip-path="url(#c3_7)" preserveAspectRatio="none" x="31" y="-22" width="849" height="496" xlink:href="img/1.jpg"/>
<path clip-path="url(#c4_7)" d="M88.8 41.9h733c32.2 0 58.2 26 58.2 58.2V350.2c0 32.2 -26 58.2 -58.2 58.2H88.8c-32.1 0 -58.2 -26 -58.2 -58.2V100.1C30.6 67.9 56.7 41.9 88.8 41.9Z" class="g4_7"/>
<path clip-path="url(#c5_7)" d="M318.3 1137.3H591v119.1H318.3V1137.3Z" class="g1_7"/>
<path clip-path="url(#c6_7)" d="M377.9 1137.3H531.6c32.9 0 59.5 26.6 59.5 59.5c0 32.9 -26.6 59.6 -59.5 59.6H377.9c-32.9 0 -59.6 -26.7 -59.6 -59.6c0 -32.9 26.7 -59.5 59.6 -59.5Z" class="g4_7"/>
<path clip-path="url(#c7_7)" d="M193.9 770.1H715.5v2.3H193.9v-2.3Z" class="g0_7"/>
<path clip-path="url(#c8_7)" d="M257.2 883.6H652.3v2.3H257.2v-2.3Z" class="g0_7"/>
<path clip-path="url(#c9_7)" d="M212.5 1110.4H697v2.3H212.5v-2.3Z" class="g0_7"/>
</svg>