<?xml version="1.0" encoding="UTF-8" standalone="no"?>
<!DOCTYPE svg PUBLIC "-//W3C//DTD SVG 1.1//EN"
"http://www.w3.org/Graphics/SVG/1.1/DTD/svg11.dtd">
<svg viewBox="0 0 909 1286" version="1.1" xmlns="http://www.w3.org/2000/svg" xmlns:xlink="http://www.w3.org/1999/xlink">
<defs>
<clipPath id="c0_3"><path d="M-.2 1287.1V-.2H910.1V1287.1Z"/></clipPath>
<clipPath id="c1_3"><path d="M98.1 1196.8c-18.1 -.3 -35.4 -7.7 -48.2 -20.5C36.8 1163.2 29.4 1145.4 29.4 1126.8V115.2c0 -18.6 7.4 -36.4 20.5 -49.5C63 52.6 80.8 45.2 99.4 45.2H810.1c18.5 0 36.3 7.4 49.4 20.5c11.4 11.3 18.4 26.1 20.1 41.9V1134.4c-1.7 15.8 -8.7 30.6 -20.1 41.9c-12.8 12.8 -30.1 20.2 -48.2 20.5Z"/></clipPath>
<clipPath id="c2_3"><path d="M377.7 1256.4c-32.8 -.1 -59.4 -26.8 -59.4 -59.6c0 -32.9 26.7 -59.5 59.6 -59.5H531.6c32.9 0 59.5 26.6 59.5 59.5c0 32.8 -26.5 59.5 -59.3 59.6Z"/></clipPath>
<clipPath id="c3_3"><path d="M377.9 1256.4c-32.9 0 -59.6 -26.7 -59.6 -59.6c0 -32.9 26.7 -59.5 59.6 -59.5H531.6c31.6 0 57.5 24.6 59.4 55.7v7.6c-1.9 31.1 -27.8 55.8 -59.4 55.8Z"/></clipPath>
<clipPath id="c4_3"><path d="M590.6 620.9c-13.9 -1.1 -26.9 -7 -36.8 -16.9C542.9 593.1 536.7 578.3 536.7 562.8V273.3c0 -15.5 6.2 -30.3 17.1 -41.2c10.9 -10.9 25.7 -17 41.1 -17H774.5c15.4 0 30.2 6.1 41.1 17c11 10.9 17.1 25.7 17.1 41.2V562.8c0 15.5 -6.1 30.3 -17.1 41.2c-9.9 9.9 -22.9 15.8 -36.8 16.9Z"/></clipPath>
<clipPath id="c5_3"><path d="M588.9 620.7C575.7 619.3 563.2 613.4 553.8 604C542.9 593.1 536.7 578.3 536.7 562.8V273.3c0 -15.5 6.2 -30.3 17.1 -41.2c10.9 -10.9 25.7 -17 41.1 -17H774.5c15.4 0 30.2 6.1 41.1 17c9.5 9.5 15.4 21.9 16.7 35.1V568.9c-1.3 13.2 -7.2 25.6 -16.7 35.1c-9.5 9.4 -21.9 15.3 -35.1 16.7Z"/></clipPath>
<clipPath id="c6_3"><path d="M136.2 1088.4c-13.9 -1 -27 -6.9 -36.9 -16.9c-10.9 -10.9 -17 -25.7 -17 -41.1V751.1c0 -15.5 6.1 -30.3 17 -41.2c10.9 -10.9 25.7 -17 41.2 -17H312.6c15.4 0 30.2 6.1 41.2 17c10.9 10.9 17 25.7 17 41.2v279.3c0 15.4 -6.1 30.2 -17 41.1c-9.9 10 -23.1 15.9 -36.9 16.9Z"/></clipPath>
<clipPath id="c7_3"><path d="M133.6 1088.2c-12.9 -1.6 -25 -7.4 -34.3 -16.7c-10.9 -10.9 -17 -25.7 -17 -41.1V751.1c0 -15.5 6.1 -30.3 17 -41.2c10.9 -10.9 25.7 -17 41.2 -17H312.6c15.4 0 30.2 6.1 41.1 17c11 10.9 17.1 25.7 17.1 41.2v279.3c0 15.4 -6.1 30.2 -17.1 41.1c-9.2 9.3 -21.3 15.1 -34.2 16.7Z"/></clipPath>
<clipPath id="c8_3"><path d="M430.5 1055V968.5H540V1055Z"/></clipPath>
<style type="text/css"><![CDATA[
.g0_3{
fill: #FFF;
}
.g1_3{
fill: #EAE9DE;
}
.g2_3{
fill: none;
stroke: #85927D;
stroke-width: 9.166;
}
.g3_3{
fill: #85927D;
}
.g4_3{
fill: none;
stroke: #85927D;
stroke-width: 4.583;
}
]]></style>
</defs>
<g clip-path="url(#c0_3)">
<path d="M0 0H909.8V1286.8H0V0Z" class="g0_3"/>
<path d="M0 0H909.8V1286.8H0V0Z" class="g1_3"/>
</g>
<path clip-path="url(#c1_3)" d="M99.4 45.2H810.1c18.5 0 36.3 7.4 49.4 20.5C872.7 78.8 880 96.6 880 115.2V1126.8c0 18.6 -7.3 36.4 -20.5 49.5c-13.1 13.1 -30.9 20.5 -49.4 20.5H99.4c-18.6 0 -36.4 -7.4 -49.5 -20.5C36.8 1163.2 29.4 1145.4 29.4 1126.8V115.2c0 -18.6 7.4 -36.4 20.5 -49.5C63 52.6 80.8 45.2 99.4 45.2Z" class="g2_3"/>
<path clip-path="url(#c2_3)" d="M318.3 1137.3H591v119.1H318.3V1137.3Z" class="g3_3"/>
<path clip-path="url(#c3_3)" d="M377.9 1137.3H531.6c32.9 0 59.5 26.6 59.5 59.5c0 32.9 -26.6 59.6 -59.5 59.6H377.9c-32.9 0 -59.6 -26.7 -59.6 -59.6c0 -32.9 26.7 -59.5 59.6 -59.5Z" class="g4_3"/>
<image clip-path="url(#c4_3)" preserveAspectRatio="none" x="533" y="215" width="304" height="406" xlink:href="img/1.jpg"/>
<path clip-path="url(#c5_3)" d="M594.9 215.1H774.5c15.4 0 30.2 6.1 41.1 17c10.9 10.9 17.1 25.7 17.1 41.2V562.8c0 15.5 -6.2 30.3 -17.1 41.2c-10.9 10.9 -25.7 17 -41.1 17H594.9c-15.4 0 -30.2 -6.1 -41.1 -17C542.9 593.1 536.7 578.3 536.7 562.8V273.3c0 -15.5 6.2 -30.3 17.1 -41.2c10.9 -10.9 25.7 -17 41.1 -17Z" class="g4_3"/>
<image clip-path="url(#c6_3)" preserveAspectRatio="none" x="79" y="693" width="295" height="395" xlink:href="img/2.jpg"/>
<path clip-path="url(#c7_3)" d="M140.5 692.9H312.6c15.4 0 30.2 6.1 41.1 17c11 10.9 17.1 25.7 17.1 41.2v279.3c0 15.4 -6.1 30.2 -17.1 41.1c-10.9 10.9 -25.7 17.1 -41.1 17.1H140.5c-15.5 0 -30.3 -6.2 -41.2 -17.1c-10.9 -10.9 -17 -25.7 -17 -41.1V751.1c0 -15.5 6.1 -30.3 17 -41.2c10.9 -10.9 25.7 -17 41.2 -17Z" class="g4_3"/>
<g clip-path="url(#c8_3)">
<path d="M453.9 1014.6c8.8 -8.5 19.3 -13.1 31.6 -13.1c12.3 0 22.8 4.6 31.5 13c2.5 -2.5 5.1 -5.1 7.6 -7.6c-21.9 -22.2 -57.7 -21.3 -78.4 0c2.6 2.6 5.1 5.1 7.7 7.7Zm15.3 15.4c4.6 -4.4 9.9 -6.7 16.3 -6.7c6.3 0 11.7 2.3 16.1 6.6c2.6 -2.6 5.1 -5.1 7.7 -7.7c-13.9 -13.9 -35.7 -12.4 -47.7 .2c0 0 .1 .1 .1 .1c2.5 2.5 5 5 7.5 7.5Zm25.1 16.3c0 -4.8 -3.9 -8.7 -8.8 -8.7c-4.8 0 -8.7 3.9 -8.7 8.7c-.1 4.8 3.9 8.8 8.7 8.8c4.8 0 8.8 -3.9 8.8 -8.8Z" class="g3_3"/>
<path d="M540.1 991.7c-.1 .1 -.3 .2 -.4 .4c-2.3 2.2 -4.6 4.5 -6.8 6.7c-.1 .2 -.2 .4 -.4 .5c-13.2 -12.7 -28.8 -19.5 -47 -19.5c-18.3 0 -33.9 6.7 -47 19.5c-.2 -.2 -.3 -.3 -.4 -.4c-2.3 -2.3 -4.6 -4.6 -6.9 -6.8c-.1 -.2 -.3 -.3 -.4 -.4q0 -.1 0 -.2c.1 -.1 .3 -.2 .4 -.3c2.8 -2.7 5.7 -5.2 8.7 -7.5c8.2 -6 17.2 -10.2 27.1 -12.6c4.3 -1.1 8.6 -1.8 13.1 -2.1c.8 0 1.7 -.1 2.6 -.2c1.8 0 3.7 0 5.5 0c.2 .1 .3 .1 .4 .1c2.3 .2 4.5 .3 6.8 .6c4.5 .5 9 1.5 13.4 3c11.5 3.6 21.6 9.7 30.3 18.1c.3 .3 .7 .6 1 .9q0 .1 0 .2Z" class="g3_3"/>
</g>
<path d="M453.9 1014.6c-2.6 -2.6 -5.1 -5.1 -7.7 -7.7c20.7 -21.3 56.5 -22.2 78.4 0c-2.5 2.5 -5.1 5.1 -7.6 7.6c-8.7 -8.4 -19.2 -13 -31.5 -13c-12.3 0 -22.8 4.6 -31.6 13.1Z" class="g3_3"/>
<path d="M469.2 1030c-2.5 -2.5 -5 -5 -7.5 -7.5c0 0 -.1 -.1 -.1 -.1c12 -12.6 33.8 -14.1 47.7 -.2c-2.6 2.6 -5.1 5.1 -7.7 7.7c-4.4 -4.3 -9.8 -6.6 -16.1 -6.6c-6.4 0 -11.7 2.3 -16.3 6.7Z" class="g3_3"/>
<path clip-path="url(#c8_3)" d="M494.3 1046.3c0 4.9 -4 8.8 -8.8 8.8c-4.8 0 -8.8 -4 -8.7 -8.8c0 -4.8 3.9 -8.7 8.7 -8.7c4.9 0 8.8 3.9 8.8 8.7Z" class="g3_3"/>
</svg>