<?xml version="1.0" encoding="UTF-8" standalone="no"?>
<!DOCTYPE svg PUBLIC "-//W3C//DTD SVG 1.1//EN"
"http://www.w3.org/Graphics/SVG/1.1/DTD/svg11.dtd">
<svg viewBox="0 0 909 1286" version="1.1" xmlns="http://www.w3.org/2000/svg" xmlns:xlink="http://www.w3.org/1999/xlink">
<defs>
<clipPath id="c0_6"><path d="M-.2 1287.1V-.2H910.1V1287.1Z"/></clipPath>
<clipPath id="c1_6"><path d="M99.4 1195.3c-18.6 0 -36.4 -7.4 -49.5 -20.5C36.8 1161.7 29.4 1143.9 29.4 1125.3V116.2c0 -18.6 7.4 -36.4 20.5 -49.5C63 53.6 80.8 46.2 99.4 46.2H810.1c18.5 0 36.3 7.4 49.4 20.5C872.7 79.8 880 97.6 880 116.2V1125.3c0 18.6 -7.3 36.4 -20.5 49.5c-13.1 13.1 -30.9 20.5 -49.4 20.5Z"/></clipPath>
<clipPath id="c2_6"><path d="M99.4 1195.3c-18.6 0 -36.4 -7.4 -49.5 -20.5c-13.1 -13.2 -20.5 -31 -20.5 -49.5V116.2c0 -18.6 7.4 -36.4 20.5 -49.5C63 53.6 80.8 46.2 99.4 46.2H810.1c18.5 0 36.3 7.4 49.4 20.5c11.4 11.3 18.4 26.1 20.1 41.9V1132.9c-1.7 15.7 -8.7 30.5 -20.1 41.9c-13.1 13.1 -30.9 20.5 -49.4 20.5Z"/></clipPath>
<clipPath id="c3_6"><path d="M377.7 1256.4c-32.8 -.1 -59.4 -26.8 -59.4 -59.6c0 -32.9 26.7 -59.5 59.6 -59.5H531.6c32.9 0 59.5 26.6 59.5 59.5c0 32.8 -26.5 59.5 -59.3 59.6Z"/></clipPath>
<clipPath id="c4_6"><path d="M377.9 1256.4c-32.9 0 -59.6 -26.7 -59.6 -59.6c0 -32.9 26.7 -59.5 59.6 -59.5H531.6c31.6 0 57.5 24.6 59.4 55.7v7.6c-1.9 31.1 -27.8 55.8 -59.4 55.8Z"/></clipPath>
<clipPath id="c5_6"><path d="M561.5 1091.5c-29.9 -2.4 -53.5 -27.4 -53.5 -58V688.3c0 -32.1 26 -58.2 58.2 -58.2H786.3c32.1 0 58.2 26.1 58.2 58.2v345.2c0 30.6 -23.6 55.6 -53.6 58Z"/></clipPath>
<clipPath id="c6_6"><path d="M566.2 1091.7c-32.2 0 -58.2 -26.1 -58.2 -58.2V688.3c0 -32.1 26 -58.2 58.2 -58.2H786.3c32.1 0 58.2 26.1 58.2 58.2v345.2c0 32.1 -26.1 58.2 -58.2 58.2Z"/></clipPath>
<style type="text/css"><![CDATA[
.g0_6{
fill: #FFF;
}
.g1_6{
fill: #85927D;
}
.g2_6{
fill: #EAE9DE;
}
.g3_6{
fill: none;
stroke: #85927D;
stroke-width: 9.166;
}
.g4_6{
fill: none;
stroke: #EAE9DE;
stroke-width: 4.583;
}
.g5_6{
fill: none;
stroke: #85927D;
stroke-width: 4.583;
}
.g6_6{
fill: #000;
}
]]></style>
</defs>
<g clip-path="url(#c0_6)">
<path d="M0 0H909.8V1286.8H0V0Z" class="g0_6"/>
<path d="M0 0H909.8V1286.8H0V0Z" class="g1_6"/>
</g>
<path clip-path="url(#c1_6)" d="M29.4 46.2H880V1195.9H29.4V46.2Z" class="g2_6"/>
<path clip-path="url(#c2_6)" d="M99.4 46.2H810.1c18.5 0 36.3 7.4 49.4 20.5C872.7 79.8 880 97.6 880 116.2V1125.3c0 18.5 -7.3 36.3 -20.5 49.5c-13.1 13.1 -30.9 20.5 -49.4 20.5H99.4c-18.6 0 -36.4 -7.4 -49.5 -20.5c-13.1 -13.2 -20.5 -31 -20.5 -49.5V116.2c0 -18.6 7.4 -36.4 20.5 -49.5C63 53.6 80.8 46.2 99.4 46.2Z" class="g3_6"/>
<path clip-path="url(#c3_6)" d="M318.3 1137.3H591v119.1H318.3V1137.3Z" class="g1_6"/>
<path clip-path="url(#c4_6)" d="M377.9 1137.3H531.6c32.9 0 59.5 26.6 59.5 59.5c0 32.9 -26.6 59.6 -59.5 59.6H377.9c-32.9 0 -59.6 -26.7 -59.6 -59.6c0 -32.9 26.7 -59.5 59.6 -59.5Z" class="g4_6"/>
<image clip-path="url(#c5_6)" preserveAspectRatio="none" x="504" y="630" width="345" height="461" xlink:href="img/1.jpg"/>
<path clip-path="url(#c6_6)" d="M566.2 630.1H786.3c32.1 0 58.2 26.1 58.2 58.2v345.2c0 32.1 -26.1 58.2 -58.2 58.2H566.2c-32.2 0 -58.2 -26.1 -58.2 -58.2V688.3c0 -32.1 26 -58.2 58.2 -58.2Z" class="g5_6"/>
<path d="M105.6 239.8c0 .6 -.1 1.1 -.3 1.6c-.2 .5 -.5 .9 -.9 1.3c-.4 .4 -.8 .6 -1.3 .9c-.5 .2 -1 .3 -1.5 .3c-.6 0 -1.1 -.1 -1.6 -.3c-.5 -.3 -.9 -.5 -1.3 -.9c-.3 -.4 -.6 -.8 -.8 -1.3c-.2 -.5 -.3 -1 -.3 -1.6c0 -.5 .1 -1 .3 -1.5c.2 -.5 .5 -.9 .8 -1.3c.4 -.4 .8 -.7 1.3 -.9c.5 -.2 1 -.3 1.6 -.3c.5 0 1 .1 1.5 .3c.5 .2 .9 .5 1.3 .9c.4 .4 .7 .8 .9 1.3c.2 .5 .3 1 .3 1.5Z" class="g6_6"/>
<path d="M105.6 428.9c0 .5 -.1 1.1 -.3 1.5c-.2 .5 -.5 1 -.9 1.3c-.4 .4 -.8 .7 -1.3 .9c-.5 .2 -1 .3 -1.5 .3c-.6 0 -1.1 -.1 -1.6 -.3c-.5 -.2 -.9 -.5 -1.3 -.9c-.3 -.3 -.6 -.8 -.8 -1.3c-.2 -.4 -.3 -1 -.3 -1.5c0 -.5 .1 -1 .3 -1.5c.2 -.5 .5 -1 .8 -1.3c.4 -.4 .8 -.7 1.3 -.9c.5 -.2 1 -.3 1.6 -.3c.5 0 1 .1 1.5 .3c.5 .2 .9 .5 1.3 .9c.4 .3 .7 .8 .9 1.3c.2 .5 .3 1 .3 1.5Z" class="g6_6"/>
<path d="M105.6 628.6c0 .5 -.1 1 -.3 1.5c-.2 .5 -.5 .9 -.9 1.3c-.4 .4 -.8 .7 -1.3 .9c-.5 .2 -1 .3 -1.5 .3c-.6 0 -1.1 -.1 -1.6 -.3c-.5 -.2 -.9 -.5 -1.3 -.9c-.3 -.4 -.6 -.8 -.8 -1.3c-.2 -.5 -.3 -1 -.3 -1.5c0 -.6 .1 -1.1 .3 -1.6c.2 -.5 .5 -.9 .8 -1.3c.4 -.4 .8 -.6 1.3 -.8c.5 -.3 1 -.4 1.6 -.4c.5 0 1 .1 1.5 .4c.5 .2 .9 .4 1.3 .8c.4 .4 .7 .8 .9 1.3c.2 .5 .3 1 .3 1.6Z" class="g6_6"/>
<path d="M105.6 817.6c0 .6 -.1 1.1 -.3 1.6c-.2 .4 -.5 .9 -.9 1.3c-.4 .3 -.8 .6 -1.3 .8c-.5 .2 -1 .3 -1.5 .3c-.6 0 -1.1 -.1 -1.6 -.3c-.5 -.2 -.9 -.5 -1.3 -.8c-.3 -.4 -.6 -.9 -.8 -1.3c-.2 -.5 -.3 -1 -.3 -1.6c0 -.5 .1 -1 .3 -1.5c.2 -.5 .5 -.9 .8 -1.3c.4 -.4 .8 -.7 1.3 -.9c.5 -.2 1 -.3 1.6 -.3c.5 0 1 .1 1.5 .3c.5 .2 .9 .5 1.3 .9c.4 .4 .7 .8 .9 1.3c.2 .5 .3 1 .3 1.5Z" class="g6_6"/>
</svg>