<?xml version="1.0" encoding="UTF-8" standalone="no"?>
<!DOCTYPE svg PUBLIC "-//W3C//DTD SVG 1.1//EN"
"http://www.w3.org/Graphics/SVG/1.1/DTD/svg11.dtd">
<svg viewBox="0 0 909 1286" version="1.1" xmlns="http://www.w3.org/2000/svg" xmlns:xlink="http://www.w3.org/1999/xlink">
<defs>
<clipPath id="c0_8"><path d="M-.2 1287.1V-.2H910.1V1287.1Z"/></clipPath>
<clipPath id="c1_8"><path d="M91 1181.4c-15.4 -1.8 -30 -8.8 -41.1 -20C36.8 1148.3 29.4 1130.5 29.4 1111.9V118.2c0 -18.6 7.4 -36.4 20.5 -49.5C63 55.6 80.8 48.2 99.4 48.2H810.1c18.5 0 36.3 7.4 49.4 20.5c11.4 11.3 18.4 26.1 20.1 41.9V1119.5c-1.7 15.8 -8.7 30.6 -20.1 41.9c-11.1 11.2 -25.6 18.2 -41.1 20Z"/></clipPath>
<clipPath id="c2_8"><path d="M373.9 1233.2c-34.5 0 -62.5 -28 -62.5 -62.5c0 -34.5 28 -62.5 62.5 -62.5H535.1c34.5 0 62.5 28 62.5 62.5c0 34.5 -28 62.5 -62.5 62.5Z"/></clipPath>
<clipPath id="c3_8"><path d="M371.3 1233.1c-33.3 -1.4 -59.9 -28.8 -59.9 -62.4c0 -34.5 28 -62.5 62.5 -62.5H535.1c34.5 0 62.4 27.9 62.5 62.4v.1c0 33.6 -26.6 61 -59.9 62.4Z"/></clipPath>
<clipPath id="c4_8"><path d="M306.7 996.8V948h48.8v48.8Z"/></clipPath>
<clipPath id="c5_8"><path d="M306.7 933.7V886.1h48.8v47.6Z"/></clipPath>
<style type="text/css"><![CDATA[
.g0_8{
fill: #FFF;
}
.g1_8{
fill: #85927D;
}
.g2_8{
fill: none;
stroke: #FFF;
stroke-width: 6.875;
}
.g3_8{
fill: none;
stroke: #FFF;
stroke-width: 4.583;
}
]]></style>
</defs>
<g clip-path="url(#c0_8)">
<path d="M0 0H909.8V1286.8H0V0Z" class="g0_8"/>
<path d="M0 0H909.8V1286.8H0V0Z" class="g1_8"/>
</g>
<path clip-path="url(#c1_8)" d="M99.4 48.2H810.1c18.5 0 36.3 7.4 49.4 20.5C872.7 81.8 880 99.6 880 118.2v993.7c0 18.6 -7.3 36.4 -20.5 49.5c-13.1 13.1 -30.9 20.5 -49.4 20.5H99.4c-18.6 0 -36.4 -7.4 -49.5 -20.5C36.8 1148.3 29.4 1130.5 29.4 1111.9V118.2c0 -18.6 7.4 -36.4 20.5 -49.5C63 55.6 80.8 48.2 99.4 48.2Z" class="g2_8"/>
<path clip-path="url(#c2_8)" d="M311.4 1108.2h286v125h-286v-125Z" class="g1_8"/>
<path clip-path="url(#c3_8)" d="M373.9 1108.2H535.1c34.5 0 62.5 28 62.5 62.5c0 34.5 -28 62.4 -62.5 62.4H373.9c-34.5 0 -62.5 -27.9 -62.5 -62.4c0 -34.5 28 -62.5 62.5 -62.5Z" class="g3_8"/>
<path clip-path="url(#c4_8)" d="M347.8 983.2c0 1.7 -1.4 3 -3 3H317.2c-1.7 0 -3 -1.3 -3 -3V964.8c0 -1.6 1.3 -3 3 -3h4.2l2.1 -4.3h14.9l2.1 4.3h4.3c1.6 0 3 1.4 3 3v18.4ZM331 948.3c-13.2 0 -23.9 10.7 -23.9 23.9c0 13.2 10.7 23.9 23.9 23.9c13.2 0 23.9 -10.7 23.9 -23.9C354.9 959 344.2 948.3 331 948.3Z" class="g0_8"/>
<path d="M331 981c-4.9 0 -8.8 -3.9 -8.8 -8.8c0 -4.8 3.9 -8.7 8.8 -8.7c4.8 0 8.7 3.9 8.7 8.7c0 4.9 -3.9 8.8 -8.7 8.8Zm5.4 -20.3H325.5l-2.1 4.3h-6.1v18h27.3V965h-6l-2.2 -4.3Z" class="g0_8"/>
<path d="M331 966.7c-3.1 0 -5.6 2.5 -5.6 5.5c0 3.1 2.5 5.6 5.6 5.6c3 0 5.5 -2.5 5.5 -5.6c0 -3 -2.5 -5.5 -5.5 -5.5Z" class="g0_8"/>
<path clip-path="url(#c5_8)" d="M318.4 933c-.4 0 -.9 -.1 -1.2 -.3c-.9 -.5 -1.4 -1.4 -1.4 -2.4l.2 -4.5c-3.5 -2.8 -6 -6.6 -7.3 -11c-1.6 -5.7 -1 -11.7 1.9 -16.9c2.9 -5.2 7.6 -9 13.3 -10.6c2 -.6 4.1 -.9 6.2 -.9c4.7 0 9.4 1.6 13.2 4.4c4 2.9 6.8 6.9 8.2 11.6c3.3 11.7 -3.5 24.1 -15.3 27.5c-2 .6 -4.1 .9 -6.2 .9c-2.1 0 -4.1 -.3 -6.1 -.9l-4.1 2.7c-.4 .2 -.9 .4 -1.4 .4Zm11.7 -44.9c-1.9 0 -3.8 .3 -5.7 .8c-5.3 1.5 -9.7 5 -12.3 9.8c-2.7 4.8 -3.3 10.4 -1.8 15.6c1.2 4.2 3.7 7.8 7.1 10.4c.2 .2 .3 .5 .3 .7l-.2 5c0 .3 .2 .6 .5 .8c.1 .1 .3 .1 .4 .1c.2 0 .4 0 .5 -.1l4.4 -2.9c.2 -.2 .4 -.2 .7 -.1c1.9 .6 4 .9 6 .9c2 0 3.9 -.3 5.8 -.8c10.9 -3.2 17.2 -14.6 14 -25.4c-2.5 -8.7 -10.6 -14.8 -19.7 -14.8Zm7 33.3c-1.5 0 -3.5 -.6 -6.6 -1.8c-3.9 -1.6 -7.7 -5 -10.9 -9.5c0 -.1 -.1 -.2 -.1 -.2c-1 -1.4 -2.7 -4.1 -2.7 -6.9c0 -3.3 1.7 -5 2.4 -5.7v-.1c.8 -.7 1.6 -1.1 2.4 -1.1c2 0 3.6 1.9 4.4 3.7c.8 1.7 1.3 4.2 0 5.6c-.1 .2 -.2 .3 -.4 .5c-.1 .1 -.3 .3 -.5 .5c-.1 .1 -.2 .2 -.2 .3l.1 .1c.4 .7 1.6 2.6 3.3 4.1c2.1 1.8 3.7 2.5 4.5 2.8c.1 .1 .2 .1 .3 .1c0 .1 .1 .1 .2 .1c.1 0 .2 0 .3 -.1c.4 -.4 .9 -1.1 1.4 -1.8l.2 -.3c.6 -.8 1.2 -1 1.7 -1c.3 0 .5 .1 .8 .2c3.7 1.3 5.4 2.3 6 3.5c.5 1 .1 2 -.2 2.9c-.1 .1 -.1 .2 -.2 .4c-.6 1.7 -2.9 3.1 -4.8 3.5c-.4 .1 -.8 .2 -1.4 .2ZM320.9 908.9q0 .1 .1 .2c2.9 4.3 6.6 7.4 10.2 8.9c2.7 1.2 4.6 1.7 5.9 1.7c.4 0 .8 -.1 1.1 -.1c1.4 -.3 3.2 -1.4 3.6 -2.5c0 -.1 .1 -.3 .1 -.4c.3 -.8 .4 -1.2 .3 -1.6c-.4 -.7 -2.1 -1.6 -5 -2.6c-.1 -.1 -.2 -.1 -.3 -.1c0 0 -.1 0 -.3 .2l-.2 .4c-.6 .7 -1.1 1.4 -1.5 1.9c-.4 .4 -1 .6 -1.6 .6c-.3 0 -.6 0 -.9 -.1c0 -.1 -.1 -.1 -.2 -.1c-.8 -.3 -2.7 -1.1 -5 -3.2c-1.8 -1.5 -3.1 -3.5 -3.7 -4.5c-.6 -1.1 0 -1.9 .3 -2.2v-.1c.2 -.2 .4 -.4 .6 -.6c.1 -.1 .3 -.3 .4 -.4c.5 -.6 .4 -2.2 -.3 -3.8c-.8 -1.6 -1.9 -2.7 -2.9 -2.7c-.4 0 -.8 .2 -1.2 .6c-.6 .7 -1.9 2 -1.9 4.6c0 1.7 .8 3.9 2.3 5.9h.1Z" class="g0_8"/>
<path d="M318.4 933c-.4 0 -.9 -.1 -1.2 -.3c-.9 -.5 -1.4 -1.4 -1.4 -2.3c0 0 0 -.1 0 -.1l.5 -9.4c0 -.5 .4 -.8 .8 -.8c.5 0 .8 .4 .8 .9l-.4 9.4c0 .3 .2 .6 .5 .8c.1 .1 .3 .1 .4 .1c.2 0 .4 0 .5 -.1l8.2 -5.5c.4 -.3 .9 -.2 1.1 .2c.3 .4 .2 .9 -.2 1.2l-8.2 5.5c-.4 .2 -.9 .4 -1.4 .4Z" class="g0_8"/>
<path d="M372.1 822.3H531.5v2.3H372.1v-2.3Z" class="g0_8"/>
<path d="M598.4 608.1q.1 -.1 .1 0c.1 0 .1 .1 .1 .2c.1 .1 .3 .3 .4 .4c0 -.1 .1 -.1 .2 -.1c.1 0 .2 .1 .1 .2c0 0 -.1 .1 -.1 .1c.3 .2 .6 .4 1 .6c0 0 .1 0 .1 0c.1 0 .1 .1 .1 .1c.2 .2 .6 .3 .8 .5V610c0 0 .1 0 .1 0c.1 0 .1 .1 .1 .2c2 1.1 3.6 1.4 3.6 1.4c.1 -1.5 .1 -2.9 -.2 -4.2c0 0 0 .1 -.1 .1c0 0 -.1 0 -.1 0c-.1 0 -.2 -.2 -.1 -.2c0 -.1 .1 -.1 .2 -.1c0 0 .1 0 .1 0c-.1 -.5 -.2 -.9 -.3 -1.3v-.1l.1 -.1c-.6 -2.1 -1.5 -3.7 -2.6 -5c-.1 0 -.1 -.1 -.1 -.1c-2.3 -2.5 -5.1 -3.8 -6.8 -4.5c0 .1 -.1 .1 -.2 .1c-.1 0 -.1 -.1 0 -.1c-.8 -.3 -1.2 -.4 -1.2 -.4c-.6 6.1 1.9 10 4.7 12.4Zm6.7 2.8c0 0 .1 .1 0 .1c0 .1 -.1 .1 -.1 .1c0 0 -.1 -.1 0 -.1q0 -.1 .1 -.1ZM604.4 609c-.1 0 -.1 -.1 -.1 -.1c0 0 .1 0 .1 0c0 -.1 0 0 0 .1Zm.3 -.5c0 .1 0 .2 -.1 .3q0 -.2 .1 -.3Zm0 -.7c.1 0 .1 .1 .1 .2c0 .1 -.1 .2 -.1 .2q-.1 0 -.1 0c-.1 -.1 -.1 -.2 0 -.2c0 -.2 .1 -.3 .1 -.2Zm-.7 1.5c0 .1 -.1 .1 0 0q-.1 0 -.1 0c0 -.1 .1 -.1 .1 0Zm-.4 .7c0 -.1 0 0 .1 0c.1 0 .1 .1 .1 .1q0 .1 0 .2c-.1 0 -.2 0 -.2 0c-.1 -.1 -.1 -.2 0 -.3Zm.2 -1.4c0 0 -.1 0 0 0q-.1 0 0 0q-.1 0 0 0Zm-2 1.1q0 -.1 0 0q0 -.1 0 -.1q.1 0 0 .1q.1 -.1 0 0Zm.8 .5c0 0 0 -.1 0 0q0 -.1 0 -.1q.1 0 0 .1q.1 0 0 0Zm.2 -.6c0 0 0 -.1 0 -.2q0 -.1 .1 -.1c.1 0 .1 .1 .1 .2c0 .1 -.1 .1 -.2 .1Zm.8 -.8c0 .1 -.1 .1 -.2 .1c-.1 0 -.1 -.1 -.1 -.2c0 -.1 .1 -.1 .2 -.1c.1 0 .1 .1 .1 .2ZM604.1 606.1c.1 0 .1 -.1 .2 -.1c0 .2 0 .3 0 .4c0 .1 -.1 .1 -.1 0q-.1 -.1 -.1 -.2q0 -.1 0 -.1Zm-.2 .3q0 .1 0 .1q-.1 0 0 -.1c-.1 0 0 0 0 0Zm-1.5 3.7q-.1 0 -.2 -.1c0 0 -.1 0 -.1 -.1q.1 -.1 .2 -.1c.1 0 .2 .1 .3 .1c-.1 .2 -.2 .2 -.2 .2Zm1.4 -4.6c0 -.1 .1 -.1 0 0q.1 -.1 0 0q.1 0 0 0c.1 0 0 0 0 0Zm.2 -1.1c.1 .1 .1 .2 .2 .3c0 .1 0 .2 0 .3c0 0 -.1 .1 -.1 .1c-.1 0 -.2 0 -.2 0c-.1 -.1 -.1 -.2 0 -.3q.1 -.1 .2 -.2c-.1 0 -.2 -.1 -.1 -.2Zm-1.7 3.7c.1 0 .1 -.1 .2 -.2c0 0 0 -.1 0 -.1c0 -.1 .1 -.1 .2 -.1q.1 0 .1 .1c.1 .2 0 .4 -.1 .4c-.1 0 -.2 0 -.3 .1c-.2 0 -.2 -.1 -.1 -.2c-.1 .1 -.1 0 0 0Zm-2.5 -.6c0 0 -.1 0 0 0c0 -.1 .1 -.2 .1 -.1q0 .1 -.1 .1Zm.4 .6q-.1 -.1 0 0c0 -.1 0 -.2 .1 -.2c0 0 0 .1 0 .1c0 .1 -.1 .1 -.1 .1Zm-.1 .9c-.1 0 -.1 -.1 0 -.1c0 0 .1 -.1 .1 0c.1 0 .1 .1 .1 .1c-.1 0 -.2 0 -.2 0Zm1.6 -4.7c0 0 -.1 0 -.1 0c0 -.1 .1 -.1 .2 -.1c0 0 .1 .1 .1 .1c0 0 -.1 0 -.2 0Zm-1.1 4.5c0 0 0 -.1 0 0q0 -.1 0 0q.1 -.1 0 0q.1 0 0 0ZM602.5 606.7c.1 0 .1 .1 0 0q0 .1 -.1 .1l.1 -.1Zm-1.2 2.2c.1 0 .1 .1 .1 .2c0 0 -.1 0 -.1 0q-.1 0 -.1 -.1q0 -.1 .1 -.1Zm1.5 -6.1c0 0 0 .1 0 .1c0 0 0 .1 0 0c-.1 0 -.1 -.1 -.1 -.1c0 0 .1 0 .1 0Zm-1.6 4c0 0 0 .1 0 0c0 0 0 -.1 -.1 -.1q.1 0 .1 .1q0 -.1 0 0Zm1.1 -3.4q-.1 0 -.2 0c0 0 .1 0 .1 0c0 -.1 .1 -.1 .1 0Zm.3 -1.6q.1 0 .1 0c0 0 -.1 .1 -.1 .1q-.1 -.1 0 -.1q-.1 0 0 0Zm-.2 .2q.1 0 .1 .1q0 .1 0 .1c0 0 -.1 0 -.2 0c-.1 0 -.1 -.1 -.1 -.2c.1 .1 .2 0 .2 0Zm-1.8 4.9c.1 0 .1 .1 .1 .1c0 0 0 .1 -.1 .1c-.1 0 -.2 0 -.2 -.1c0 -.1 .1 -.1 .2 -.1Zm-.4 .6q0 .1 0 0q0 .1 0 0Zm.4 -1.3c0 0 -.1 .1 -.1 .1c-.1 0 -.1 -.1 -.1 -.1c0 -.1 0 -.2 .1 -.3q.1 0 .1 .1c.1 0 .1 .1 0 .2Zm.6 -2.3c0 0 .1 0 .1 .1q0 .1 0 .2c0 .1 -.1 0 -.1 0q-.1 -.1 0 -.3q-.1 0 0 0Zm-.2 .3c0 .1 -.1 .1 0 0c-.1 .1 -.1 0 0 0c-.1 0 0 0 0 0ZM596.6 606.1c0 0 -.1 0 0 0c-.1 0 0 0 0 0Zm1 .5c-.1 0 -.1 -.1 -.1 -.2c0 0 .1 0 .1 0q.1 0 0 .2c.1 -.1 0 0 0 0Zm.4 -1.8c0 0 -.1 0 -.1 -.1c0 0 0 -.1 0 -.1c0 0 .1 -.1 .1 -.1c0 0 .1 0 .1 .1c0 0 0 .1 0 .1c0 .1 -.1 .1 -.1 .1Zm-.1 .6c-.1 .1 -.1 .2 -.2 .2c0 0 -.1 0 -.2 0c-.1 -.1 -.1 -.2 -.1 -.4c0 -.1 .1 -.1 .2 -.1c.1 0 .2 0 .2 0q.1 .2 .1 .3Zm.2 -.3c0 0 .1 0 0 0q.1 0 0 0c.1 0 0 0 0 0Zm.8 -1.5c0 0 .1 0 0 0q.1 0 0 0q.1 0 0 0Zm.4 -.9c0 0 0 -.1 0 0Zm-1.3 3.8c0 0 .1 -.1 .1 -.1c.1 0 .1 .1 .1 .1c0 0 -.1 .1 -.1 0q-.2 .1 -.1 0Zm.2 .8c0 0 -.1 -.1 0 -.1c0 -.1 .1 -.1 .1 -.1c0 0 .1 .1 0 .1q-.1 .1 -.1 .1Zm1.1 -.4c0 0 -.1 -.1 0 -.1c0 0 .1 0 .1 0c-.1 -.1 0 0 -.1 .1c0 -.1 0 0 0 0Zm1.1 -1.4q-.1 0 0 0q-.1 0 0 0Zm0 -1.2c0 0 .1 0 .1 0q.1 0 .2 0c0 0 0 .1 0 .1c0 .1 -.1 .1 -.2 .1h-.1q0 -.1 0 -.2Zm-.3 1.4c.1 0 .1 .1 .1 .2c0 0 -.1 0 -.2 0q-.1 0 -.1 0c0 -.1 .1 -.2 .2 -.2Zm-.6 .9c0 .1 -.2 0 -.3 -.1c0 0 0 -.1 0 -.1c.1 -.1 .2 -.2 .3 -.2c0 .2 0 .3 0 .4Zm.9 -3.6c.1 0 .1 .1 .1 .1c0 .1 -.1 .1 -.1 .1c-.1 0 -.1 -.1 -.1 -.1q.1 -.1 .1 -.1Zm-.6 1.6q-.1 0 0 0Zm-.9 2.5c0 0 0 .1 0 0c-.1 .2 -.2 .3 -.2 .4c-.1 0 -.2 -.1 -.2 -.1c0 -.1 0 -.2 .1 -.2q.1 0 .3 -.1c-.1 0 0 0 0 0Zm1.9 -6.4c.1 0 .1 .1 .1 .2c0 .1 -.1 .1 -.2 .1c-.1 0 -.1 -.1 -.1 -.2c.1 -.1 .2 -.1 .2 -.1Zm-.6 2c0 .1 -.1 .1 -.1 .1c0 0 -.1 -.1 0 -.1c-.1 -.1 0 -.1 .1 0Zm-.3 .3c.2 0 .2 .1 .3 .2q0 .1 0 .2c0 0 -.1 0 -.2 0c0 0 -.1 0 -.1 0c0 -.1 -.1 -.2 0 -.4q-.1 .1 0 0Zm.5 -1.7c0 0 0 -.1 0 0c0 -.1 0 0 0 0Zm.2 -.8c0 0 0 .1 0 0c0 .1 0 .2 -.1 .1c0 -.1 .1 -.1 .1 -.1Zm-1.7 3.9c0 0 .1 0 0 0c.1 0 .1 .1 .2 .1c0 .1 0 .2 -.1 .2c0 0 -.1 0 -.1 0c-.1 -.1 -.1 -.2 0 -.3Zm-1 3q0 .1 0 .1v-.1Zm.4 -1.5c0 0 0 -.1 0 0q0 -.1 .1 -.1l-.1 .1q.1 0 0 0Zm2.1 -5.9c0 0 0 .1 0 .2c0 0 0 .1 0 .1q0 .1 0 .1c0 0 -.1 -.1 -.1 -.1q0 -.1 0 -.1c-.1 -.2 0 -.3 .1 -.2Zm-1.7 4q0 .1 -.1 0c-.1 -.1 -.1 -.2 0 -.2c0 0 .1 0 .1 0v.1c0 0 0 .1 0 .1Zm1.4 -4.6c.1 0 .2 0 .2 0c0 0 -.1 0 -.2 0q-.1 0 0 0Zm-1 2.7q-.1 0 0 0q-.1 0 0 0q-.1 0 0 0Zm-.7 1.6c-.1 .1 -.2 .2 -.3 .2c-.1 0 -.2 -.1 -.2 -.2c0 -.1 0 -.2 .1 -.2c.1 0 .2 0 .4 -.1q.1 .2 0 .3Zm1.1 -4.1q0 .1 0 .1l-.1 -.1c.1 0 .1 -.1 .1 0Zm-.8 1.9c0 0 0 .1 0 .1q0 .1 0 .1c0 0 -.1 -.1 -.1 -.1c0 0 0 -.1 .1 -.1Zm-1.2 2.9c.1 0 .1 .1 .1 .2c0 .1 -.1 .1 -.2 .1c-.1 0 -.1 -.1 -.1 -.2q.1 -.1 .2 -.1Zm-.4 1.3c0 .1 .1 .2 .1 .2c.2 0 .3 0 .3 .1c0 0 0 .1 0 .1c0 0 -.1 0 -.1 .1h-.1q-.2 -.1 -.4 -.1c-.1 0 -.2 -.1 -.2 -.2c.2 0 .3 -.2 .4 -.2Zm0 -.6c-.1 0 -.1 -.1 -.1 -.1c0 0 .1 -.1 .1 -.1v.2c0 -.1 0 0 0 0Zm1.4 -4.6c.1 0 .1 .1 .1 .2c0 .1 -.1 .1 -.2 .1c-.1 0 -.1 -.1 -.1 -.1c.1 -.1 .2 -.2 .2 -.2Zm-2.1 3.9q0 .1 -.1 .1c0 0 0 -.1 0 -.1q0 -.1 .1 0c-.1 -.1 0 -.1 0 0Zm1.7 -5.7q0 .1 0 0q0 .1 0 0q-.1 .1 0 0c-.1 0 0 0 0 0Zm-1.7 4.5c.2 .1 .2 .2 .1 .4c0 0 -.1 0 -.2 0c0 0 0 -.1 0 -.1q0 -.1 0 -.1c0 0 0 -.1 0 -.1c0 -.1 .1 -.1 .1 -.1Zm.4 -1.3q0 .2 -.1 .2c0 0 0 -.1 0 -.1c-.1 -.1 0 -.2 .1 -.1Zm-1 2.4c0 0 .1 0 .1 0c0 0 .1 0 .1 0c.1 0 .1 .1 .1 .2q0 .1 -.1 .2c-.1 0 -.2 0 -.3 0q-.1 -.1 -.1 -.2c0 -.2 .1 -.2 .2 -.2Zm1 -3.9c.1 0 .1 .1 .1 .2c0 .1 -.1 .1 -.2 .1c-.1 0 -.1 -.1 -.1 -.2q.1 -.1 .2 -.1ZM595.8 601c.2 0 .3 0 .5 .1c0 0 0 .1 0 .2q0 .1 -.1 .1c-.1 0 -.2 0 -.3 -.1c-.1 0 -.1 -.1 -.2 -.1c0 0 0 -.1 .1 -.2q-.1 0 0 0Zm-.2 -.5c0 0 0 .1 0 .1c0 0 -.1 .1 -.1 0c0 0 0 -.1 0 -.1h.1Zm.9 -3.5c.1 0 .1 .1 .1 .1c0 0 -.1 .1 -.1 0c-.1 0 -.1 -.1 -.1 -.1c0 0 0 -.1 .1 0Zm-.2 .4c0 0 0 .1 0 .1c0 .1 -.1 .1 -.2 0c0 0 -.1 -.1 0 -.1c.1 0 .2 0 .2 0Zm-1.3 2.8c.1 0 .1 .1 0 .1c0 0 -.1 .1 -.1 .1c-.2 0 -.2 .1 -.4 .1c0 0 -.1 -.1 -.1 -.1c0 0 0 -.1 0 -.1c0 0 0 -.1 0 -.1c.2 -.2 .5 -.2 .6 0Zm.6 -3.5c.1 0 .2 .1 .2 .2c0 .1 -.1 .2 -.2 .2c-.1 0 -.1 -.2 -.1 -.2c0 0 0 -.1 0 -.1q0 -.1 .1 -.1Zm-1.6 2.4c.1 -.1 .2 -.1 .2 0c.1 0 .1 .1 .1 .2v.1c0 0 -.1 .1 -.2 .1q-.1 0 -.2 -.1c0 0 0 -.1 .1 -.3c0 .1 0 0 0 0Zm-.1 -.6c0 .1 -.1 .1 -.2 .1c0 0 0 -.1 0 -.1c.1 -.1 .2 -.1 .2 0Zm-.1 -1.9q0 -.1 0 0q0 -.1 0 0c0 -.1 0 0 0 0Zm71.5 5.1c0 .1 -.1 .1 -.1 .1c-.1 0 -.2 -.1 -.2 -.2c-.2 -.1 -.4 -.2 -.6 -.2c0 .1 -.1 .1 -.2 .2c-.1 0 -.2 0 -.2 -.1c0 0 0 -.1 .1 -.1c-.4 -.1 -.7 -.2 -1.1 -.3c0 0 -.1 0 -.1 0V601c-.4 0 -.8 -.1 -1 -.1v.1h-.1c-.1 0 -.2 0 -.1 0c-2.2 -.4 -3.8 -.1 -3.8 -.1c.3 1.5 1 2.8 1.6 3.9c0 0 0 -.1 0 -.1c0 0 .1 -.1 .1 -.1c.1 0 .1 .1 .1 .2q0 .1 0 .2c0 0 -.1 0 -.1 0c.2 .3 .4 .8 .7 1.1c0 0 .1 0 .1 0v.1c1.2 1.7 2.6 2.9 4.2 3.8v.1c3 1.6 6.1 2 7.9 2c0 -.1 .1 -.1 .2 -.1c0 0 0 .1 0 .1c.8 0 1.4 -.1 1.4 -.1c-1.8 -6.2 -5.5 -9 -8.8 -10.3Zm-7.2 -.6c0 0 -.1 0 0 0c-.1 -.1 0 -.1 0 -.1q0 .1 0 .1Zm.8 -.2c0 0 -.1 0 0 0q-.1 -.1 0 0q0 -.1 0 0c0 -.1 0 0 0 0Zm.5 1.9c.1 0 .1 .1 .1 .1c0 0 0 .1 -.1 .1c0 0 -.1 -.1 0 -.2c-.1 0 0 0 0 0Zm-.2 .6c0 -.1 0 -.2 0 -.3c0 .1 .1 .1 0 .3Zm.2 .7c-.1 0 -.1 -.1 -.2 -.1c0 -.1 0 -.2 .1 -.2c0 0 .1 0 .2 0c.1 0 .1 .1 .1 .2c-.1 0 -.1 .1 -.2 .1Zm.2 -1.7c0 0 0 -.1 0 0c0 -.1 .1 -.1 0 0q.1 -.1 0 0c.1 0 0 0 0 0Zm.1 -.9q0 .1 -.1 .1q-.1 0 -.1 -.1q0 -.1 0 -.2q.1 -.1 .2 -.1c0 .1 .1 .2 0 .3Zm.3 1.5c0 0 0 -.1 0 0q0 -.1 0 0q.1 -.1 0 0c.1 0 0 0 0 0Zm1.5 -1.7c0 0 .1 0 0 0c.1 .1 0 .1 0 .1v-.1c0 .1 0 0 0 0Zm-.9 -.3c0 0 0 .1 0 0c.1 .1 0 .1 0 .1q-.1 0 0 -.1c-.1 .1 -.1 0 0 0Zm-.1 .8q.1 0 .1 .1c0 .1 -.1 .1 -.1 .1c0 0 -.1 -.1 -.1 -.2q.1 0 .1 0Zm-.3 .9c0 -.1 .1 -.1 .2 -.1c.1 0 .1 .1 .1 .1c0 .1 -.1 .1 -.2 .2q-.1 -.1 -.1 -.2ZM660.5 605.4q0 .1 -.1 .2c-.1 -.1 -.1 -.3 -.1 -.4c0 -.1 .1 -.1 .1 -.1c.1 0 .1 .1 .1 .2c0 0 0 .1 0 .1Zm.1 -.3c0 0 -.1 0 0 0c-.1 -.1 0 -.1 0 -.1c0 0 .1 0 0 .1q.1 0 0 0Zm.2 -4.1q.1 0 .2 0c0 0 .1 0 .2 0c.1 0 .1 .1 .1 .1c0 .1 -.1 .1 -.2 .2c-.1 0 -.3 0 -.3 -.1c-.1 -.1 0 -.2 0 -.2Zm.2 4.9c0 .1 -.1 0 0 0Zm.2 1c-.1 0 -.2 -.1 -.3 -.2c-.1 0 -.1 -.1 -.1 -.2c0 0 0 -.1 0 -.1c0 -.1 .1 -.1 .2 -.1c.1 0 .1 .1 .1 .2c0 .1 -.1 .1 -.1 .2c.2 0 .3 .1 .2 .2Zm.4 -4c-.1 .1 -.1 .2 -.1 .3c0 0 0 .1 0 .1c0 .1 -.1 .1 -.1 .1q-.1 0 -.1 0c-.1 -.1 -.1 -.4 0 -.5c.1 -.1 .2 -.1 .3 -.2c0 0 .1 .1 .1 .1q-.1 .1 -.1 .1Zm2.6 -.3c.1 .1 0 .2 -.1 .2c-.1 -.1 0 -.2 .1 -.2Zm-.5 -.3c0 .1 0 .2 -.1 .2c0 0 0 -.1 -.1 -.1q.1 -.1 .2 -.1Zm-.3 -.9c.1 0 .1 .1 .1 .1c0 0 -.1 .1 -.1 .1c-.1 0 -.1 -.1 -.1 -.1c0 -.1 .1 -.1 .1 -.1Zm0 4.9q.1 0 0 0q.1 .2 0 .2c0 0 -.1 0 -.1 -.1c0 0 0 -.1 .1 -.1ZM661.8 606.4q-.1 0 0 0c-.1 0 0 0 0 0Zm0 -2.1c-.1 -.1 0 -.1 0 -.1q.1 0 0 .1q.1 0 0 0Zm.4 -2.5q-.1 0 -.1 -.1q0 -.1 .1 -.1c.1 0 .1 .1 .2 .1q-.1 .1 -.2 .1Zm.7 6.3q-.1 0 -.1 -.1c0 0 0 -.1 .1 -.1v.1c0 0 0 .1 0 .1Zm.1 -4.3c0 0 0 -.1 0 0c.1 -.1 .1 0 .2 0c-.1 0 -.1 .1 -.2 0c0 .1 0 0 0 0Zm.1 3.7c0 0 0 -.1 0 -.1c.1 0 .1 -.1 .2 0c0 0 0 .1 .1 .1h-.1c0 0 -.1 0 -.2 0Zm.4 1.6q-.1 0 -.1 -.1c0 0 0 -.1 .1 -.1v.2c0 -.1 0 0 0 0Zm0 -.4c0 0 -.1 0 -.1 0c0 0 0 -.1 0 -.2c0 0 .1 -.1 .1 -.1c.1 0 .1 .1 .1 .1c0 .1 -.1 .2 -.1 .2Zm.1 -5.3q-.1 0 -.1 0c0 0 0 -.1 0 -.1c.1 -.1 .1 0 .2 .1h-.1ZM663.7 604.2c.1 0 .1 -.1 0 0c.1 -.1 .2 -.1 .2 0q0 .1 0 .2q-.1 0 -.2 0q0 -.1 0 -.2Zm.4 2.4c-.1 0 -.2 0 -.3 0c0 0 -.1 -.1 0 -.1c0 -.1 .1 -.1 .1 -.1c.1 0 .2 0 .2 .2c.1 -.1 0 0 0 0Zm.1 -.4c0 0 0 -.1 0 0q0 -.1 0 0q0 -.1 0 0ZM666.5 602.8c.1 0 .2 .1 .2 .2c0 0 -.1 0 -.1 0q-.1 0 -.1 -.2c0 .1 0 0 0 0Zm.2 1.8c0 0 .1 0 .1 0l.1 .1c0 0 -.1 .1 -.1 .1c0 0 -.1 0 -.2 0c.1 0 0 -.1 .1 -.2c-.1 .1 0 0 0 0Zm0 -.6c0 -.1 0 -.2 .1 -.3c0 -.1 .1 -.1 .2 -.1c0 0 .1 .2 .1 .3c0 .1 0 .2 -.1 .2c0 .1 -.1 .1 -.1 0q-.2 0 -.2 -.1ZM666.2 603q0 .1 0 0c-.1 .1 -.2 0 -.2 0c0 0 0 -.1 .1 -.1c.1 0 .1 .1 .1 .1Zm-.5 -.7c0 0 .1 0 .1 .1q0 .1 -.1 .1v-.2c0 .1 0 0 0 0Zm-.9 .8c0 0 .1 0 .1 .1h-.1v-.1Zm-.5 1.6q.1 0 0 0q.1 0 0 0q0 .1 0 0Zm.3 1.2c-.1 0 -.1 .1 -.2 0c0 -.1 .1 -.1 .2 -.2h.1q-.1 .1 -.1 .2Zm-.1 -1.5c-.1 0 -.1 -.1 -.1 -.1c0 0 .1 -.1 .1 -.1q.1 0 .1 .1c0 0 0 .1 -.1 .1Zm.1 -1c.1 0 .3 -.1 .4 0c-.1 .1 -.1 .2 -.2 .3c0 -.1 -.1 -.2 -.2 -.3Zm.4 3.8q-.1 0 -.1 -.1c0 -.1 .1 -.1 .1 -.1q.1 0 .1 .1c0 0 0 .1 -.1 .1Zm.1 -1.8c0 0 0 -.1 0 0q0 -.1 0 0q0 -.1 0 0Zm0 -2.7c0 0 0 -.1 0 0c.1 -.1 .1 -.2 .1 -.4c.1 0 .2 0 .2 .1c.1 0 .1 .2 0 .2c0 0 -.1 0 -.3 .1c.1 0 0 0 0 0Zm.3 6.7c0 0 0 -.1 0 -.2q0 -.1 0 -.1c.1 0 .1 .1 .1 .1q0 .2 -.1 .2Zm0 -2.1q0 -.1 0 -.1c0 0 .1 0 .1 .1c0 0 0 .1 -.1 0Zm.1 -.4q-.1 0 -.2 -.1c-.1 0 -.1 -.1 -.1 -.1c0 -.1 .1 -.1 .2 -.1q.1 .1 .1 .3c.1 -.1 0 -.1 0 0Zm.2 1.7c0 0 0 .1 0 0q0 .1 0 .1c0 .1 -.1 0 0 -.1c-.1 .1 0 0 0 0Zm0 .9c0 0 -.1 0 0 0q-.1 0 0 0c0 -.1 0 -.2 .1 -.2c0 .2 -.1 .2 -.1 .2Zm.3 -4.2c0 0 -.1 0 0 0c-.1 0 -.2 0 -.2 0c-.1 -.1 -.1 -.2 0 -.2c0 0 .1 0 .1 0q.1 0 .1 .2c0 -.1 0 0 0 0Zm0 -3.1c0 0 -.1 -.1 0 0c-.1 -.1 0 -.1 0 -.1c0 -.1 .1 -.1 0 .1c.1 -.1 0 0 0 0Zm.1 1.5c0 0 .1 .1 0 0c.1 .1 0 .1 0 .1c0 .1 0 0 0 -.1c-.1 .1 0 0 0 0Zm.1 6.2q-.1 0 -.1 0c0 0 0 -.1 0 -.1c0 0 0 -.1 0 -.1c0 -.1 .1 -.1 .1 -.1v.1c0 .1 .1 .1 .1 .2c0 0 -.1 0 -.1 0Zm.1 -4.3c0 -.1 .1 -.1 .2 -.1c.1 .1 .1 .2 0 .2h-.1c0 0 -.1 0 -.1 0c0 .1 0 0 0 -.1Zm.3 4.9c-.1 0 -.2 0 -.2 -.1v-.1c0 -.1 .1 -.1 .2 0c0 0 0 .1 0 .2c0 -.1 0 0 0 0Zm0 -3q.1 0 0 0q.1 0 0 0Zm.1 -1.7c0 -.1 .1 -.2 .2 -.3q.1 0 .1 .1c.1 .1 0 .2 0 .2c0 .1 -.1 .1 -.2 .1q-.1 0 -.1 -.1Zm.3 4.2q0 -.1 0 -.1v.1c.1 0 0 0 0 0Zm.2 -2.1q-.1 0 0 0c-.1 -.1 -.1 -.2 0 -.2c0 0 .1 0 .1 .1c0 .1 -.1 .1 -.1 .1Zm.1 -3.1c-.1 0 -.1 -.1 -.1 -.1c0 -.1 .1 -.2 .1 -.2c.1 0 .1 .1 .1 .1c0 .1 0 .2 -.1 .2Zm0 -1.3c0 0 -.1 0 -.2 0q-.1 -.1 -.1 -.1c-.1 0 -.3 0 -.4 0c0 0 0 -.1 0 -.1c0 0 0 -.1 .1 -.1h.1q.2 0 .4 -.1c.1 -.1 .2 0 .3 .1c0 .1 0 .2 -.2 .3Zm.3 .6q.1 0 .1 .1c0 0 0 .1 -.1 .1q-.1 0 -.1 -.1c0 0 0 -.1 .1 -.1Zm.1 4.7c-.1 0 -.1 -.1 -.1 -.1c0 -.1 .1 -.1 .1 -.1q.1 0 .1 .1c0 0 0 .1 -.1 .1Zm.7 -4.4q0 -.1 .1 -.1c0 0 .1 0 .1 .1c-.1 0 -.1 .1 -.2 0c.1 .1 0 .1 0 0ZM668.7 605.6c-.1 0 -.2 -.3 -.1 -.4q0 -.1 0 -.1q.1 0 .2 .1q0 .1 .1 .2c0 0 0 .1 0 .1c-.1 .1 -.2 .1 -.2 .1Zm.2 1.3q-.1 0 0 0c-.1 -.1 0 -.2 0 -.2c0 0 .1 0 .1 0c0 .2 -.1 .2 -.1 .2Zm.1 -2.6c0 0 -.1 0 -.1 0c0 0 -.1 0 -.1 0q-.1 0 -.1 0q0 -.1 .1 -.2c.1 -.1 .2 -.1 .3 -.1c.1 0 .2 .1 .1 .2q-.1 .1 -.2 .1Zm.4 4q-.1 0 -.1 0c0 -.1 .1 -.1 .1 -.1c0 0 0 .1 0 .1Zm.5 .6q0 -.1 0 0q0 -.1 0 0q0 -.1 0 0c0 -.1 0 0 0 0Zm.2 -1.4c-.2 0 -.3 0 -.5 0q-.1 0 -.1 -.1q0 -.1 .1 -.1c.1 0 .2 0 .3 0q.1 0 .2 0c0 0 .1 0 .1 .1c0 0 0 .1 -.1 .1Zm.3 .3c0 0 -.1 0 -.1 -.1c0 0 0 -.1 .1 0v.1Zm.4 3.7c-.1 0 -.1 -.1 -.1 -.1c0 0 0 -.1 .1 -.1c0 0 .1 .1 0 .2Zm0 -.5c-.1 0 -.1 -.1 -.1 -.1c0 -.1 .1 -.1 .2 -.1c0 0 .1 0 .1 .1c0 .1 -.1 .1 -.2 .1Zm.3 -2.9c-.1 0 -.1 -.1 -.1 -.2c0 -.1 .1 -.1 .1 -.2c0 -.1 .2 -.2 .3 -.2c0 0 .1 0 .1 .1c0 0 0 .1 0 .1c0 0 0 .1 0 .1c.1 .2 -.3 .4 -.4 .3Zm.7 3.4c-.1 0 -.2 0 -.2 -.1c0 0 0 -.1 0 -.1c0 -.1 0 -.2 .1 -.3c.1 0 .2 .1 .2 .2c0 0 0 .1 0 .1c0 .1 -.1 .2 -.1 .2Zm.5 -2.8q-.1 .1 -.2 .1c-.1 0 -.1 -.1 -.1 -.2v-.1c0 -.1 .1 -.2 .2 -.2q.1 0 .2 0c0 .1 0 .2 -.1 .4q.1 -.1 0 0Zm.4 .5c0 0 0 -.1 0 0c0 -.1 .1 -.1 .1 -.1h.1c-.1 .1 -.2 .1 -.2 .1Zm.8 1.7q0 .1 0 0q0 .1 0 0q0 .1 0 0ZM631.2 561.5c.1 0 .1 .1 .1 .1c0 .1 -.1 .2 -.1 .2c0 .2 -.1 .4 -.1 .6q.1 0 .1 .1c0 .1 0 .2 0 .2c0 0 -.1 0 -.1 0c0 .3 -.1 .8 -.1 1.1l.1 .1q0 .1 -.1 .2c0 .3 0 .7 0 1.1h.1c0 0 .1 0 .1 .1c0 0 0 .1 -.1 .1c.1 2.3 .6 3.9 .6 3.9c1.4 -.8 2.6 -1.6 3.6 -2.4c0 0 -.1 0 -.1 0c0 0 -.1 0 -.1 0c0 -.1 0 -.2 .1 -.2q.1 0 .1 .1c0 0 0 .1 0 .1c.4 -.3 .7 -.7 1 -.9c0 0 0 -.1 0 -.1h.1c1.4 -1.5 2.4 -3.2 3 -4.9q0 -.1 0 -.1c1.1 -3.2 .8 -6.3 .5 -8.1c-.1 0 -.1 -.1 -.1 -.1q0 -.1 .1 -.1c-.2 -.8 -.4 -1.2 -.4 -1.2c-5.6 2.4 -7.6 6.5 -8.3 10.1Zm.9 7.1c0 0 0 .1 0 0c0 .1 -.1 .1 -.1 0c0 0 0 -.1 .1 -.1v.1ZM633.6 567q0 -.1 .1 -.1v.1h-.1Zm.5 .1c-.1 0 -.2 .1 -.3 .1q.1 -.2 .3 -.1Zm.6 -.3q0 .1 -.1 .1q-.1 0 -.1 0c0 0 -.1 0 0 0q0 -.1 .1 -.1c0 -.1 .1 -.1 .1 0Zm-1.7 .1q-.1 0 -.1 0c0 0 .1 0 .1 0Zm-.9 0c.1 0 .1 .1 .1 .2q0 .1 -.1 .1H632q-.1 -.1 -.1 -.2c.1 -.1 .2 -.1 .2 -.1Zm1.5 -.6c0 0 -.1 0 0 0c-.1 0 0 0 0 0Zm-2 -1.1c0 0 .1 0 0 0c.1 -.1 .1 0 .1 0h-.1q.1 0 0 0Zm-.1 .9q.1 0 0 0q.1 0 .1 0c.1 0 0 0 -.1 0c.1 .1 .1 0 0 0Zm.7 0c0 -.1 .1 -.1 .2 -.2q.1 0 .2 .1c0 .1 -.1 .1 -.1 .1c-.2 .1 -.3 0 -.3 0Zm1.1 .1c-.1 0 -.2 -.1 -.2 -.1h.1c.1 0 .2 0 .2 0c0 0 0 .1 -.1 .1Zm1 -.3c0 0 .1 0 0 0Zm1.6 -.6c.1 0 .1 .1 .2 .2c-.1 .1 -.2 .2 -.3 .2q-.1 0 -.1 -.1c0 -.1 0 -.2 .1 -.2c0 -.1 .1 -.1 .1 -.1Zm-.4 0q-.1 .1 -.1 0h.1c-.1 0 0 0 0 0Zm-4 .6q0 -.1 -.1 -.2c0 0 0 -.1 0 -.2c0 -.1 .1 -.1 .1 -.1c.1 0 .2 .1 .2 .1c0 .1 0 .3 -.1 .4c0 .1 -.1 .1 -.1 0Zm4.7 -1.1q.1 0 0 0c.1 0 .1 .1 0 0c.1 .1 0 0 0 0Zm1 -.4c0 .1 -.1 .2 -.2 .3q-.1 .1 -.2 .2c0 0 -.1 0 -.1 0c-.1 0 -.1 -.1 -.1 -.2c0 -.1 .1 -.2 .2 -.2q.1 0 .1 .1c.1 -.1 .2 -.2 .3 -.2Zm-4 .4c.1 .1 .2 .1 .3 0c0 0 .1 0 .1 0q.1 0 .1 .1q0 .1 0 .2c0 .2 -.2 .2 -.4 0q-.1 -.1 -.2 -.2c0 0 0 -.1 .1 -.1c-.1 0 0 0 0 0Zm-.8 -2.5q.1 0 0 0c.1 -.1 .2 0 .2 0c0 .2 -.1 .1 -.2 0Zm-.3 .6c0 0 .1 -.1 0 0c.1 -.1 .2 -.1 .2 0c0 0 0 .1 -.1 .1c0 0 -.1 0 -.1 -.1Zm-.8 .5q0 -.1 .1 -.1c0 0 .1 0 .1 .1c0 0 -.1 .1 -.2 0Zm4.8 -1c0 0 0 -.1 .1 -.1c.1 0 .2 0 .2 .1c0 0 0 .1 -.1 .1c-.1 0 -.2 -.1 -.2 -.1Zm-4.3 1.3c.1 -.1 .1 0 0 0q.1 0 0 0c.1 0 0 0 0 0ZM634.5 564.4q-.1 0 -.1 0q0 -.1 .1 0q0 -.1 0 0Zm-2.4 0q0 .1 -.1 .1q-.1 0 -.1 -.1c0 0 0 -.1 .1 -.1c0 0 .1 .1 .1 .1Zm5.8 -1.8q0 .1 -.1 .1c0 0 -.1 0 -.1 -.1q0 -.1 .1 -.1q.1 0 .1 .1Zm-4.2 .6q0 -.1 0 -.2q.1 .1 0 .2q.1 0 0 0Zm3.6 -.8c0 0 -.1 0 -.1 0c-.1 0 -.1 -.1 -.1 -.2l.1 -.1c0 0 .1 0 .1 0c0 .1 0 .2 0 .3Zm1.5 -.6q0 .1 -.1 .1c0 0 -.1 0 -.1 -.1c0 0 .1 0 .2 0c0 -.1 0 0 0 0Zm-.3 .1c0 0 .1 .1 0 .1c0 0 -.1 .1 -.1 0q-.1 0 -.1 0q0 -.1 .1 -.2c0 0 .1 0 .1 .1Zm-5.2 .9c0 0 -.1 0 -.1 0q-.1 0 0 -.2c0 .1 .1 .1 .1 .2ZM634 562.4c0 0 -.1 0 -.1 -.1c0 0 0 -.1 .1 -.1c.1 -.1 .2 -.1 .3 -.1c.1 .1 0 .1 0 .2c-.1 .1 -.2 .1 -.3 .1Zm2.2 -.7c0 .1 .1 .2 0 .3c0 0 -.1 0 -.1 0c0 -.1 0 -.2 0 -.3c0 -.1 .1 -.1 .1 0Zm-.3 -.1q0 .1 0 0q0 .1 0 0ZM632 558.9q0 -.1 0 0q0 -.1 0 0Zm.1 1.1c0 -.1 0 -.2 .1 -.2c0 0 .1 0 .1 .1c0 0 0 .1 -.2 .1c.1 0 0 0 0 0Zm1.7 -.5c0 0 0 -.1 0 -.1c0 0 0 -.1 .1 -.1c0 0 .1 0 .1 .1c0 0 0 .1 0 .2c0 -.1 0 0 -.2 -.1c.1 .1 .1 0 0 0Zm-.6 .1c-.1 0 -.2 0 -.3 0v-.1c0 -.1 0 -.2 .2 -.3c.1 0 .2 0 .2 .1q.1 .1 .1 .2c0 .1 -.1 .1 -.2 .1ZM635.3 559.6c0 0 0 .1 0 0c0 .1 0 0 0 0ZM632.4 560.3c0 0 .1 0 0 0q.1 .1 0 .1c0 0 -.1 0 -.1 0c0 0 0 -.1 .1 -.1Zm-.6 .6q0 -.1 0 0c.1 -.1 .2 -.1 .2 0c0 0 0 .1 -.1 .1c0 -.1 -.1 -.1 -.1 -.1Zm.9 .7c0 -.1 .1 -.1 0 0q.1 -.1 .1 0c.1 0 0 0 -.1 0q.1 0 0 0Zm1.7 .2c0 0 .1 0 0 0q.1 0 0 0q.1 0 0 0q.1 0 0 0Zm1 -.5c0 0 .1 0 .1 .1q.1 .1 0 .2c0 0 -.1 0 -.1 0q-.1 0 -.1 -.1v-.2c0 0 .1 -.1 .1 0Zm-1.3 .4q0 .1 -.1 .2c-.1 0 -.2 0 -.2 -.1q0 -.1 .1 -.2c.1 -.1 .2 0 .2 .1Zm-1 0c-.1 -.1 -.2 -.3 -.1 -.4h.1c.1 0 .2 .1 .3 .1c-.1 .1 -.2 .2 -.3 .3Zm3.6 -1.1q0 .1 -.1 .2q-.1 0 -.1 -.1q0 -.1 .1 -.1c0 -.1 .1 0 .1 0ZM632.3 561.4c0 0 0 .1 0 0q-.2 0 -.4 0c0 -.1 0 -.2 0 -.2c0 -.1 .1 -.1 .2 0c0 0 .1 .1 .2 .2c0 -.1 0 0 0 0Zm6.5 -1.7c0 .1 -.1 .1 -.1 .1q-.1 0 -.1 -.1q0 -.1 .1 -.1c0 0 .1 .1 .1 .1Zm-2.1 .6q-.1 0 -.1 -.1c0 0 0 -.1 .1 -.1c0 0 .1 0 0 .2c.1 -.1 .1 0 0 0Zm-.4 -.1q0 .2 0 .2c0 .1 -.1 .1 -.1 .1q-.1 0 -.1 -.1c0 -.1 0 -.2 .2 -.2c-.1 0 0 0 0 0Zm1.7 -.6q.1 0 0 0c.1 0 .1 .1 0 0q0 .1 0 0Zm.9 -.1q0 .1 0 0q-.1 .1 0 0c-.1 0 -.2 0 -.2 0c.1 -.1 .2 0 .2 0Zm-4.3 .5q.1 .1 0 0c0 .1 0 .2 0 .2c0 .1 -.1 .1 -.1 0c0 0 0 -.1 0 -.1c0 0 0 -.1 .1 -.1Zm-3 .6c0 0 0 .1 0 .1c0 0 -.1 0 -.1 -.1c0 0 0 -.1 0 -.1c0 .1 .1 .1 .1 .1Zm1.5 -.3c0 0 0 -.1 0 0q.1 -.1 .1 0h-.1c.1 0 0 0 0 0Zm6.2 -1.4q0 .1 -.1 .2c0 0 -.1 0 -.1 0c0 0 -.1 0 -.1 0q-.1 0 -.1 -.1c0 0 0 -.1 .1 -.1c.1 0 .1 -.1 .2 -.1c-.1 0 0 0 .1 .1Zm-4.4 .7q-.1 0 -.1 0c0 -.1 .1 -.1 .2 -.1l.1 .1q-.1 0 -.2 0Zm4.7 -1.2c.1 .1 0 .2 0 .2h-.1c-.1 0 -.1 -.1 -.1 -.2c0 .1 .1 0 .2 0c-.1 0 0 0 0 0Zm-2.9 .5q0 .1 0 0q0 .1 0 0Zm-1.7 .4c-.1 0 -.2 -.1 -.3 -.2c0 -.1 0 -.2 0 -.3q.1 0 .2 0c.1 .1 .2 .2 .2 .3c.1 .1 0 .2 -.1 .2Zm4.1 -1.2q-.1 .1 -.1 0c0 0 0 -.1 0 -.1q.1 0 .1 .1Zm-2.1 .2c0 0 0 .1 -.1 .1l-.1 -.1c0 0 0 -.1 .1 -.1c0 0 0 .1 .1 .1Zm-3.1 .5q0 .1 -.1 .2q-.1 0 -.1 -.1q0 -.1 0 -.1q.1 0 .2 0Zm-1.2 .2c0 0 .1 .1 0 .1c0 .1 -.1 .1 -.2 .2c.1 .1 .1 .2 .1 .3c0 0 -.1 .1 -.1 .1c0 0 -.1 0 -.1 0v-.1c0 -.1 -.1 -.2 -.2 -.3c-.1 -.1 0 -.2 0 -.3c.2 -.1 .4 -.1 .5 0Zm.5 -.2q0 -.1 .1 -.2c0 0 .1 0 .1 .1q0 .1 -.1 .1q-.1 0 -.1 0Zm4.5 -1.1q0 .1 0 .1q-.1 0 -.1 -.1q0 -.1 .1 -.1c0 0 0 .1 0 .1Zm-4.3 .2q-.1 0 -.1 0c0 0 0 -.1 .1 -.1v.1c0 -.1 0 0 0 0Zm5.7 -1.5q-.1 0 0 0q-.1 0 0 0Zm-4.6 .9c0 .2 -.2 .3 -.4 .3c-.1 0 -.1 -.1 -.1 -.1c0 -.1 0 -.2 .1 -.2c.1 0 .1 -.1 .2 -.1c0 0 .1 0 .1 0c0 0 .1 0 .1 .1Zm1.2 -.4c0 0 0 .1 0 0c-.1 .1 -.2 .1 -.2 0c0 0 0 -.1 0 -.1c.1 0 .2 0 .2 .1Zm-2.6 .4c0 .1 0 .2 0 .2q0 .1 -.1 .2q-.1 0 -.1 0q-.1 -.1 -.1 -.3c0 -.1 .1 -.2 .1 -.2c.1 -.1 .1 0 .2 .1Zm3.8 -1.1q0 .1 0 .1q-.1 0 -.1 -.1q0 -.1 .1 -.1v.1Zm.5 -.7q-.1 0 0 0c-.1 0 0 0 0 0Zm-1.4 0c.1 .1 .1 .3 .1 .5q0 .1 0 .2q-.1 0 -.2 -.1c0 -.1 -.1 -.2 -.1 -.2q0 -.1 0 -.2c0 0 0 -.1 .1 -.1c0 -.1 .1 -.1 .1 -.1Zm.3 -.3c0 0 -.1 .1 0 0c-.1 .1 -.2 0 -.2 0c0 0 .1 0 .2 0c-.1 0 0 0 0 0Zm3.5 -1.1q0 .1 -.1 .1c0 0 -.1 0 -.1 -.1q0 -.1 .1 -.1c0 .1 .1 .1 .1 .1Zm-.4 .1q0 .1 -.1 .1c-.1 0 -.1 -.1 -.1 -.1c0 0 0 -.1 .1 -.1c0 -.1 .1 0 .1 .1Zm-3.1 .3c0 .1 -.1 .1 -.2 .1l-.1 -.1c-.1 -.1 -.2 -.3 -.3 -.4c0 0 0 -.1 0 -.1c0 0 .1 0 .1 0c0 0 .1 0 .1 0c.3 0 .5 .3 .4 .5Zm3.3 -1.3c0 .1 0 .2 -.1 .3h-.1c0 0 -.1 0 -.2 -.1c0 -.1 0 -.2 .1 -.3c0 0 .1 0 .1 0c.1 0 .2 0 .2 .1Zm-2.8 -.1c.1 0 .1 .1 .1 .2c0 .1 -.1 .1 -.1 .2h-.1c-.1 0 -.2 0 -.3 -.1q0 -.1 0 -.2c0 -.1 .1 -.1 .2 -.1q.1 0 .2 0Zm.4 -.4c0 0 -.1 0 0 0c-.2 .1 -.2 0 -.2 -.1l.1 -.1c.1 0 .1 .1 .1 .2Zm1.5 -1.1c0 0 0 -.1 0 0c0 -.1 .1 -.1 0 0q.1 -.1 0 0q.1 0 0 0Zm-41.6 23.5q0 -.1 0 -.1c0 0 0 -.1 .1 -.1c.1 -.2 .2 -.4 .3 -.6c-.1 0 -.1 -.1 -.1 -.1c0 -.1 .1 -.2 .2 -.2c0 0 .1 0 .1 .1c.2 -.4 .3 -.7 .4 -1.1c0 0 0 -.1 0 -.1c0 -.1 .1 -.1 .1 -.1c.1 -.3 .3 -.6 .4 -1h-.2c0 -.1 .1 -.1 .1 -.1c.6 -2.2 .7 -3.9 .7 -3.9c-1.5 .2 -2.9 .5 -4.1 .9c0 0 .1 0 .1 0c0 0 0 .1 .1 .1c0 .1 -.1 .2 -.2 .2c-.1 0 -.1 -.1 -.1 -.1c0 0 0 -.1 0 -.1c-.4 .2 -.8 .4 -1.2 .5h-.1c-1.9 1 -3.4 2.3 -4.5 3.6c0 .1 -.1 .1 -.1 .1c-2 2.7 -2.8 5.7 -3.2 7.4c.1 0 .1 .1 .1 .2c0 .1 -.1 .1 -.2 .1c-.1 .8 -.1 1.3 -.1 1.3c6.3 -.5 9.6 -3.7 11.4 -6.9Zm1.6 -7c0 0 .1 -.1 .1 -.1c.1 0 .1 .1 .1 .1c0 0 -.1 .1 -.1 .1q-.1 0 -.1 -.1Zm.2 .8c0 0 0 .1 0 0c0 .1 0 0 0 0Zm-2 .3c0 .1 -.1 .1 -.1 .1c0 0 0 -.1 0 -.1c-.1 0 0 -.1 .1 0Zm-.6 -.3c.1 0 .2 0 .3 0q-.1 .1 -.3 0Zm-.7 .1c0 -.1 .1 -.1 .2 -.1c.1 0 .2 0 .2 .1q0 .1 0 .2q-.1 .1 -.2 .1c-.1 -.2 -.2 -.2 -.2 -.3Zm1.7 .4c.1 0 .1 .1 0 0c.1 .1 0 .1 0 .1c-.1 0 -.1 -.1 0 -.1Zm.8 .4c-.1 -.1 0 -.1 0 -.2c0 -.1 .1 -.1 .1 -.1q.1 0 .2 0c0 .1 0 .2 0 .2c-.1 .1 -.2 .1 -.3 .1Zm-1.5 0q.1 0 0 0c.1 0 0 .1 0 0Zm1.4 1.8q-.1 0 -.1 0c0 0 0 -.1 .1 0c0 -.1 0 0 0 0Zm.5 -.9q-.1 0 0 0q-.1 0 -.1 0c-.1 -.1 0 -.1 .1 0c-.1 -.1 -.1 0 0 0Zm-.7 -.2c0 .1 -.1 .1 -.2 .1c-.1 0 -.1 -.1 -.1 -.2c0 -.1 .1 -.2 .2 -.1c.1 0 .1 .1 .1 .2Zm-.9 -.5c.1 0 .1 .1 .1 .1c0 .1 -.1 .1 -.1 .1c-.1 0 -.1 -.1 -.1 -.1c-.1 -.1 0 -.1 .1 -.1Zm-1.1 0c0 0 -.1 0 0 0Zm-1.7 0c0 -.1 -.1 -.1 -.1 -.2c.2 0 .3 -.1 .4 0c.1 0 .1 .1 .1 .1c0 .1 -.1 .2 -.2 .2c-.1 -.1 -.2 -.1 -.2 -.1Zm.4 .1q.1 0 .1 0h-.1Zm3.9 .8q0 .1 0 .2c0 0 0 .1 0 .2c0 .1 -.1 .1 -.1 0c-.1 0 -.1 -.1 -.1 -.2c0 -.1 .1 -.2 .2 -.2c0 -.1 0 0 0 0Zm-4.8 -.6c-.1 0 -.1 -.1 0 0q-.1 -.1 0 0q0 -.1 0 0c0 -.1 0 0 0 0Zm-1.1 0c0 -.1 .2 -.2 .3 -.2c.1 0 .2 0 .2 0c0 0 .1 0 .1 .1c.1 .1 .1 .2 0 .2q-.1 .1 -.1 .1c-.1 0 -.1 -.1 -.2 -.1c-.1 -.1 -.2 0 -.3 -.1Zm3.9 1.1q-.1 -.1 -.1 -.1c0 0 -.1 0 -.1 0c-.1 0 -.1 -.1 -.1 -.1q0 -.1 .1 -.2c.1 -.1 .3 -.1 .4 .1c0 .1 .1 .2 .1 .3c-.1 0 -.2 0 -.3 0Zm-.1 2.5c0 0 0 .1 0 0c-.1 0 -.2 0 -.2 -.1c.2 0 .2 .1 .2 .1Zm.5 -.5c0 .1 -.1 .1 0 0c-.1 0 -.2 0 -.2 0c0 0 .1 0 .1 0q.1 0 .1 0Zm.9 0c0 0 -.1 0 -.1 0c0 0 -.1 0 -.1 0c0 -.1 .1 -.1 .1 -.1c.1 0 .1 .1 .1 .1Zm-4.8 -.8c0 0 -.1 .1 0 0c-.2 .1 -.2 0 -.2 0c0 0 0 -.1 .1 -.1c0 0 .1 .1 .1 .1Zm4.5 .2c0 0 -.1 .1 0 0q-.1 0 -.1 0c-.1 0 0 0 .1 0c-.1 0 0 0 0 0ZM595.1 571.4q0 -.1 0 0q.1 0 .1 0q0 .1 -.1 0Zm2.3 .7c0 -.1 .1 -.1 .2 -.1c.1 0 .1 .1 .1 .1c0 .1 -.1 .1 -.1 .1c-.2 .1 -.2 0 -.2 -.1Zm-6.2 -.3c0 0 .1 0 .1 0c0 0 .1 0 .1 0c0 .1 -.1 .1 -.1 .1c-.1 0 -.1 -.1 -.1 -.1Zm4.2 .8c0 0 .1 0 0 0q0 .1 0 .2q-.1 -.1 0 -.2q-.1 0 0 0Zm-3.7 -.4c0 0 .1 0 .1 0q0 .1 0 .2c0 0 -.1 0 -.1 0c0 0 -.1 0 -.1 -.1c0 0 .1 0 .1 -.1Zm-1.6 .1c0 -.1 .1 -.1 .1 -.1c0 0 .1 0 .1 .1c0 0 -.1 0 -.2 0Zm.4 0q0 -.1 0 -.1c0 0 .1 0 .1 0c0 0 .1 .1 0 .2q0 .1 -.1 .1q0 -.1 0 -.2Zm5.1 1q0 -.1 .1 -.1c0 0 .1 0 .1 0q0 .1 -.1 .2q-.1 0 -.1 -.1ZM594.8 573.4c0 0 .1 0 0 0c.1 0 0 .1 0 .1q-.1 0 -.2 0q0 -.1 .1 -.1q0 -.1 .1 0Zm-2.3 -.1c0 -.1 0 -.2 .1 -.2c0 0 .1 0 .2 0c.1 0 .1 .1 0 .1c0 .1 -.1 .2 -.2 .2c-.1 0 -.1 -.1 -.1 -.1Zm.3 .1c0 0 .1 0 0 0q.1 0 0 0q.1 0 0 0ZM595.7 576.2c0 .1 -.1 .1 -.2 .1c0 0 0 -.1 0 -.1c0 0 .1 0 .2 0Zm-1.8 -.1c0 0 0 .1 0 .1v.1c0 0 -.1 -.1 -.1 -.1c0 0 0 -.1 0 -.2c0 0 .1 0 .1 0c0 0 0 .1 0 .1Zm.8 .1c0 0 .1 .1 .2 .1c.1 0 .1 .1 0 .2c-.1 .1 -.2 .1 -.2 .1c-.1 0 -.2 0 -.2 -.1c0 -.1 0 -.2 0 -.2c0 -.1 .1 -.1 .2 -.1ZM592.6 575.4c0 0 .1 0 0 0c.1 0 0 0 0 0Zm-1 -.1c0 -.1 .1 -.1 0 0c.1 -.1 .1 0 0 0q.1 0 0 0Zm4 .5q-.1 0 0 0c-.1 -.1 0 -.1 .1 -.1c0 0 .1 .1 .1 .1c-.1 0 -.2 0 -.2 0Zm.7 -.2c0 0 0 .1 0 .1c-.1 0 -.1 -.1 -.1 -.1q.1 -.1 .1 0c0 -.1 .1 -.1 0 0Zm-.5 -1.1c0 0 0 .1 -.1 .1c0 0 0 -.1 0 -.1c-.1 0 0 0 .1 0c-.1 0 0 0 0 0Zm-1.5 -.7q-.1 0 0 0q-.1 0 0 0c-.1 0 -.1 -.1 0 0c-.1 -.1 -.1 0 0 0Zm-1.2 .1c0 0 -.1 -.1 -.1 -.1q0 -.1 0 -.2c0 0 .1 0 .1 0c.1 0 .1 .1 .1 .2v.2c0 -.1 -.1 -.1 -.1 -.1Zm1.4 .1c0 -.1 .1 -.1 .1 -.1c.1 0 .1 .1 .1 .2c0 .1 -.1 .1 -.1 .1c0 0 -.1 -.1 -.1 -.2Zm1 .3c0 .1 0 .3 0 .4c0 0 -.1 0 -.1 0c-.1 -.1 -.2 -.1 -.2 -.2c.1 -.1 .2 -.2 .3 -.2Zm-3.8 -.2c0 -.1 .1 -.1 .1 -.1c.1 0 .1 .1 .1 .1c0 .1 -.1 .1 -.1 .1q-.1 0 -.1 -.1ZM596.1 574.9c0 -.1 .1 -.1 0 0q.2 .1 .4 .1c0 .1 0 .2 -.1 .3c-.1 .1 -.1 0 -.1 0q-.1 -.3 -.2 -.4Zm-6.7 -.7c0 -.1 .1 -.1 .2 -.1c.1 0 .1 .1 .1 .1c0 0 -.1 0 -.1 0q-.2 0 -.2 0Zm2.1 .2c.1 0 .1 .1 .1 .1c0 0 -.1 .1 -.1 .1c0 0 -.1 -.1 0 -.2Zm.4 .2c0 -.2 .1 -.2 .1 -.3c0 -.1 .1 -.1 .2 0c0 0 0 .1 0 .2c0 0 0 .1 0 .1q-.1 0 -.3 0c.1 .1 0 .1 0 0Zm-1.8 -.1q-.1 0 -.1 0c0 -.1 .1 -.1 .1 0c0 -.1 0 0 0 0Zm-.8 -.2c.1 0 .2 0 .2 .1c-.2 .1 -.3 0 -.2 -.1Zm4.1 1c0 0 0 -.1 0 0c0 -.1 0 -.2 .1 -.2c.1 0 .2 0 .2 0c0 0 0 .1 0 .1c-.1 .1 -.1 .2 -.3 .1Zm3.1 .5q.1 0 .1 0h-.1c0 0 -.1 0 0 0Zm-1.6 -.1q-.1 0 -.1 0q0 -.1 .1 0q0 -.1 0 0Zm-6.1 -.9c0 -.1 .1 -.1 .1 -.1c0 0 .1 0 .1 0c.1 0 .1 .1 .1 .1c0 0 -.1 .1 -.1 .1h-.1q-.1 0 -.1 -.1Zm4.2 .8c.1 0 .1 .1 0 .2c0 0 -.1 0 -.1 0v-.1c0 0 0 -.1 0 -.1q.1 0 .1 0Zm-4.8 -.5q0 -.1 .1 -.1h.1c0 0 .1 0 0 .1q-.1 0 -.2 0Zm2.9 .5c0 0 .1 0 0 0q.1 0 0 0q.1 .1 0 0q0 .1 0 0Zm1.8 .3q.1 .1 .1 .3c0 .1 0 .2 0 .2c-.1 0 -.2 0 -.2 -.1c0 -.1 -.1 -.2 -.1 -.4c0 0 .1 0 .2 0Zm-4.3 -.3c.1 -.1 .1 0 .1 0c0 .1 -.1 .1 -.1 0c0 .1 -.1 .1 0 0Zm2 .5c0 0 0 -.1 0 0c.2 -.1 .2 0 .2 0c0 .1 -.1 .1 -.1 .1q-.1 0 -.1 -.1Zm3.1 .6c0 -.1 .1 -.1 .2 -.1c0 0 0 .1 0 .2q0 .1 -.1 .1c0 -.1 -.1 -.1 -.1 -.2Zm1.2 .2c0 0 0 -.1 0 -.1c.1 -.1 .2 -.1 .2 -.2c0 -.1 0 -.2 .1 -.3c0 0 .1 0 .1 0l.1 .1v.1c-.1 .1 0 .2 0 .4c0 .1 0 .2 -.1 .2c-.1 0 -.3 0 -.4 -.2Zm-.5 .1c0 .1 -.1 .1 -.1 .1c0 0 -.1 -.1 -.1 -.1h.2c-.1 0 0 0 0 0Zm-4.7 -.5c0 -.1 .1 -.1 .1 -.1c0 0 0 .1 0 .2c0 0 -.1 -.1 -.1 -.1Zm4.2 1.3v.1q0 .1 0 .1c0 -.1 -.1 -.1 0 -.2c-.1 0 0 0 0 0Zm-5.9 -.6q.1 0 0 0q.1 0 0 0q.1 0 0 0c.1 0 0 0 0 0Zm4.7 .8c.1 -.2 .3 -.2 .4 -.1c0 0 .1 .1 .1 .1q0 .1 -.1 .2q-.1 0 -.1 0c0 0 -.1 0 -.1 -.1c-.2 0 -.2 -.1 -.2 -.1Zm-1.3 -.1c0 -.1 .1 0 .1 .1l-.1 .1c0 0 0 -.1 0 -.2Zm2.5 .5c0 0 0 -.1 0 -.1c0 -.1 .1 -.1 .1 -.1q.1 0 .2 .1c.1 0 .1 .1 0 .2c0 .1 -.1 .1 -.2 .1c-.1 0 -.1 -.1 -.1 -.2Zm-4 -.2c0 -.1 .1 -.1 .1 -.1c.1 0 .1 .1 .1 .1c0 .1 -.1 .1 -.1 .1q-.1 0 -.1 -.1ZM590.6 579.1c0 -.2 0 -.3 0 -.5c0 -.1 .1 -.1 .2 -.1c.1 0 .1 .1 .1 .1c0 .1 0 .2 0 .3q0 .1 -.1 .2c0 0 -.1 0 -.1 0c0 0 -.1 0 -.1 0Zm-.4 .2c0 0 .1 -.1 .1 0c0 0 .1 0 0 .1q0 -.1 -.1 -.1Zm-3.7 -.2c0 -.1 .1 -.1 .1 -.1c0 0 .1 .1 .1 .1c0 0 -.1 0 -.2 0Zm.5 .1c0 -.1 .1 -.1 .1 -.1c.1 0 .1 .1 .1 .2c0 0 -.1 .1 -.1 .1c-.1 -.1 -.1 -.2 -.1 -.2Zm2.9 .7q.1 0 .2 0q.1 0 .1 0c.1 .2 .1 .3 .2 .5c0 0 0 .1 -.1 .1c0 0 -.1 0 -.1 0c0 0 -.1 0 -.1 0c-.3 -.1 -.3 -.5 -.2 -.6Zm-3.5 .1c0 -.1 .1 -.1 .1 -.1c0 0 .1 0 .1 0c.1 0 .2 0 .2 .1c0 .1 -.1 .2 -.2 .2c0 0 -.1 0 -.1 0c0 -.1 -.1 -.1 -.1 -.2Zm2.6 1.1q0 -.1 0 -.2q0 -.1 .1 -.1h.1c.1 0 .2 .1 .2 .2q0 .1 -.1 .2c0 -.1 -.1 0 -.3 -.1q.1 0 0 0Zm-.6 .3q.1 0 0 0c.2 0 .2 .1 .1 .1c0 0 -.1 0 -.1 0c0 0 0 -.1 0 -.1Zm-1.8 .4q-.1 0 0 0Zm-271.1 14c0 0 -.4 .1 -1.2 .3q0 .1 0 .2q-.1 0 -.2 -.1c-1.7 .7 -4.5 2 -6.8 4.5q0 .1 -.1 .1c-1.1 1.3 -2.1 2.9 -2.7 5c0 0 .1 0 .1 .1c-.1 .5 -.2 .9 -.2 1.4c0 0 .1 0 .1 0c0 0 .1 0 .1 .1q0 .1 -.1 .1h-.1c-.2 1.2 -.3 2.6 -.2 4.2c0 0 1.6 -.3 3.6 -1.4c0 0 0 -.2 0 -.2c0 0 .1 0 .1 0v.1c.3 -.2 .7 -.3 .9 -.5q0 -.1 .1 -.1c0 0 .1 0 .1 0c.4 -.2 .6 -.5 1 -.6c0 0 -.1 0 -.1 -.1c0 -.1 0 -.2 .1 -.2c.1 0 .2 0 .2 .1c.1 -.1 .3 -.3 .4 -.4q0 -.1 .1 -.2c0 0 .1 0 .1 0c2.7 -2.5 5.2 -6.4 4.7 -12.4ZM304.2 611c0 0 0 .1 0 .1c0 0 -.1 0 -.1 -.1c0 0 0 -.1 0 -.1q.1 0 .1 .1Zm.8 0c0 0 -.1 0 0 0q-.1 0 0 0q-.1 0 0 0c-.1 0 0 0 0 0Zm-.3 -2.1c0 0 0 -.1 0 -.1c0 0 .1 0 .1 0c.1 .1 0 .1 -.1 .1c.1 .1 0 .1 0 0Zm-.2 -.1c0 -.1 0 -.2 0 -.3q0 .1 0 .3Zm0 -.9c0 .1 0 .2 0 .2c0 0 0 .1 0 0c-.1 0 -.1 -.1 -.1 -.2q0 -.1 .1 -.2c0 0 0 .1 0 .2Zm.8 1.4q-.1 .1 0 0c-.1 .1 -.1 0 -.1 0q0 -.1 .1 0Zm.2 1q-.1 0 -.1 0c0 0 0 -.1 0 -.2q0 -.1 0 -.1c.1 0 .1 -.1 .2 0c.1 .1 0 .2 -.1 .3ZM307.3 609.6c0 0 .1 0 0 0c.1 0 0 0 0 0Zm-.8 .5c0 0 .1 0 0 0c.1 0 .1 .1 0 0q0 .1 0 0Zm-.4 -.6c0 -.1 0 -.2 .1 -.2c0 0 .1 0 .1 .1c0 .1 0 .2 -.1 .2l-.1 -.1Zm-.5 -.9c.1 0 .2 0 .2 .1q0 .1 -.1 .2c-.1 0 -.2 0 -.2 -.1c0 -.1 .1 -.2 .1 -.2ZM305.1 606.2c0 .1 0 .2 -.1 .2q-.1 0 -.1 0c-.1 -.1 -.1 -.2 0 -.4c.1 0 .2 .1 .2 .1v.1Zm.3 .2c0 .1 -.1 .1 0 0q-.1 .1 -.1 0q-.1 0 .1 0c-.1 0 0 0 0 0Zm1.3 3.6c0 -.1 .1 -.1 .3 -.1c0 0 .1 0 .1 0c0 0 0 .1 0 .1c-.1 0 -.1 .1 -.1 .1l-.1 .1q-.2 -.1 -.2 -.2Zm-1.4 -4.5c-.1 -.1 0 -.1 0 -.1v.1Zm-.1 -.8q.1 .1 .2 .2c0 .1 0 .2 0 .2c-.1 .1 -.2 .1 -.2 0c0 0 -.1 0 -.1 0c-.1 -.1 -.1 -.2 0 -.3c0 -.1 .1 -.2 .2 -.3c0 0 -.1 .1 -.1 .2Zm1.8 3.5c0 0 0 .1 -.1 .1c-.1 0 -.2 0 -.3 -.1c-.2 0 -.3 -.2 -.2 -.4c0 -.1 .1 -.1 .2 -.1q.1 0 .2 .1c0 0 0 .1 0 .1c0 .1 0 .2 .2 .3c-.1 -.1 -.1 0 0 0Zm2.3 -.8c.1 -.1 .1 0 .1 0v.1c-.1 0 -.2 0 -.1 -.1Zm-.4 .6c0 0 0 -.1 0 -.1q.1 0 .1 .1c0 0 0 .1 0 .1c0 0 -.1 0 -.1 -.1Zm.1 1c0 0 0 -.1 .1 -.1c0 0 .1 0 .1 0c0 0 0 .1 0 .1q-.2 0 -.2 0Zm-1.7 -4.7c0 0 0 -.1 .1 -.1q.1 0 .2 .1h-.1c-.1 0 -.2 0 -.2 0Zm1.2 4.4c-.1 0 0 0 0 0q.1 -.1 .1 0c0 0 -.1 .1 -.1 0q0 .1 0 0Zm-2.6 -3.9c-.1 0 0 0 0 0Zm.8 1.9q0 .1 0 .1c0 0 -.1 0 -.1 0c0 0 0 -.1 .1 -.1Zm1.2 2.3q0 .1 -.1 .1c0 -.1 0 -.2 0 -.2c0 0 .1 0 .1 .1Zm-1.4 -6.1q0 .1 -.1 .1q-.1 0 -.1 0q0 -.1 .1 -.1c0 -.1 .1 -.1 .1 0Zm1.4 3.8c0 0 .1 0 .1 0c0 0 0 .1 -.1 .1c.1 0 0 0 0 -.1Zm-.9 -3.4q.1 .1 0 .1h-.1c0 0 -.1 -.1 0 -.1c0 0 .1 0 .1 0Zm-.3 -1.5h-.1c0 0 -.1 0 -.1 0h.2c-.1 0 0 0 0 0Zm.2 .3q0 .1 -.1 .2q-.1 0 -.2 0c0 0 -.1 -.1 0 -.1c0 -.1 .1 -.1 .1 -.1c.1 -.1 .1 0 .2 0Zm1.8 4.9c-.1 .1 -.1 .2 -.1 .1c0 0 -.1 -.1 -.1 -.1q0 -.1 .1 -.1l.1 .1Zm.3 .5c0 .1 -.1 .1 0 0q-.1 .1 0 0q-.1 0 0 0Zm-.5 -1.6c0 0 .1 0 .1 0c0 0 0 .1 0 .2c0 0 0 .1 0 .1c0 0 -.1 0 -.1 -.1c0 0 0 -.1 0 -.2Zm-.4 -1.9c0 .1 0 .2 -.2 .2q-.1 0 -.1 0c0 0 0 -.1 0 -.2c0 -.1 .1 -.1 .3 0c-.1 -.1 0 -.1 0 0Zm.2 .2c-.1 0 -.1 .1 0 0q-.1 .1 0 0q-.1 0 0 0q-.1 0 0 0ZM311.5 606.5q0 -.1 .1 -.2c0 0 .1 0 .1 0c0 .1 -.1 .2 -.2 .2c0 .1 0 0 0 0Zm-.5 -1.7c0 0 0 -.1 0 -.1c0 0 .1 -.1 .1 -.1c0 0 .1 0 .1 .1c0 0 0 .1 0 .1c0 0 -.1 0 -.1 .1q-.1 -.1 -.1 -.1Zm.3 .4q.1 -.1 .2 -.1c.1 0 .1 .1 .2 .2c0 .1 0 .3 -.1 .4q-.1 0 -.2 0c-.1 -.1 -.1 -.2 -.2 -.2c0 -.2 .1 -.2 .1 -.3ZM309.9 602.7c0 0 -.1 0 0 0q-.1 0 0 0c0 -.1 0 0 0 0Zm1.2 3.9c0 0 -.1 0 -.1 0c0 0 0 -.1 .1 -.1c0 0 .1 0 .1 .1q-.1 0 -.1 0Zm-.2 .7q0 -.1 0 -.1c0 0 .1 0 .1 .1q0 .1 0 .1c0 -.1 -.1 -.1 -.1 -.1Zm-1.1 -.5c0 0 0 -.1 0 0q.1 -.1 .1 -.1c.1 .1 0 .2 -.1 .1c.1 .1 0 0 0 0ZM308.7 604.5c0 0 -.1 0 0 0q-.1 .1 -.1 .1c0 0 -.1 0 -.1 -.1c0 0 0 -.1 0 -.1c0 -.1 .1 -.1 .1 -.1c0 0 .1 0 .1 .1v.1Zm.6 1.4c0 0 -.1 0 -.1 0c-.1 0 -.2 0 -.2 0q0 -.1 .1 -.2c.1 0 .2 .1 .2 .2Zm.4 .4c.1 0 .2 .1 .3 .2c0 0 0 .1 0 .1c-.1 .1 -.3 .1 -.4 .1c0 -.2 0 -.3 .1 -.4Zm-.9 -3.3q0 .1 -.1 .1q-.1 0 -.1 -.1q0 -.1 0 -.1q.1 .1 .2 .1ZM310.2 607.1c.1 .1 .2 .1 .4 .1c.1 0 .1 .1 .1 .2c0 .1 -.1 .1 -.2 .1c-.1 -.1 -.1 -.3 -.3 -.3c0 0 0 -.1 0 -.1Zm-1.7 -6.3q0 .1 -.1 .2q-.1 0 -.2 -.1c0 -.1 0 -.2 .1 -.2c.1 0 .2 0 .2 .1Zm.5 1.8q.1 0 .1 0c0 0 0 .1 0 .1c0 .1 -.1 .1 -.1 -.1q0 .1 0 0Zm.3 .5c0 .1 0 .2 -.1 .2c0 0 -.1 .1 -.1 .1c-.1 0 -.2 0 -.2 -.1q0 -.1 0 -.2q.1 -.1 .2 -.2c.1 .1 .2 .1 .2 .2c0 0 .1 0 0 0Zm-.6 -1.8c0 0 0 -.1 0 0q.1 -.1 .1 0h-.1c.1 0 0 0 0 0Zm-.1 -.7c0 .1 0 0 -.1 0v-.1q.1 0 .1 .1Zm1.6 3.8c0 .1 0 .2 0 .2c0 0 -.1 0 -.1 0c-.1 0 -.1 -.1 -.1 -.2c0 0 0 -.1 .1 -.1q.1 .1 .1 .1Zm1.1 3q0 .1 0 0c-.1 .1 -.1 0 -.2 0q.1 0 .2 0c-.1 0 0 0 0 0Zm-.5 -1.6c-.1 0 0 0 0 0q.1 -.1 .1 0c0 0 0 .1 -.1 0q0 .1 0 0ZM309 600.1q0 .1 0 .1c0 0 0 .1 -.1 .1c0 0 -.1 0 -.1 -.1c0 0 0 -.1 0 -.1c0 -.1 0 -.2 .1 -.2c0 0 .1 .1 .1 .2Zm1.4 3.7q.1 0 .1 0q.1 .1 0 .2c0 .1 -.1 .1 -.2 0c.1 0 0 -.1 .1 -.2Zm-1.3 -4.4c-.1 0 -.1 .1 -.2 0c0 0 .1 0 .2 0Zm1.1 2.7q-.1 0 0 0q-.1 0 0 0q-.1 0 0 0Zm.6 1.4c.1 0 .2 0 .3 .1c.1 0 .1 .1 .1 .2c0 .1 -.1 .2 -.2 .2c0 0 -.1 -.1 -.2 -.2q-.1 -.2 0 -.3Zm-1.1 -3.9c0 0 0 .1 0 0c-.1 .1 -.2 0 -.2 0v-.1c.1 0 .2 .1 .2 .1Zm.9 2q0 .1 -.1 .1q-.1 0 -.1 -.1c0 0 0 -.1 .1 -.1c0 0 .1 .1 .1 .1Zm1.2 2.9q0 .1 -.1 .2c-.1 0 -.2 0 -.2 -.1q0 -.1 .1 -.2c.1 0 .2 0 .2 .1Zm.5 1.4c0 .1 -.1 .2 -.2 .2q-.2 0 -.4 .1h-.1c0 0 -.1 0 -.1 -.1c0 0 0 -.1 0 -.1c.1 -.1 .2 -.1 .3 -.1c0 0 .1 -.1 .1 -.2q0 -.1 0 0c.3 0 .4 .2 .4 .2Zm-.4 -.9q0 -.1 .1 -.1c0 0 .1 0 .1 .1c.1 0 0 .1 -.2 0c.1 .1 .1 0 0 0Zm-1.1 -4.4q0 .1 -.1 .1q-.1 0 -.2 -.1q0 -.1 .1 -.2c.1 .1 .2 .2 .2 .2Zm2 3.7c.1 0 .1 .1 0 0c.1 .1 .1 .2 0 .2q-.1 0 -.1 -.1l.1 -.1q-.1 0 0 0ZM311 598.8q0 -.1 0 0Zm1.8 4.5c0 0 .1 .1 .1 .1v.1c0 .1 -.1 .1 -.1 .1q-.1 0 -.1 0c-.1 -.1 -.1 -.3 0 -.4l.1 .1Zm-.2 -1.3q-.1 0 0 0c-.1 .1 -.2 .1 -.2 0c0 0 0 -.1 0 -.1c.1 -.1 .1 0 .2 .1Zm.9 2.4c0 .1 0 .2 0 .2c-.1 .1 -.2 .1 -.3 0c-.1 0 -.1 -.1 -.1 -.2q0 -.1 .1 -.1h.1c0 0 .1 0 .1 0q.1 0 .1 .1Zm-1 -3.9q0 .1 -.1 .2q-.1 0 -.2 -.1q0 -.1 .1 -.2c.1 0 .2 0 .2 .1ZM313.5 601.1c0 0 0 .1 0 .1c-.1 0 -.1 .1 -.2 .1c-.1 0 -.2 0 -.3 .1q-.1 0 -.2 -.1c0 -.1 0 -.2 .1 -.2c.2 -.1 .3 -.1 .6 0c-.1 -.1 0 -.1 0 0Zm.1 -.6c0 0 0 .1 0 .1c0 0 -.1 0 -.1 0c0 0 0 -.1 0 -.1c0 0 .1 0 .1 0Zm-.9 -3.5q0 .1 0 .1c0 0 -.1 0 -.1 0q0 -.1 .1 -.1c0 -.1 0 0 0 0Zm.3 .5c0 0 0 .1 0 .1q-.1 0 -.2 0c0 0 0 -.1 0 -.1c.1 -.1 .2 -.1 .2 0Zm1.6 2.7c0 0 0 .1 0 .1c0 0 0 .1 0 .1c0 0 0 .1 -.1 .1q-.2 0 -.4 -.1c-.1 0 -.1 -.1 -.1 -.1c-.1 -.1 0 -.1 0 -.1c.3 -.2 .5 -.2 .6 0Zm-.9 -3.4c0 0 0 .1 0 0c0 .1 0 .2 -.2 .2c0 0 -.1 -.1 -.1 -.1c0 0 0 -.1 0 -.1c0 -.1 .1 -.2 .1 -.2c.1 .1 .2 .1 .2 .2Zm1.4 2.4c.1 .1 0 .2 0 .2H315c-.1 0 -.2 0 -.2 -.1v-.1c0 -.1 0 -.2 .1 -.2c.1 0 .1 .1 .2 .2c0 -.1 0 0 0 0Zm.3 -.7c0 0 0 .1 0 0c-.1 .1 -.2 .1 -.2 .1c0 0 0 -.1 0 -.1c.1 -.1 .2 -.1 .2 0Zm-.1 -2q.1 0 0 0q.1 0 0 0q.1 .1 0 0c0 .1 0 0 0 0Zm-80 15.1c0 0 .5 .1 1.3 .1q0 -.1 .1 -.1q.1 0 .2 .1c1.8 0 4.9 -.3 7.8 -1.9c0 -.1 .1 -.1 .1 -.1c1.5 -.9 3 -2.2 4.2 -3.8c0 0 0 -.1 0 -.1h.1c.2 -.4 .5 -.7 .7 -1.2c0 0 -.1 0 -.1 0c-.1 0 -.1 -.1 -.1 -.2c0 -.1 .1 -.1 .2 -.1c0 0 .1 0 .1 0c0 0 0 .1 0 .1c.6 -1.1 1.1 -2.4 1.6 -3.9c0 0 -1.6 -.2 -3.8 .1c0 .1 -.1 .1 -.1 .1c0 0 -.1 0 -.1 -.1v-.1c-.4 .1 -.7 .1 -1 .2c0 .1 -.1 .1 -.1 .1c0 0 -.1 0 -.1 0c-.3 .1 -.7 .2 -1.1 .2c0 0 .1 .1 .1 .1c0 .1 -.1 .2 -.1 .1c-.1 0 -.2 -.1 -.2 -.2c-.2 .1 -.4 .1 -.6 .2c0 .1 -.1 .2 -.2 .2c0 0 -.1 0 -.1 0v-.1c-3.7 1.7 -7.2 4.5 -8.8 10.3ZM251 601c.1 0 .2 0 .2 0c0 0 0 .1 -.1 .1q-.1 0 -.1 -.1Zm-.7 -.2q0 .1 0 0c0 .1 0 0 0 0Zm-.5 2.1q0 .1 -.1 .1c0 0 -.1 0 -.1 -.1c.1 0 .1 -.1 .2 0q0 -.1 0 0Zm.2 .2c0 .1 0 .2 0 .3q-.1 -.2 0 -.3Zm-.4 .8c0 -.1 0 -.2 .1 -.2q.1 0 .2 0q.1 .1 .1 .2c0 .1 -.1 .1 -.2 .1c-.1 .1 -.2 0 -.2 -.1Zm-.1 -1.5q0 -.1 0 0q.1 -.1 .1 0c0 -.1 0 0 -.1 0Zm0 -1.1q.1 0 .2 .1c0 0 0 .1 0 .2c0 .1 -.1 .1 -.1 .1q-.1 0 -.2 -.1c-.1 -.2 0 -.3 .1 -.3Zm-.4 1.7q0 -.1 0 0c0 -.1 .1 -.1 0 0c.1 -.1 .1 0 0 0Zm-1.4 -1.6q-.1 0 0 0q-.1 -.1 0 0c0 -.1 0 0 0 0Zm.9 -.3c0 0 -.1 0 0 0q-.1 0 -.1 0c0 0 0 -.1 .1 0c-.1 -.1 0 0 0 0Zm.1 .7c0 .1 -.1 .2 -.2 .2c0 0 0 -.1 0 -.1q0 -.1 0 -.1c.1 0 .2 0 .2 0Zm.2 1c-.1 0 -.2 -.1 -.2 -.2h.1c.1 0 .2 0 .2 0c0 .2 -.1 .2 -.1 .2Zm0 1q-.1 0 0 0q-.1 0 0 0q-.1 0 0 0q-.1 0 0 0Zm-.4 1.5c0 -.1 .1 -.2 .2 -.2q.1 0 .1 .1c0 .1 0 .2 -.1 .4q-.1 -.1 -.2 -.2c0 0 0 -.1 0 -.1Zm0 -.2q0 -.1 0 0Zm-.1 -4c-.1 .1 -.2 .2 -.3 .1c-.1 0 -.1 -.1 -.2 -.2h.1q.1 0 .2 0c.1 0 .2 0 .2 0c0 0 0 .1 0 .1Zm-.2 4.8q0 .1 0 .1q0 -.1 0 -.1Zm-.2 .8c0 -.1 -.1 -.2 -.1 -.2c0 -.1 0 -.2 .1 -.2c.1 0 .2 0 .2 .1c0 0 0 .1 0 .1c0 .1 0 .2 -.1 .2c-.1 .1 -.1 .2 -.3 .2c.1 -.1 .2 -.2 .2 -.2Zm-.5 -3.9q.1 0 0 0q.2 0 .3 .1c.2 .1 .2 .3 .1 .5c0 0 -.1 0 -.2 0c0 0 0 -.1 0 -.1c0 0 0 -.1 0 -.1c0 -.1 0 -.2 -.1 -.3c0 0 -.1 0 -.1 -.1Zm-2.4 0c-.1 0 -.2 0 -.1 -.1c.1 -.1 .1 0 .1 .1Zm.5 -.4c-.1 .1 -.2 0 -.2 0c0 0 0 -.1 .1 -.1c0 0 .1 0 .1 .1Zm.3 -1c0 0 0 .1 -.1 .1c0 0 -.1 0 -.1 -.1q0 -.1 .1 -.1q0 .1 .1 .1Zm0 5c0 .1 -.1 .1 0 0c-.2 .1 -.2 0 -.2 -.1c0 0 .1 -.1 .1 -.1c0 .1 .1 .2 .1 .2Zm.4 -4.6c0 0 -.1 0 0 0c-.1 .1 -.1 0 -.1 0h.1q-.1 0 0 0ZM247.2 604.3c0 -.1 .1 -.1 0 0q.1 -.1 .1 0q.1 0 -.1 0q.1 0 0 0Zm-.4 -2.5q0 -.1 .1 -.1q.1 0 .1 .1l-.1 .1q-.1 -.1 -.1 -.1Zm-.7 6.2q0 -.1 .1 -.1q.1 0 .1 .1q0 .1 -.1 .1c0 0 -.1 -.1 -.1 -.1Zm-.1 -4.1v-.1c0 0 0 -.1 0 -.1c0 0 .1 .1 0 .2c.1 -.1 0 0 0 0Zm-.2 3.6c0 0 0 -.1 0 0q0 -.1 0 -.2q.1 0 .2 0c0 0 0 .1 0 .1c0 .1 -.1 .1 -.2 .1Zm-.2 1.5q0 -.1 .1 -.1c0 0 .1 0 .1 .1c0 0 0 .1 -.2 0c.1 .1 0 0 0 0Zm0 -.4c0 -.1 .1 -.1 .1 -.1q.1 0 .1 .1c0 0 0 .1 0 .2c0 .1 -.1 0 -.1 0c-.1 -.1 -.1 -.2 -.1 -.2Zm-.2 -5.2c.1 -.1 .2 -.1 .3 -.1c0 0 0 .1 0 .1c0 0 -.1 0 -.1 0c-.1 0 -.2 0 -.2 0ZM245.3 604.4c0 .1 -.1 .1 -.1 0q0 -.1 0 -.2c0 0 0 -.1 0 -.1c0 0 .1 .1 .1 .1q0 .1 0 .2Zm-.3 2.1c0 -.1 .1 -.2 .2 -.2v.1q0 .1 0 .1c0 .1 -.1 .1 -.2 0c0 .1 0 0 0 0Zm0 -.3q0 -.1 0 0q0 -.1 0 0c0 -.1 0 0 0 0ZM242.7 602.9c0 .1 -.1 .1 -.1 .2c0 0 -.1 0 -.1 0c0 -.2 .1 -.3 .2 -.2c0 -.1 0 0 0 0Zm-.2 1.8c0 0 0 .1 -.1 .1c0 0 -.1 0 -.2 0c0 0 -.1 -.1 -.1 -.1c0 0 0 -.1 .1 -.1c.1 0 .2 0 .3 .1c0 -.1 0 0 0 0Zm-.1 -.5c-.1 0 -.2 0 -.2 0c-.2 -.1 -.2 -.2 -.2 -.3c0 -.2 .1 -.3 .2 -.3q.1 0 .2 .1c0 .1 .1 .2 .1 .3c0 .1 -.1 .1 -.1 .2ZM243 602.9c.1 0 .1 .1 0 0c.1 .1 0 .2 0 .2c0 0 -.1 0 -.1 -.1c0 0 .1 -.1 .1 -.1Zm.5 -.5q0 .1 -.1 .1c0 0 -.1 0 -.1 -.1c.1 0 .1 -.1 .2 0c0 -.1 0 0 0 0Zm.9 .7c0 .1 -.1 .1 0 0c-.1 .1 -.1 0 -.1 0c-.1 0 0 0 .1 0c-.1 0 0 0 0 0Zm.4 1.6q0 .1 0 0c0 0 .1 0 0 0Zm-.2 1.1q0 -.1 0 0q.1 0 .1 0c.1 0 .1 .1 .2 .1c0 0 0 .1 0 .1c-.1 .1 -.1 0 -.2 0c0 0 -.1 -.1 -.1 -.1q-.1 -.1 0 -.1Zm-.1 -1.5c0 -.1 .1 -.1 .2 -.1c.1 0 .1 .1 .1 .1c0 .1 -.1 .1 -.1 .1c-.1 0 -.2 -.1 -.2 -.1Zm-.2 -.6c-.1 -.1 -.2 -.2 -.2 -.3c.1 -.1 .3 -.1 .3 0c0 .1 0 .2 -.1 .3Zm-.3 3.4c0 -.1 .1 -.1 .1 -.1c.1 0 .1 .1 .1 .1c0 .1 -.1 .1 -.1 .1c0 0 -.1 -.1 -.1 -.1Zm0 -1.7q0 -.1 0 0q0 -.1 0 0c0 -.1 0 0 0 0Zm0 -2.7c-.1 -.1 -.2 -.1 -.3 -.1c-.1 0 -.1 -.1 0 -.2q.1 -.1 .3 -.1c0 .2 0 .3 0 .4c.1 -.1 .1 0 0 0Zm-.4 6.6q0 -.1 0 -.1q.1 0 .1 .1c0 .1 -.1 .2 -.1 .2q0 -.1 0 -.2Zm.1 -2q-.1 0 -.1 -.1c0 0 0 -.1 .1 -.1q0 .1 0 .2Zm-.1 -.5q0 -.1 0 -.1c0 0 .1 0 .1 0q.1 0 .2 0q0 .1 -.1 .2c-.1 0 -.1 .1 -.2 .1q0 -.1 0 -.2Zm-.1 1.9c.1 0 0 .1 0 0c-.1 .1 -.1 0 -.1 0c.1 0 .1 -.1 .1 0c0 -.1 0 0 0 0Zm-.1 .7q.1 0 .2 .1q-.2 0 -.2 -.1Zm-.3 -4.2q0 -.1 .1 -.1c0 0 .1 0 .1 0q.1 0 0 .1c0 0 -.1 .1 -.1 .1l-.1 -.1c0 .1 0 0 0 0Zm0 -3.1q0 -.1 0 0q.1 0 .2 0c-.1 0 -.1 .1 -.2 0c0 .1 0 0 0 0Zm0 1.7c0 0 0 .1 0 0c-.1 .1 -.1 0 -.1 0c0 0 0 -.1 .1 0c0 -.1 0 0 0 0Zm-.3 6.1c.1 -.1 .1 -.2 .1 -.2c0 0 .1 -.1 .1 -.1c0 0 .1 0 .1 .1c0 0 0 .1 0 .1c0 0 0 .1 0 .1c0 0 -.1 0 -.1 0c-.1 0 -.2 0 -.2 0Zm0 -4.1q-.1 0 -.1 0c-.1 -.1 0 -.2 0 -.2q.1 0 .1 .1c0 0 0 .1 0 .1Zm-.3 4.6q0 -.1 .1 -.1q.1 0 .2 0v.1c0 .1 -.2 .1 -.3 0c.1 .1 .1 0 0 0ZM242.4 605.9c-.1 0 -.2 0 -.3 -.1c-.1 0 -.1 -.1 0 -.2q.1 -.1 .2 -.1c.1 0 .2 .1 .2 .3q0 .1 -.1 .1Zm-.4 4c.1 0 .2 0 .1 0q0 .1 -.1 0q0 .1 0 0Zm-.1 -2.1c0 -.1 .1 -.1 .1 -.1c0 0 0 .1 0 .1c0 0 0 .1 0 .1q-.1 0 -.1 -.1Zm-.2 -3.2c0 -.1 .1 -.1 .1 -.1c.1 0 .2 .1 .1 .2c0 .1 -.1 .1 -.1 .1c0 0 -.1 -.1 -.1 -.2Zm0 -1.4c0 -.1 .2 -.2 .3 -.1c0 .1 .2 .1 .4 .1h.1c0 0 .1 0 .1 .1c0 0 0 .1 0 .1c-.1 0 -.2 0 -.4 0q-.2 0 -.2 .1c0 0 -.1 0 -.2 0c-.1 -.1 -.1 -.2 -.1 -.3Zm0 1c0 .1 -.1 .1 -.1 .1c0 0 -.1 0 -.1 -.1c0 -.1 .1 -.1 .1 -.1c.1 0 .1 .1 .1 .1Zm-.4 4.5q0 -.1 .1 -.1q.1 0 .1 .1c0 .1 -.1 .1 -.1 .1c0 0 -.1 -.1 -.1 -.1Zm-.6 -4.2c0 0 -.1 -.1 0 0q-.1 -.1 -.1 -.1q0 -.1 .1 -.1c.1 0 .1 .1 .1 .1l-.1 .1c.1 0 0 0 0 0Zm-.3 5.8q.1 0 0 0q.1 0 0 0c.1 0 0 0 0 0Zm-.1 -4.8c0 0 0 -.1 0 -.1q0 -.1 .1 -.2c0 -.1 .1 -.1 .2 -.1q.1 0 .1 .1c.1 .2 0 .4 -.2 .4c-.1 0 -.2 0 -.2 -.1Zm-.1 1.3c0 0 0 -.1 0 0c.1 -.1 .1 0 .1 .1c0 0 0 .1 0 .1q-.1 -.1 -.1 -.2Zm-.2 -2.6c0 -.1 .1 -.2 .1 -.2c.1 0 .2 0 .2 .1q.1 .1 .1 .2c0 0 -.1 0 -.1 0c0 0 -.1 0 -.1 0q-.1 0 -.2 -.1Zm-.3 4.1q0 -.1 .1 -.1c.1 0 .1 .1 .1 .1c0 0 -.1 0 -.1 0q-.1 0 -.1 0Zm-.5 .5c0 0 .1 0 0 0q.1 0 0 0q.1 0 0 0c.1 .1 0 0 0 0Zm-.2 -1.4q0 -.1 0 0c.1 -.1 .2 -.1 .3 -.1c.1 0 .2 0 .2 0c.1 0 .1 .1 .1 .1c0 .1 -.1 .1 -.1 .1c-.1 0 -.2 0 -.4 0c-.1 0 -.1 -.1 -.1 -.1Zm-.3 .4q0 -.1 0 0q0 -.1 0 0c0 0 0 .1 0 0Zm-.4 3.6q0 -.1 .1 -.1c0 0 .1 0 .1 .1q0 .1 -.2 0c.1 .1 0 .1 0 0Zm-.1 -.5c0 0 0 -.1 0 0q.2 -.1 .2 0c0 0 0 .1 -.1 .1c0 0 -.1 0 -.1 -.1Zm-.6 -3.1c0 0 0 -.1 0 -.1c0 0 0 -.1 0 -.1c0 0 .1 -.1 .1 -.1c.1 .1 .2 .1 .3 .2c0 0 .1 .1 .1 .2c0 .1 0 .2 -.1 .2c-.1 .1 -.4 -.1 -.4 -.3Zm-.3 3.5c0 -.2 .1 -.3 .3 -.3c.1 0 .2 .1 .1 .3c0 0 0 .1 0 .1c0 .1 -.1 .2 -.2 .1c-.2 0 -.2 -.1 -.2 -.2Zm-.5 -2.7c0 -.1 0 -.2 .1 -.2c0 -.1 .1 -.1 .2 0c0 0 .1 .1 .1 .2v.1c0 .1 -.1 .2 -.1 .2q-.2 -.1 -.3 -.3Zm-.5 .5c0 0 .1 0 .1 0c0 0 0 .1 0 .1q-.1 0 -.1 -.1Zm-.6 1.9q-.1 0 0 0q-.1 0 0 0c-.1 -.1 0 -.1 0 0Zm34 -59.9c0 0 -.1 .4 -.3 1.2c.1 0 .1 .1 .1 .1c0 .1 -.1 .1 -.1 .1c-.4 1.8 -.6 4.9 .4 8.1c.1 0 .1 .1 .1 .1c.5 1.7 1.5 3.3 2.9 4.9c0 0 .1 0 .1 0v.1c.3 .4 .7 .6 1 .9c0 0 0 -.1 0 -.1c0 -.1 .1 -.1 .2 -.1c.1 0 .1 .1 .1 .2c0 0 0 .1 -.1 .1c0 0 -.1 0 -.1 0c1 .8 2.1 1.6 3.6 2.3c0 0 .5 -1.5 .6 -3.8c-.1 0 -.1 -.1 -.1 -.2c0 0 .1 -.1 .1 -.1h.1c0 -.4 0 -.7 0 -1.1c0 0 -.1 -.1 -.1 -.2h.1c0 -.4 0 -.8 -.1 -1.2c0 0 -.1 0 -.1 0c-.1 0 -.1 -.1 -.1 -.2c0 -.1 .1 -.1 .2 -.1c0 -.1 -.1 -.4 -.1 -.6c-.1 0 -.2 -.1 -.2 -.2c0 0 0 -.1 .1 -.1h.1c-.8 -3.3 -2.8 -7.4 -8.4 -10.1Zm7.4 17.4c0 0 0 .1 0 0c.1 .1 0 .2 0 .2c0 0 -.1 -.1 -.1 -.1c-.1 -.1 0 -.1 .1 -.1ZM275.5 567c-.1 0 -.1 -.1 -.1 -.1h.1q.1 0 0 .1q.1 0 0 0Zm-.2 .1c0 0 -.1 0 -.2 -.1c.1 0 .2 0 .2 .1Zm-.8 -.4c.1 0 .2 .1 .2 .1q0 .1 0 .1c-.1 0 -.2 0 -.2 0c0 0 0 -.1 0 -.2Zm1.6 .2q.1 0 0 0Zm1 .1q0 .1 -.1 .2c0 0 -.1 0 -.1 0c-.1 0 -.1 -.1 -.1 -.1q0 -.1 .1 -.2c.1 0 .3 0 .2 .1ZM277.5 565.2c0 0 -.1 0 0 0Zm0 .9q.1 0 0 0c.1 0 .1 .1 0 0Zm-.7 0c-.1 0 -.2 0 -.1 -.1c0 -.1 .1 -.1 .2 -.1c0 0 .1 .1 .1 .2c-.1 0 -.1 .1 -.2 0Zm-1 0c0 0 .1 0 .2 0q.1 0 .1 0c0 .1 -.1 .1 -.2 .1c-.1 0 -.2 -.1 -.1 -.1Zm-1 -.1q0 -.1 0 0q0 -.1 0 0q0 -.1 0 0c.1 -.1 0 -.1 0 0Zm-1.4 -.7c.1 0 .1 .1 .1 .2c0 .1 -.1 .1 -.1 .1c-.1 0 -.2 -.1 -.3 -.2q.1 -.1 .2 -.1c0 0 .1 0 .1 0ZM277.5 566c-.1 -.1 -.1 -.2 -.1 -.4c0 -.1 .1 -.1 .2 -.1q.1 0 .1 .1q0 .1 0 .2c0 .1 0 .2 -.1 .2c.1 0 0 0 -.1 0Zm-4.7 -1.2c0 0 0 .1 0 0c0 .1 0 0 0 0Zm-.7 -.3c.1 0 .2 -.1 .2 -.1c.1 0 .2 .1 .2 .2c0 .1 0 .2 -.1 .2c0 0 -.1 0 -.1 0c-.1 0 -.2 -.1 -.3 -.2c0 -.1 -.1 -.2 -.1 -.2c.1 0 .1 .1 .2 .1Zm4 .3c0 0 0 .1 0 .1c0 .1 -.1 .2 -.1 .2c-.1 .2 -.4 .1 -.5 0q0 -.1 0 -.2c0 -.1 .1 -.1 .2 -.1c0 0 .1 0 .1 0c.1 0 .2 0 .3 0q-.1 0 0 0Zm.5 -2.4c0 0 -.1 0 0 0c0 -.1 .1 -.2 .1 -.1v.1c0 0 -.1 .1 -.1 0Zm.3 .6c0 0 0 -.1 0 0c-.1 -.1 0 -.2 0 -.2v.1c.1 .1 0 .1 0 .1Zm.8 .4c0 0 0 -.1 0 -.1c0 0 0 -.1 0 -.1q.1 .1 0 .2c.1 0 0 0 0 0Zm-4.9 -1c0 0 0 -.1 0 -.1q0 -.1 .1 -.1c0 0 .1 .1 .1 .1c0 .1 -.1 .2 -.2 .1Zm4.5 1.3c0 0 -.1 0 0 0q0 -.1 0 -.1q0 .1 0 .1ZM274.7 564.3q.1 0 0 0q.1 .1 0 .1v-.1Zm2.5 0c.1 0 .1 .1 .1 .1c0 .1 -.1 .1 -.1 .1c-.1 0 -.1 -.1 -.1 -.1c0 0 .1 -.1 .1 -.1Zm-6 -1.8c.1 0 .1 .1 .1 .1q0 .1 -.1 .1c0 0 0 -.1 0 -.1q0 -.1 0 -.1Zm4.1 .6c0 0 .1 -.1 .1 -.1q0 .1 0 .1q0 .1 -.1 0q0 .1 0 0Zm-3.4 -.9q.1 0 .1 0q0 .1 -.1 .2c0 0 -.1 0 -.1 0c0 -.1 0 -.2 .1 -.2Zm-1.5 -.5c0 0 0 .1 0 .1c0 0 0 .1 0 .1c0 0 -.1 0 0 -.2c0 .1 0 0 0 0Zm.3 .1c.1 0 .1 .1 .1 .2h-.1c0 0 -.1 0 -.1 0v-.1q.1 -.1 .1 -.1Zm5.3 .9q.1 .1 0 .2c0 0 -.1 0 -.1 0c0 0 -.1 -.1 0 -.1q0 -.1 .1 -.1ZM274.9 562.3c0 0 -.1 -.1 0 -.2c.1 0 .2 0 .3 .1c0 0 .1 .1 .1 .1c0 0 -.1 .1 -.1 .1c-.1 0 -.2 0 -.3 -.1Zm-1.9 -.7c.1 0 .1 .1 .1 .3q0 .1 -.1 .1q-.1 0 -.1 -.1c0 -.1 0 -.2 0 -.3h.1Zm.3 0q0 .1 0 0q0 .1 0 0ZM277.1 558.9q0 -.1 0 0c0 -.1 .1 -.1 0 0q.1 0 0 0Zm-.2 1.1c0 0 -.1 -.1 -.1 -.1l.1 -.1c0 0 0 .1 0 .2Zm-1.7 -.4c0 0 -.1 -.1 0 0c-.1 -.1 -.1 -.2 -.1 -.2c0 0 .1 0 .1 -.1c0 0 .1 .1 .1 .1l-.1 .2c.1 -.1 .1 0 0 0Zm.6 -.1c0 -.1 0 -.2 .1 -.2c.1 -.1 .2 -.1 .2 -.1c.1 0 .1 .1 .2 .3q0 .1 -.1 .1q-.1 0 -.2 0c-.1 0 -.2 0 -.2 -.1ZM273.8 559.6c0 0 0 .1 0 0c0 .1 -.1 0 0 0c-.1 0 0 0 0 0ZM276.9 560.4c0 0 -.1 0 0 0q-.2 0 -.2 0c0 0 0 -.1 .1 -.1c0 0 .1 .1 .1 .1Zm.4 .5q-.1 0 0 0c-.1 -.1 0 -.2 0 -.2q.1 0 .1 .1c0 .1 -.1 .1 -.1 .1Zm-1 .7c-.1 -.1 0 -.1 0 -.1c.1 0 .2 0 0 .1q.1 0 0 0ZM273.7 561.3c.1 0 .1 .1 0 0q0 .1 0 .1q0 .1 -.1 .1c0 0 -.1 0 -.1 0q0 -.1 0 -.2c0 0 .1 -.1 .1 -.1c.1 0 .1 .1 .1 .1Zm1.6 .3c0 0 0 .1 0 .2q0 .1 -.1 .1c-.1 0 -.1 -.1 -.1 -.2c-.1 -.1 .1 -.2 .2 -.1Zm.5 -.2c.1 -.1 .2 -.1 .3 -.1c.1 .1 0 .3 0 .4c-.1 -.1 -.2 -.2 -.3 -.3Zm-3.2 -.9c.1 0 .1 .1 .1 .1c0 .1 -.1 .1 -.1 .1c-.1 0 -.1 -.1 -.1 -.2c0 .1 0 0 .1 0ZM276.9 561.3c0 -.1 .1 -.1 .2 -.1c0 -.1 .2 0 .2 0c0 0 0 .1 0 .2c-.1 0 -.3 0 -.4 .1c0 0 0 -.1 0 -.2c-.1 .1 -.1 0 0 0Zm-6.5 -1.7c.1 0 .1 .1 .1 .1c0 .1 -.1 .1 -.1 .1c0 0 0 -.1 0 -.1c0 0 0 -.1 0 -.1Zm2 .6q0 -.1 .1 -.1c0 0 .1 0 .1 .1c0 .1 -.1 .1 -.2 0c0 .1 0 0 0 0Zm.5 0q.1 .1 .2 .2c0 .1 -.1 .1 -.1 .1q-.1 0 -.1 -.1c0 0 0 -.1 -.1 -.1q0 -.1 .1 -.1c-.1 0 0 0 0 0Zm-1.8 -.5c0 0 0 -.1 0 0q0 -.1 0 -.1q.1 0 0 .1c.1 0 0 0 0 0Zm-.7 -.2q0 .1 -.1 .1c0 -.1 .1 -.2 .1 -.1Zm4.1 .5c.1 0 .2 .1 .1 .2c0 0 0 .1 0 .1q-.1 0 -.1 0c0 0 0 -.1 0 -.1q0 -.1 0 -.2Zm3.2 .6c0 0 0 .1 0 0q0 .1 -.1 .2q0 -.1 0 -.1q0 -.1 .1 -.1Zm-1.7 -.3c0 0 -.1 0 0 0q0 -.1 0 -.1c0 0 .1 .1 0 .1c.1 0 0 0 0 0Zm-5.9 -1.5c.1 0 .1 .1 .2 .1c0 0 .1 .1 .1 .1c0 0 -.1 .1 -.1 .1c0 0 -.1 0 -.1 0c0 0 -.1 0 -.1 0c-.1 0 -.1 -.1 -.1 -.2c-.1 -.1 0 -.1 .1 -.1Zm4 .8q0 -.1 0 -.1c.1 -.1 .2 0 .2 .1h-.1c0 0 -.1 0 -.1 0Zm-4.5 -1.2c0 0 0 .1 0 0c0 .2 0 .3 0 .3c-.1 -.1 -.1 -.2 0 -.3Zm2.9 .5q0 .1 0 0c0 .1 -.1 .1 0 0q-.1 0 0 0Zm1.5 .2c.1 -.1 .2 -.2 .2 -.3q.1 0 .2 0c.1 .1 .1 .2 0 .3c-.1 .1 -.2 .2 -.3 .2c0 0 -.1 -.1 -.1 -.2ZM270.1 558c0 0 .1 0 0 0c0 .1 0 .2 -.1 .1V558c0 0 .1 0 .1 0Zm2.2 .2c.1 0 .1 .1 .1 .1c0 .1 -.1 .1 -.2 .1c0 0 -.1 -.1 -.1 -.1c0 0 .1 -.1 .2 -.1Zm3.1 .6q.1 0 .1 .1c0 .1 -.1 .1 -.2 .1c0 0 0 -.1 0 -.2h.1Zm1.5 .2c0 .1 0 .2 0 .3c-.1 .1 -.1 .3 -.1 .3v.1c0 0 -.1 0 -.1 0c0 0 -.1 0 -.1 -.1c-.1 0 0 -.1 .1 -.3c-.1 -.1 -.1 -.2 -.2 -.2c0 0 0 -.1 0 -.1c.1 -.1 .3 -.1 .4 0Zm-1 -.2q-.1 0 -.1 0c0 0 .1 -.1 .1 -.1c.1 0 .1 .1 .1 .1c0 0 -.1 0 -.1 0Zm-4.4 -1.2c.1 0 .1 .1 .1 .1c0 .1 -.1 .1 -.1 .1c-.1 0 -.1 -.1 -.1 -.1c0 0 0 -.1 .1 -.1Zm4.2 .2q.1 0 0 0q.1 0 .1 0c.1 0 .1 .1 .1 .1c0 0 -.1 0 -.1 0l-.1 -.1c.1 .1 0 0 0 0ZM274.8 557.2c0 0 .1 0 .1 0c.1 0 .2 0 .2 .1c.1 0 .1 .1 .1 .2q0 .1 -.1 .1c-.2 0 -.4 -.1 -.4 -.3c0 -.1 .1 -.1 .1 -.1Zm-1.2 -.4c0 0 .1 .1 0 0c0 .1 0 .2 -.1 .2c0 0 -.1 0 0 -.1q0 -.1 .1 -.1Zm2.6 .4c.1 0 .2 .1 .2 .2c0 .1 0 .2 -.1 .3q-.1 0 -.2 0c0 0 0 -.1 0 -.2c0 0 0 -.1 0 -.1c0 0 0 -.1 0 -.1c0 -.1 0 -.2 .1 -.1Zm-3.9 -1.1c.1 0 .1 .1 .1 .1c0 .1 -.1 .1 -.1 .1c-.1 0 -.1 -.1 -.1 -.1q0 -.1 .1 -.1ZM273.3 555.5c.1 0 .1 .1 0 0q.1 .2 .1 .3c0 .1 0 .2 -.1 .2c0 .1 -.1 .1 -.2 .1c-.1 0 -.1 -.1 -.1 -.2c0 -.2 .1 -.3 .2 -.4c0 0 .1 0 .1 0Zm-.4 -.4q0 .1 0 0q.1 .1 0 .1c-.1 .1 -.1 0 0 -.1q-.1 .1 0 0Zm-3.4 -1c.1 0 .1 .1 .1 .1c0 0 -.1 .1 -.1 .1c-.1 0 -.1 -.1 -.1 -.1q0 -.1 .1 -.1Zm.4 -.1c.1 0 .1 .1 0 0c.1 .2 0 .2 0 .2c-.1 0 -.1 -.1 -.1 -.1c0 0 0 -.1 .1 -.1Zm3.2 .1c0 0 .1 0 .1 0c0 0 .1 0 .1 0c0 0 0 .1 0 .1c0 .1 -.1 .3 -.2 .4c0 0 -.1 .1 -.2 .1q-.1 0 -.1 -.1c0 -.3 .1 -.6 .3 -.5Zm-3.4 -1c0 0 .1 0 0 0c.2 .1 .2 .2 .2 .3c0 .1 -.2 .1 -.3 .1q-.1 -.1 -.1 -.3q.1 -.1 .2 -.1Zm2.8 0c.1 0 .2 0 .2 .1q0 .1 0 .2q-.1 .1 -.3 .1h-.1q0 -.1 0 -.2c0 -.1 0 -.2 .1 -.2c0 0 .1 0 .1 0Zm-.5 -.6c0 0 .1 0 0 0c.1 .1 0 .2 0 .2c0 0 -.1 0 -.1 -.1c0 0 .1 -.1 .1 -.1Zm-1.6 -.9q0 -.1 0 0q0 -.1 0 0c0 -.1 0 0 0 0Zm52.8 30.5c0 0 0 -.6 -.1 -1.4q-.1 0 -.2 0q0 -.1 .1 -.2c-.3 -1.8 -1.1 -4.8 -3.2 -7.4q-.1 0 -.1 -.1c-1.1 -1.3 -2.6 -2.6 -4.5 -3.6h-.1c-.3 -.1 -.8 -.3 -1.2 -.5c0 0 0 .1 0 .1c0 .1 -.1 .1 -.1 .1c-.1 0 -.2 -.1 -.2 -.2c0 0 0 -.1 .1 -.1c0 0 .1 0 .1 0c-1.2 -.4 -2.6 -.8 -4.1 -.9c0 0 .1 1.6 .7 3.9q.1 0 .1 0c0 0 0 .1 -.1 .1h-.1c.1 .4 .2 .7 .4 1c.1 0 .1 .1 .1 .1c0 0 0 .1 0 .1c.2 .3 .2 .7 .4 1.1c0 0 .1 -.1 .1 -.1c.1 0 .2 .1 .2 .1c0 .1 0 .2 -.1 .2c.1 .2 .2 .4 .3 .6c.1 0 .2 0 .2 .1c0 0 0 .1 0 .1c2 3.1 5.3 6.3 11.3 6.9ZM310.3 568.3c0 0 -.1 0 -.1 -.1c0 0 0 -.1 .1 -.1c0 0 .1 0 .1 .1l-.1 .1Zm-.1 .7c0 0 0 -.1 0 0q0 -.1 0 0q0 -.1 0 0c0 -.1 0 0 0 0Zm2.1 .1q.1 0 .1 .1c0 0 0 .1 0 .1q-.1 0 -.1 -.2q0 .1 0 0Zm.2 -.2c.1 0 .2 0 .2 0c0 .1 -.1 .1 -.2 0Zm.9 .3c-.1 0 -.2 0 -.2 -.1c0 0 0 -.1 0 -.2c0 -.1 .1 -.1 .2 -.1c.1 0 .1 .1 .1 .1q0 .2 -.1 .3Zm-1.5 .3c0 0 -.1 0 0 0c-.1 0 -.1 -.1 -.1 -.1c0 0 .1 0 .1 0c0 0 0 .1 0 .1Zm-1.1 .2q0 -.1 0 -.2c0 0 .1 0 .2 0v.1q0 .1 0 .2c0 0 -.2 0 -.2 -.1Zm1.7 .1c0 .1 0 0 0 0Zm-1.4 1.7c0 0 .1 .1 0 0c.1 .1 0 .1 0 0q0 .1 0 0c0 .1 0 0 0 0Zm-.3 -.9c.1 .1 0 .1 0 .1c0 0 -.1 0 0 -.1c-.1 .1 0 0 0 0Zm.7 -.3c.1 0 .2 0 .2 .1c0 .1 0 .2 -.1 .2c-.1 0 -.2 0 -.2 -.1c-.1 -.1 0 -.2 .1 -.2Zm1 -.2c0 0 0 .1 -.1 .1q-.1 0 -.1 -.1c0 0 0 -.1 .1 -.1l.1 .1ZM314.9 570c-.1 0 -.2 -.1 -.2 -.2q0 -.1 .1 -.1c.1 0 .2 0 .3 0c0 .1 0 .2 0 .3q-.1 0 -.2 0Zm-.3 .1c-.1 0 0 0 0 0q.1 0 0 0q.1 0 0 0Zm-3.7 .8c.1 0 .1 .1 .1 .2c0 .1 0 .2 0 .2c0 0 -.1 0 -.1 0q0 -.1 0 -.2c0 -.1 0 -.2 0 -.2c-.2 0 -.1 -.1 0 0Zm4.7 -.7q.1 0 .1 0c0 0 -.1 .1 -.1 0c0 .1 0 0 0 0Zm.7 .1q-.1 .1 -.2 .1c-.1 0 -.2 0 -.2 -.1c0 -.1 0 -.2 0 -.2c0 0 .1 0 .1 0c.1 0 .2 0 .3 0c.1 0 .2 0 .3 .1c-.1 .2 -.1 .1 -.3 .1Zm-3.6 1.1c0 0 -.1 -.1 -.1 -.1c.1 -.1 .1 -.2 .1 -.3c0 -.1 .2 -.2 .4 -.1c.1 0 .1 .1 .1 .2q0 .1 -.1 .1c0 0 -.1 0 -.1 0c-.2 0 -.3 .1 -.3 .2Zm.3 2.4c0 .1 0 .2 -.1 .2h-.1c0 -.1 .1 -.2 .2 -.2Zm-.5 -.4c0 0 .1 0 .1 0h-.1c0 0 -.1 0 -.1 0h.1Zm-1 -.1c0 0 .1 0 .1 .1h-.1q-.1 0 -.1 0c0 0 .1 -.1 .1 -.1Zm4.9 -.8c.1 0 .1 .1 0 0c.1 .1 0 .1 0 .1c0 0 -.1 0 -.1 0c0 0 .1 -.1 .1 -.1Zm-4.6 .3q.1 0 0 0c.1 .1 0 .1 0 .1c0 0 0 -.1 0 -.1Zm4.3 -1.9q.1 0 0 0Zm-2 .6q-.1 0 -.1 0c0 0 0 -.1 0 -.1c0 -.1 .1 -.1 .1 .1q0 -.1 0 0Zm-2.4 .8q-.1 0 -.1 -.1q0 -.1 .1 -.1c.1 0 .2 0 .2 .1c-.1 0 -.1 .1 -.2 .1Zm6.2 -.4q-.1 0 -.1 -.1h.1q.1 0 .1 0c0 0 0 .1 -.1 .1Zm-4 .7c0 0 0 .1 -.1 .1c0 0 -.1 -.1 -.1 -.1c0 0 .1 0 .2 0c-.1 0 0 0 0 0Zm3.6 -.2c-.1 .1 -.1 0 -.1 0q-.1 -.1 0 -.2c0 0 .1 0 .1 0q0 .1 0 .2Zm1.5 -.1q-.1 0 -.1 -.1c0 0 0 -.1 .1 -.1c0 0 .1 .1 0 .2q.1 0 0 0Zm-.4 .1q-.1 0 -.2 -.1q0 -.1 0 -.2c0 0 .1 0 .2 0c.1 0 .1 .1 0 .1c.1 .2 0 .2 0 .2Zm-5.1 1c-.1 -.1 -.2 -.1 -.1 -.2c0 0 .1 -.1 .1 0c0 0 0 .1 0 .1q0 .1 0 .1ZM314.5 573.4q.1 0 .1 0c-.1 0 -.2 .1 -.3 0c0 0 0 -.1 0 -.1c0 0 .1 0 .2 .1Zm2.1 0c-.1 0 -.2 -.1 -.2 -.2q0 -.1 0 -.1q.1 0 .2 0c.1 .1 .1 .2 .1 .2c0 0 0 .1 -.1 .1ZM313.6 577.3q0 .1 0 0q0 .1 0 0q0 .1 0 0q0 .1 0 0Zm-.1 -1.1l.1 .1c0 0 0 .1 0 .1c-.1 0 -.1 -.1 -.1 -.2Zm1.7 -.2c0 0 .1 0 .1 0c0 0 0 .1 0 .2c0 0 -.1 .1 -.1 .1c0 0 -.1 0 -.1 -.1c0 0 0 -.1 0 -.1c.1 0 .1 -.1 .1 -.1Zm-.5 .3q.1 .1 0 .2c0 .1 -.1 .1 -.2 .1q-.2 0 -.2 -.1q0 -.1 0 -.2c0 0 .1 -.1 .2 -.1c.1 0 .2 0 .2 .1ZM316.5 575.4c.1 0 0 0 0 0Zm1 -.1c0 0 0 -.1 0 0q0 -.1 0 0Zm-4 .5q.1 0 .1 0c0 0 0 .1 -.1 .1q0 -.1 0 -.1Zm-.7 -.3q.1 0 .1 0c0 0 0 .1 -.1 .1c0 0 -.1 0 0 -.1q-.1 0 0 0Zm.7 -1q0 .1 0 .1c0 0 -.1 0 0 -.1q-.1 0 0 0Zm1.5 -.8c0 0 0 .1 0 0q0 .1 0 0q-.1 .1 0 0c-.1 .1 -.1 0 0 0Zm.9 .2q0 -.1 0 0q0 -.1 0 -.1c0 -.1 .1 -.2 .1 -.2c0 0 .1 0 .1 0q.1 .1 0 .2c0 0 -.1 .1 -.1 .1c0 0 -.1 0 -.1 0Zm-1.4 .3c-.1 0 -.1 -.1 -.1 -.1c0 -.1 .1 -.2 .1 -.2q.1 0 .1 .1c.1 .1 0 .2 -.1 .2Zm-.5 .2c-.1 .1 -.2 .2 -.2 .2c0 0 -.1 0 -.1 0c-.1 -.1 -.1 -.3 0 -.4c.1 .1 .2 .2 .3 .2Zm3.4 -.2q-.1 0 -.1 -.1q0 -.1 .1 -.1q.1 0 .1 .1c0 .1 -.1 .1 -.1 .1ZM313.1 574.9q-.1 .1 -.2 .2c0 .1 -.1 .1 -.2 0q0 -.1 0 -.2c0 0 .2 -.1 .3 -.2c0 .1 .1 .1 .1 .2Zm6.6 -.7q-.1 0 -.1 0q0 -.1 .1 -.1c.1 0 .2 0 .2 .1c-.1 0 -.2 0 -.2 0Zm-2.1 .2q0 .1 -.1 .1v-.1c0 .1 0 0 .1 0Zm-.4 .3c-.1 0 -.2 -.1 -.2 -.1c0 0 0 -.1 -.1 -.1c0 -.1 0 -.2 .1 -.2q.1 0 .2 0c0 .1 .1 .1 .1 .2q0 .1 -.1 .2Zm1.9 -.3c.1 .1 0 .1 0 .1c0 0 -.1 0 0 -.1c-.1 .1 0 0 0 0Zm.7 .1q0 -.1 0 0c-.1 -.1 0 -.1 0 -.2h.1c0 .1 0 .2 -.1 .2Zm-4.1 .9c-.1 0 -.2 0 -.2 -.1c0 0 0 -.1 0 -.1c0 -.1 .1 -.1 .2 0c0 0 .1 0 .1 .1c0 -.1 0 0 -.1 .1c.1 -.1 0 -.1 0 0Zm-3.1 .4v-.1q.1 .1 0 .1q.1 0 0 0Zm1.7 -.2q0 .1 0 .1v-.1Zm5.9 -.7q-.1 0 -.2 0v-.1c0 0 0 -.1 0 -.1c0 0 .1 0 .1 0c0 0 .1 0 .1 0c.1 0 .1 .1 .1 .1c.1 .1 0 .1 -.1 .1Zm-3.9 .8q0 .1 0 .1c-.1 0 -.2 0 -.2 0q0 -.1 0 -.2c0 0 .1 0 .2 .1Zm4.6 -.6q-.1 0 -.1 -.1v-.1h.1q0 .1 0 .2Zm-2.9 .6q0 -.1 0 0q0 -.1 0 0c.1 0 0 0 0 0Zm-1.5 .3c0 .1 -.1 .2 -.1 .4c0 .1 -.1 .1 -.2 .1q-.1 -.1 -.1 -.2c0 -.1 .1 -.2 .2 -.3c.1 -.1 .2 -.1 .2 0Zm4 -.3c-.1 -.1 0 -.2 0 -.1q.1 0 0 .1q.1 0 0 0Zm-2.1 .5v-.1q0 -.1 0 -.1c0 0 .1 0 .1 .1c0 .1 -.1 .1 -.1 .1Zm-3.1 .6q-.1 0 -.2 -.1q0 -.1 .1 -.1q.1 0 .2 0q0 .2 -.1 .2Zm-1.5 .3c-.1 0 -.2 -.1 -.1 -.2c.1 -.2 .1 -.3 0 -.4v-.1c0 0 0 -.1 .1 -.1c0 0 .1 0 .1 0c.1 .1 .1 .2 .1 .3c.1 .1 .2 .1 .2 .2c0 0 .1 .1 0 .1c0 .2 -.2 .2 -.4 .2Zm1.1 -.1q.1 0 .1 .1c0 0 0 .1 -.1 .1c0 0 -.1 -.1 0 -.2c-.1 0 0 0 0 0Zm4.4 -.4q-.1 0 -.1 -.1q0 -.1 .1 -.2q.1 0 .1 .1c.1 .1 0 .2 -.1 .2Zm-4 1.3c0 .1 -.1 .1 0 0q-.2 .1 -.2 0q0 -.1 .1 -.1l.1 .1q0 -.1 0 0ZM316.4 578.1c0 0 -.1 0 -.1 .1q-.1 0 -.2 0c-.1 0 -.1 -.1 -.1 -.2q0 -.1 .1 -.1c.2 -.1 .4 0 .5 .1c-.1 0 -.1 .1 -.2 .1Zm1.3 0c0 -.1 -.1 -.1 0 0c-.1 -.1 0 -.2 0 -.2c0 0 .1 0 .1 .1c0 0 0 .1 -.1 .1Zm-2.6 .5c-.1 0 -.2 0 -.2 -.1c0 -.1 0 -.2 0 -.2c0 -.1 .1 -.1 .2 -.1c0 0 0 .1 0 .1c0 0 0 .1 0 .1c.1 .1 0 .2 0 .2Zm4.1 -.3q-.1 0 -.1 -.1q0 -.1 .1 -.1v.1q0 .1 0 .1Zm.7 .3c-.1 0 0 0 0 0Zm-1.5 .5q0 -.1 -.1 -.2c0 -.1 0 -.2 0 -.3c0 -.1 .1 -.1 .1 -.1c0 0 .1 0 .1 .1c0 .2 0 .3 0 .5c0 0 -.1 0 -.1 0Zm.5 .3q0 -.1 0 0q-.1 -.1 -.1 -.1c.1 -.1 .2 -.1 .1 .1q.1 -.1 0 0Zm3.6 -.3q-.1 0 -.1 0c0 0 0 -.1 .1 -.1c0 0 0 .1 0 .1c.1 0 0 0 0 0Zm-.4 .2c0 0 -.1 0 -.1 -.1q0 -.1 .1 -.1c0 0 .1 0 .1 0c0 .1 0 .2 -.1 .2Zm-3 1.1c0 0 -.1 0 -.1 0c0 0 -.1 0 -.1 0c0 0 -.1 -.1 -.1 -.1c0 -.2 .1 -.3 .2 -.4c0 -.1 .1 -.1 .1 -.1q.1 0 .1 .1c.1 .1 .1 .5 -.1 .5Zm3.5 -.2q-.1 0 0 0c-.2 0 -.2 -.1 -.2 -.2q0 -.1 .1 -.1c0 0 .1 0 .1 0c.1 0 .2 0 .2 .1q-.1 .1 -.2 .2Zm-2.6 .9c-.1 .1 -.2 0 -.2 0c-.1 0 -.1 -.1 -.1 -.2c0 -.1 .1 -.2 .2 -.2h.1c0 0 .1 0 .1 .1c0 .1 0 .2 -.1 .3Zm.7 .4q-.1 0 0 0c-.1 0 -.1 -.1 0 -.1c0 0 .1 0 .1 0c0 0 0 .1 -.1 .1Z" class="g0_8"/>
<path d="M253.4 597.5l-18.5 13.7l.7 1.1l9.4 -6.4c-.1 -.2 -.1 -.4 -.1 -.6c0 -.1 .1 -.2 .1 -.2c.1 -.2 .1 -.4 .1 -.7q0 -.1 .1 -.2q.7 .1 .9 .8l3.3 -2.4c0 0 0 -.1 0 -.2c.1 -.2 .2 -.4 .3 -.6c.1 .2 .2 .4 .2 .5l6.3 -4.4l-1.7 8.9h1.3L259 596.1l13.9 -9.3c0 -.1 0 -.3 0 -.4c0 0 0 -.2 .1 -.4c0 -.1 .1 -.2 .2 -.2c.2 -.2 .5 -.1 .8 .1q.1 .1 .1 .2l3.6 -2.4h1.7c0 -.1 0 -.2 .1 -.3c.2 -.2 .6 -.1 .7 .2c0 0 0 .1 .1 .1l26.7 .2c-.1 0 -.2 -.2 -.2 -.3c0 -.1 0 -.2 .1 -.3c.1 -.2 .2 -.4 .5 -.4c.2 -.1 .4 .1 .4 .2c.1 .3 0 .7 0 .9h.7c0 0 .1 0 .1 -.1h13.7c-.4 -.1 -.6 -.4 -.5 -.8c0 -.2 .1 -.4 .4 -.5c.6 -.3 .7 -.3 1.2 .1c.1 .1 .2 .1 .2 .2c.2 .2 .3 .5 .1 .7c-.1 .2 -.3 .3 -.4 .3h8.9l-26 9.4h.1c.2 0 .3 .1 .3 .3c0 .1 -.2 .3 -.4 .3c-.1 0 -.2 -.1 -.2 -.2c0 -.2 .1 -.3 .2 -.4l-5.1 1.9l1.2 1.5l.6 -.2c0 -.1 .1 -.1 .1 -.2c.2 -.2 .4 -.2 .6 -.1L316.7 592l-10.3 14.8c.1 .1 .3 .2 .4 .3c.1 .2 .2 .4 .1 .6c-.2 .3 -.4 .3 -.7 .3c-.1 0 -.3 -.1 -.5 -.2l-3.4 4.9l1.5 -.1l10.6 -13.9q-.1 0 -.1 0c-.2 -.1 -.3 -.1 -.3 -.4c0 -.2 .1 -.4 .3 -.5c0 0 .1 0 .2 0c.3 0 .4 0 .5 .1l5.6 -7.4l1.6 -.5c0 -.2 .1 -.3 .2 -.4c.1 -.1 .8 -.1 1 0L340.5 584h-.2l21.1 .1c0 -.2 0 -.3 .2 -.3c.2 0 .3 .1 .4 .2c0 0 0 .1 0 .1h7l-5.8 2.3c.1 0 .2 .1 .2 .1c.1 .2 .3 .4 .4 .5c.1 .1 .1 .2 .1 .2c.1 .1 .1 .3 0 .5c-.1 .1 -.3 .2 -.5 .1c-.1 -.1 -.3 -.2 -.3 -.3c0 -.3 -.1 -.5 -.3 -.7c0 0 -.1 -.1 -.1 -.2c0 0 0 -.1 0 -.1l-1.2 .5c.1 0 .2 .1 .2 .2c0 .1 -.1 .2 -.3 .2c0 0 -.1 -.1 -.1 -.1c0 -.1 .1 -.2 .1 -.3l-7.9 3.2c0 0 0 .1 -.1 .1l-7.1 2.8l.9 2.1l12.4 -4.6c0 0 0 -.1 -.1 -.1c-.1 -.2 -.1 -.6 0 -.9c.4 .1 .5 .5 .6 .8l5.7 -2.1c-.1 0 -.2 -.2 -.2 -.3c.1 0 .2 0 .3 0c.2 0 .3 0 .3 .2c0 0 0 .1 -.1 .1l10.8 -4q0 -.1 0 -.2c0 -.2 .1 -.4 .2 -.7c.3 -.1 .6 -.1 .8 0c.1 0 .2 .3 .1 .4c-.2 .1 -.2 .2 -.2 .4h3.9c-.1 0 -.2 -.2 -.2 -.3c.1 0 .2 -.1 .2 -.1c.2 0 .3 .1 .3 .2c0 .1 -.1 .2 -.2 .2h1.7c0 -.1 .1 -.1 .2 -.1c.1 0 .3 0 .3 .2h.1c-.2 -.1 -.3 -.3 -.5 -.4c-.1 0 -.2 -.1 -.2 -.3c-.1 -.2 -.1 -.4 .1 -.5c.2 -.1 .4 -.3 .5 -.6c.1 -.3 .3 -.4 .7 -.3c0 .7 0 1.3 0 2c-.1 0 -.2 .1 -.3 .1h4.5v-.1c0 -.2 .2 -.3 .3 -.3c.1 0 .2 .1 .2 .2c0 0 0 .1 0 .1l12.7 .1c0 0 .1 0 .1 -.1c0 0 0 .1 0 .1h.7c0 0 0 -.1 0 -.1c0 0 .1 0 .1 .1h4.3c0 0 0 -.1 0 -.1c0 -.1 0 -.3 0 -.3c0 -.2 .2 -.3 .4 -.3c.1 0 .2 .1 .3 .3c.1 .2 .1 .3 .2 .5l12.8 .1c0 -.1 -.1 -.1 -.1 -.2c-.1 -.3 -.1 -.5 -.2 -.7c-.1 -.1 .1 -.3 .2 -.3c.2 0 .3 .1 .4 .3c0 .1 0 .3 0 .3c0 .1 0 .2 0 .2c0 0 0 .1 .1 .1c0 0 .1 0 .1 0c.1 -.1 .1 -.2 .1 -.3c.1 -.1 .2 -.3 .4 -.2c.2 0 .3 .2 .4 .3c0 .1 0 .2 0 .3h2c-.1 -.1 -.2 -.2 -.3 -.3c-.1 -.1 -.1 -.2 0 -.3c.1 -.1 .3 -.1 .4 0c.1 .1 .3 .2 .3 .3c0 .1 0 .2 0 .3h1.3q0 -.1 0 -.2c0 -.2 0 -.4 -.1 -.6c-.1 -.2 -.1 -.4 0 -.5c.2 -.4 .4 -.7 .6 -1.1c0 -.1 .1 -.1 .2 -.2c.2 .2 .3 .4 .5 .6c.1 .1 .2 .2 .3 .5c.1 .2 .3 .3 .4 .5c-.1 .1 -.2 .2 -.3 .1c-.2 -.1 -.3 -.2 -.4 -.3c-.1 0 -.2 0 -.3 0c-.1 .4 0 .7 .3 1.2c0 0 .1 0 .2 -.1c.1 -.1 .3 -.2 .4 -.1c.1 0 .2 .1 .2 .2h1.5v-.1c0 0 .1 -.1 .1 -.1c.1 0 .2 .1 .2 .2v.1h4.5c0 -.3 .2 -.5 .3 -.6c.1 0 .2 -.1 .3 0c.1 .1 .2 .1 .2 .2c0 .1 0 .2 -.1 .3c0 .1 -.1 .1 -.2 .2l14.5 .1l-7.3 -3.2l-14.7 -.1c0 0 -.1 .1 -.1 .1c0 0 0 -.1 0 -.1h-2.2c-.1 .1 -.2 .2 -.3 .2c-.1 0 -.1 -.1 -.2 -.2H414c.3 0 .4 .2 .5 .4c0 .2 -.2 .4 -.3 .4c-.1 0 -.3 0 -.4 -.1c-.2 -.1 -.4 -.2 -.4 -.5c0 -.2 .3 -.2 .5 -.3H405c.1 .2 .1 .3 -.1 .4c0 0 -.1 0 -.1 0c0 -.1 -.1 -.1 -.1 -.3q0 -.1 .1 -.2h-4.7c-.1 .1 -.1 .3 -.1 .4c0 .1 .1 .4 -.1 .7c-.1 0 -.3 .1 -.3 .1c-.1 0 -.3 0 -.4 0c0 0 -.1 0 -.1 -.1c0 -.4 0 -.7 -.1 -.9q0 -.1 0 -.2L378.1 581c0 0 .1 .1 .1 .1c0 .1 .1 .1 0 .2c-.1 .3 -.5 .5 -.8 .4c-.2 -.1 -.4 -.3 -.4 -.5c0 -.1 .1 -.2 .2 -.2H363.9l-13.8 -5.7c0 .1 .1 .3 0 .5c0 .1 -.2 .2 -.5 .2c-.2 0 -.3 -.2 -.3 -.3c.1 -.1 .1 -.2 .2 -.3c.1 -.1 .3 -.1 .4 -.1l-4.1 -1.7c-.2 .2 -.4 .3 -.6 .3c-.7 0 -1.1 -.4 -1.3 -.8c0 -.1 0 -.2 0 -.2l-1.6 -.6c-.1 0 -.2 0 -.3 0q0 -.1 0 -.2l-4.8 -2c-.1 .1 -.1 .2 -.2 .2c-.2 0 -.4 -.2 -.4 -.3l-1.8 -.7c.1 0 .1 .1 .1 .2c0 .3 -.2 .6 -.5 .6c-.3 0 -.5 -.2 -.6 -.6c0 -.2 .2 -.4 .5 -.4L328 566.5l-1.3 1.2l10 4.9c.1 -.1 .2 -.2 .4 -.2c.1 0 .2 .2 .2 .3q0 .1 0 .1l14.7 7.1c0 -.2 0 -.4 0 -.6c0 -.1 .1 -.2 .1 -.3c0 -.1 -.1 -.2 -.2 -.3c-.1 -.1 -.2 -.1 -.2 0c-.1 .1 -.2 .2 -.3 .2c-.2 .1 -.4 .1 -.5 -.1c0 -.1 0 -.4 0 -.5c.1 -.1 .3 -.2 .4 -.3c0 -.2 0 -.4 .1 -.5c.1 -.2 .4 -.4 .7 -.2c.2 .1 .4 .2 .4 .4c0 .5 0 .9 0 1.3c0 .3 0 .6 .3 .9c.1 0 .1 .1 0 .3l1.9 .9h-2.1c.4 .2 .5 .5 .2 .8c-.3 .4 -.6 .4 -1 .4c-.1 0 -.3 -.1 -.4 -.4c-.1 -.3 0 -.5 .2 -.7c.1 -.1 .1 -.2 .3 -.2l-21.2 -.1c-.1 .1 -.2 .1 -.4 .2c-.2 0 -.4 0 -.5 -.2h-9.9c0 .1 -.1 .2 -.2 .2c-.2 .1 -.4 .1 -.5 0c-.1 0 -.1 -.1 -.2 -.2l-15.9 -.1L295.6 578c-.2 0 -.5 -.1 -.7 -.3l-.7 -.3c0 .1 0 .3 0 .4c-.1 .5 -.3 .6 -.8 .4c-.1 -.1 -.2 -.2 -.3 -.3c-.2 -.3 -.1 -.6 .1 -.6c.1 0 .2 0 .3 -.1l-13.3 -5.1l-5.4 -11.6c-.3 .2 -.7 .1 -1 -.1c-.1 -.2 -.2 -.3 -.2 -.8v-.1c.1 -.4 .2 -.6 .5 -.6l-3.5 -8.8h-1l4.1 11.6v-.1c0 .1 .1 .2 .1 .2c0 .1 0 .2 -.1 .2l3.2 8.8l-1.7 -.7c-.1 0 -.2 0 -.3 .1c-.1 0 -.2 0 -.2 0c-.2 0 -.2 -.1 -.3 -.3L263.9 566c-.1 .1 -.2 .4 -.2 .7c0 .2 -.3 .2 -.5 .2c-.2 0 -.6 0 -.9 0c-.1 0 -.2 0 -.3 -.1c0 -.1 -.1 -.3 -.1 -.4c0 -.2 .1 -.3 .3 -.3c.1 0 .3 0 .5 0c.2 0 .3 0 .4 -.2l-8.9 -3.3l1.6 2.3l6.3 2.6c.1 -.1 .2 -.2 .2 -.2c.2 0 .4 .1 .4 .4h-.1l11.9 4.9v-.1c0 -.1 -.1 -.2 0 -.3c0 0 0 -.1 .1 -.1c.1 0 .2 .1 .3 .2c0 .1 0 .2 0 .3l19.9 8.2h-5.4c-.1 .1 -.2 .1 -.3 .1v-.1H274.4c0 0 -.1 .1 -.1 .1c0 0 -.1 0 -.2 -.1h-9.8q0 .1 -.1 .2c-.1 .1 -.2 .1 -.3 0c0 0 0 -.1 0 0c-.2 .1 -.4 .1 -.7 .1c-.3 0 -.5 .4 -.3 .7c.1 .2 .2 .4 .4 .4c.1 0 .2 0 .4 .1c-.1 .1 -.2 .2 -.3 .2c-.3 0 -.7 -.1 -1 0c-.1 0 -.2 -.1 -.2 -.2c0 -.3 0 -.6 .1 -.9c.1 -.1 .3 -.2 .5 -.2c.1 0 .1 -.2 0 -.3h-2q0 .1 -.1 .2q0 -.1 0 -.2h-1.1c.1 .1 .1 .3 0 .4c-.2 .2 -.1 .5 -.5 .6c-.1 0 -.1 .2 -.1 .3c0 .1 0 .2 0 .3c0 .1 -.2 .2 -.2 .1c-.3 -.1 -.4 -.3 -.6 -.5c0 -.2 -.1 -.4 0 -.6q.5 -.1 .7 -.6H244.6c0 0 .1 .1 .1 .1c-.3 .4 -.5 .5 -.9 .5q-.2 0 -.2 -.2c0 -.1 0 -.3 0 -.4H240c-.1 0 -.2 .1 -.2 .2c.2 .1 .4 .1 .5 .1c.3 0 .4 .2 .5 .3c0 .1 .1 .2 .1 .4c.1 .3 -.1 .4 -.3 .5c-.3 .1 -.5 0 -.6 -.2c0 -.1 0 -.2 -.1 -.2c0 0 0 -.1 -.1 -.1c-.1 .1 -.3 .1 -.3 .1c0 .1 -.1 .2 -.1 .3c0 .3 0 .5 0 .8h1c0 -.1 0 -.2 .2 -.3c.1 0 .1 -.1 .2 -.1c.3 -.1 .4 -.2 .6 -.4c.1 -.2 .3 -.4 .6 -.5c.1 -.2 .3 -.1 .4 .2c.1 .2 .1 .3 .3 .3c0 .3 0 .6 0 .8h.7q.1 0 .2 0H245c0 0 0 -.1 .2 -.1c0 0 0 .1 .1 .1l10.6 .3l3 .1c.1 -.3 .2 -.3 .6 -.1c.3 .1 .4 .1 .7 -.1c0 .1 0 .2 0 .2h.8c0 0 .1 0 .1 0h1.3c.1 -.1 .2 -.1 .3 -.1c.1 0 .1 .1 .2 .1h.9c0 0 .1 0 .1 0h.3c.2 -.2 .1 -.4 .3 -.6q.2 .1 .3 0c.3 -.3 .5 -.2 .6 .1c.1 .1 .1 .3 .1 .5c.1 0 .2 0 .3 .1l5.3 .2q.1 -.1 .2 -.1c.1 0 .2 .1 .2 .1h.4v.1c.1 .3 -.1 .6 -.4 .7c0 0 -.1 0 -.1 0c-.1 0 -.2 -.1 -.2 -.2l-13 9.6c.1 .1 .3 .2 .3 .4c0 .1 0 .3 -.2 .4c-.1 .1 -.3 0 -.5 -.1q-.1 -.1 -.2 -.2h-.1c0 0 0 -.1 0 -.1l-1.6 1.2q.1 0 .2 0c.5 0 .6 .3 .6 .6c0 .3 -.1 .5 -.4 .5c-.4 0 -.5 -.2 -.6 -.5c0 -.1 0 -.2 .1 -.3l-1.5 1c.1 .1 .1 .2 .1 .3c0 .3 -.1 .5 -.2 .6c0 .1 -.2 .3 -.4 .3c-.2 -.2 -.3 -.3 -.4 -.6Zm-13.1 -15c0 0 -.1 .1 -.1 .1c-.1 0 -.2 -.1 -.4 -.2c.2 0 .3 0 .5 .1c-.1 -.1 0 0 0 0Zm3.6 -.1c-.1 .1 -.2 .1 -.3 .1c0 0 0 -.1 -.1 -.2c.1 0 .1 -.1 .1 -.2c.1 -.1 .3 -.1 .3 0c.1 .2 .1 .3 0 .3Zm1.4 -.4c0 0 -.1 0 0 0q-.1 0 -.1 0q0 -.1 .1 0c0 -.1 0 0 0 0Zm2.2 0c-.1 .3 -.2 .5 -.7 .6c0 -.2 -.2 -.3 -.3 -.5c0 -.1 .1 -.2 .1 -.3c.1 -.2 0 -.3 .2 -.4c.3 -.1 .3 .1 .5 .3c.2 0 .2 .2 .2 .3Zm9.7 -1.1q0 .1 0 .2q-.1 0 -.1 -.1q0 -.1 0 -.2c0 .1 .1 .1 .1 .1Zm3.1 .7c0 .1 -.1 .2 -.2 .2c-.1 0 -.2 -.1 -.2 -.3c0 0 .1 0 .1 -.1c.2 .1 .4 .1 .3 .2Zm.3 .9q-.1 .1 0 0c-.1 .1 -.1 0 0 0q-.1 0 0 0q-.1 0 0 0ZM265.5 581.5c0 .2 0 .3 -.2 .3c-.1 0 -.2 0 -.3 .1q-.1 0 -.2 0c-.1 0 -.1 -.1 -.1 -.2c0 -.1 0 -.2 0 -.2c0 -.1 .1 -.2 .3 -.3c.1 -.1 .2 0 .3 0c.2 .1 .3 .2 .2 .3Zm1.1 .4c0 0 0 .1 0 0c-.1 .1 -.2 0 -.2 0c0 0 .1 -.1 .1 -.1c0 0 .1 .1 .1 .1Zm1.4 -.7c0 0 -.1 .1 0 0c-.1 .1 -.2 0 -.2 0c0 0 .1 -.1 .2 0c-.1 -.1 0 0 0 0Zm.6 -12.1c0 .2 -.2 .3 -.4 .3c-.2 0 -.3 -.1 -.3 -.3c0 -.2 .1 -.4 .3 -.4c.2 .1 .4 .2 .4 .4Zm4.8 1.8c0 .1 -.1 .2 -.4 .2c0 -.1 -.2 -.1 -.2 -.2c0 0 .1 -.2 .2 -.2c.2 -.1 .4 .1 .4 .2Zm3.1 .9l-.1 .1q-.1 -.1 -.2 -.1c0 0 0 -.1 .1 -.1c.1 0 .2 .1 .2 .1Zm.5 -7.1c0 .1 0 .2 -.1 .2c0 0 -.1 0 -.1 -.2c0 0 .1 -.1 .1 -.2c0 0 .1 .1 .1 .2Zm1.1 8.8c-.1 0 -.2 -.1 -.3 -.1c.1 -.1 .2 -.2 .3 -.3c0 0 .2 .1 .2 .2c0 .1 -.1 .2 -.2 .2Zm.4 -5.1q0 .1 -.1 .1q-.1 0 -.1 -.1q.1 -.1 .2 -.1v.1Zm.3 1.5c0 .2 -.1 .2 -.2 .2q-.1 0 -.1 -.1c0 -.2 0 -.4 .1 -.4c.1 .1 .2 .2 .2 .3Zm8.6 7c-.1 .2 -.2 .3 -.4 .3c-.3 0 -.4 0 -.8 -.2c.2 -.3 .4 -.4 .6 -.6c.2 -.1 .4 0 .5 .1c.2 .1 .2 .2 .1 .4Zm6.4 2.4c0 0 0 .1 -.1 .1c0 0 -.1 0 -.1 -.1c0 0 0 -.1 .1 -.1q0 .1 .1 .1ZM328.9 568c0 .1 -.1 .1 -.2 .1c-.1 0 -.1 -.1 -.3 -.2q.2 -.1 .3 -.1c.2 0 .2 .1 .2 .2Zm8.7 3.2c-.1 .2 -.2 .3 -.5 .3c0 0 -.1 0 -.3 -.1c-.3 -.1 -.4 -.3 -.3 -.5c.1 -.3 .3 -.4 .5 -.4c.1 0 .2 .1 .4 .2c.3 .1 .3 .3 .2 .5Zm5.1 1.9c0 0 -.1 0 -.1 0c0 0 -.1 -.1 -.1 -.1c-.1 -.2 -.1 -.3 0 -.4c.1 0 .2 0 .3 .1c0 .1 0 .2 -.1 .4Zm4.4 3.6c0 .2 -.1 .3 -.3 .3c-.1 0 -.2 -.2 -.2 -.4q.1 0 .2 -.1c.2 -.1 .3 .1 .3 .2Zm1.7 .7c0 0 0 .1 -.1 .1c-.2 .1 -.6 -.1 -.7 -.2v-.1c0 0 .1 -.1 .1 -.2c.3 -.2 .7 .1 .7 .4Zm95.1 5.9c0 -.1 .1 -.1 .2 -.1c.1 0 .2 .1 .2 .2c0 .1 -.1 .2 -.2 .2c-.2 -.1 -.3 -.2 -.2 -.3Zm-1.9 -.5q.1 -.1 .2 -.1c.1 0 .1 .1 .2 .1c0 .1 -.1 .2 -.2 .2c-.1 -.1 -.2 -.1 -.2 -.2Zm-8.3 -.9c.3 -.5 .4 -.5 1 -.3q.1 -.1 .2 -.1c.1 0 .2 0 .3 0c.1 0 .2 .1 .2 .2c0 .1 0 .2 -.1 .3c-.1 .2 -.2 .4 -.4 .6c-.2 .2 -.3 .4 -.5 .5c-.2 .1 -.4 .1 -.6 0c-.4 -.5 -.4 -.8 -.1 -1.2Zm-1 .2c.1 -.1 .2 -.2 .2 -.2c.1 0 .3 .1 .3 .3c0 .1 -.2 .2 -.3 .2c0 -.1 -.1 -.2 -.2 -.3Zm-4 1.6c0 -.3 .2 -.4 .3 -.6c.2 -.1 .3 -.3 .1 -.6c-.1 -.1 -.2 -.2 -.2 -.2c-.1 -.2 0 -.4 .1 -.5c.2 -.1 .4 0 .4 .2c.1 .1 .1 .2 .1 .3q.2 0 .4 0c.3 0 .4 .2 .5 .5c-.3 .1 -.6 .2 -.9 .3c-.1 .2 -.1 .3 -.2 .5c-.1 .2 -.3 .3 -.4 .3c0 0 -.2 0 -.2 -.2Zm-2.6 -1.9c0 -.2 .1 -.3 .2 -.3c.1 0 .2 .1 .2 .2c0 .2 -.1 .3 -.2 .3c-.1 -.1 -.1 -.2 -.2 -.2Zm-1.9 1.4c0 0 .1 -.1 .1 -.1c.3 0 .5 -.3 .5 -.6c0 -.1 .1 -.1 .1 -.2c.2 0 .2 .1 .2 .3c0 .2 -.1 .3 -.2 .5c-.1 .3 -.3 .4 -.7 .4c-.1 0 -.1 -.1 -.2 -.1c.1 -.1 .1 -.2 .2 -.2Zm-1 .7c0 0 .1 0 .1 0c0 0 .1 0 .1 0c0 .1 -.1 .1 -.2 0c.1 .1 0 0 0 0Zm-1.6 -1.5c0 -.1 .1 -.1 .2 -.3c.1 -.1 .2 -.2 .3 -.2c.2 -.1 .3 -.1 .4 -.1c.4 0 .6 .2 .5 .5c0 .1 -.1 .2 -.3 .3c-.3 0 -.3 .2 -.5 .4c-.1 .1 -.4 .1 -.6 0c-.2 -.3 -.1 -.4 0 -.6Zm-.9 .4c0 -.1 .1 -.1 .1 -.1c0 0 .1 .1 .2 .2c-.1 .1 -.2 .2 -.2 .2c0 -.1 -.1 -.2 -.1 -.3Zm-3.4 -.6c0 -.1 .1 -.1 .2 -.2c0 .1 .1 .2 0 .3c0 0 0 .1 -.1 .1c-.1 0 -.2 -.1 -.1 -.2Zm-1.3 2.1c0 0 0 -.1 0 0q0 -.1 0 0c0 -.1 0 0 0 0Zm-.1 -1.2c0 -.1 0 -.2 0 -.2c.2 -.1 .4 -.1 .7 -.2c.1 0 .3 .1 .3 .2c0 .2 -.2 .2 -.2 .2c-.1 0 -.2 0 -.2 0c-.2 .1 -.4 0 -.6 0Zm-3.8 -1c0 .1 -.1 .1 -.2 .2q-.1 -.1 -.1 -.2c0 -.1 0 -.2 .1 -.2c.1 0 .2 .1 .2 .2Zm-1.1 .7c0 -.2 .1 -.3 .2 -.3c.1 0 .2 .1 .3 .2c.2 .4 .3 .4 .7 .4c0 0 .1 0 .1 .1c.1 .2 -.1 .3 -.2 .4q-.3 .2 -.6 0c-.2 -.2 -.4 -.3 -.5 -.5c0 0 -.1 -.1 0 -.3Zm-2.9 .3q.1 0 .2 0c.1 0 .2 0 .2 .1c0 .1 -.1 .2 -.2 .2c-.1 -.1 -.1 -.2 -.2 -.3Zm-4.2 .7c.1 -.2 .3 -.3 .5 -.1c0 0 .1 .1 0 .1c0 .1 -.2 .1 -.3 .1c-.1 0 -.2 0 -.2 -.1c-.1 .1 0 0 0 0Zm-1.3 -.3c0 -.2 .2 -.3 .3 -.3c.2 .1 .4 .2 .4 .5c0 .1 -.1 .2 -.1 .2c-.1 .1 -.2 .1 -.3 0c-.1 0 -.3 -.1 -.3 -.4ZM398.6 583.2q.1 -.1 .2 -.1c0 0 0 .1 0 .1q0 .1 0 .1c0 0 -.1 0 -.2 -.1Zm-2.5 .3c.2 0 .3 -.1 .4 -.1c0 0 .1 .1 .1 .2c0 .1 -.1 .1 -.1 .1c-.1 0 -.2 0 -.4 -.2Zm-1.7 -1.2q.1 0 0 0q.1 0 0 0q.1 0 0 0Zm-3.4 .8c.1 -.3 .4 -.4 .7 -.2c-.1 .2 -.2 .4 -.6 .4c-.1 0 -.1 -.1 -.2 -.1q.1 -.1 .1 -.1Zm-.1 -.7c.1 -.1 .2 -.1 .3 -.1c.1 0 .2 0 .2 .2c0 .1 -.1 .2 -.2 .1c-.2 0 -.2 -.1 -.3 -.2Zm-41 11c0 .2 -.2 .3 -.3 .3c-.2 0 -.3 -.2 -.3 -.4c0 -.2 .2 -.3 .3 -.3c.1 .1 .3 .2 .3 .4Zm4.9 -1.5c-.2 .2 -.5 .3 -.7 .5c-.1 -.1 -.3 -.2 -.2 -.3c.1 -.3 .2 -.5 .2 -.8c0 -.1 .1 -.2 .4 -.2c.1 .1 .3 .2 .4 .4c0 .1 0 .3 -.1 .4Zm2.8 -2.4c0 .1 -.2 .3 -.3 .3c-.2 0 -.5 -.2 -.5 -.3c0 -.2 .1 -.4 .4 -.4c.2 .1 .4 .2 .4 .4Zm2.7 -.7c0 .1 -.1 .3 -.3 .3c-.2 0 -.2 -.2 -.2 -.3c0 -.1 .1 -.3 .3 -.2c.1 -.1 .2 0 .2 .2Zm14.3 -5.3c.2 -.2 .4 -.1 .5 -.1c.1 .1 .1 .3 .1 .4c0 .1 -.1 .2 -.6 .5c0 -.3 0 -.6 0 -.8Zm-10.8 -.4c0 -.1 .2 -.3 .4 -.3c.3 0 .5 .2 .5 .4c0 .3 -.2 .4 -.5 .4c-.3 .1 -.4 -.1 -.4 -.5Zm-.5 -1.6c.1 0 .3 0 .4 .1c.2 .1 .2 .3 .2 .5c0 .2 -.1 .2 -.3 .3c-.2 0 -.4 -.1 -.4 -.2c0 -.3 0 -.5 .1 -.7Zm-1.2 -.7c0 -.1 .1 -.1 .1 -.1c.1 0 .2 0 .2 .1c0 .1 -.1 .2 -.2 .2c0 0 -.1 -.1 -.1 -.2Zm-1.3 .4c0 0 .1 0 .1 0q0 .1 0 .2c0 0 -.1 0 -.1 .1q0 -.2 0 -.3Zm-2.4 2c.1 -.1 .2 -.1 .3 -.1c.1 0 .2 0 .2 .1c0 .2 -.1 .3 -.2 .2c-.1 0 -.2 -.1 -.3 -.2Zm-.1 -2.9c.1 -.1 .1 -.2 .2 -.2c.3 -.1 .5 0 .6 .4q0 .2 -.1 .3c-.3 .2 -.6 .1 -.7 -.2q0 -.1 0 -.3Zm-1 .4c0 -.2 .1 -.3 .2 -.4c.2 0 .4 .2 .4 .4c0 .1 -.2 .2 -.4 .2c-.1 0 -.2 -.1 -.2 -.2Zm0 -2.2c0 -.1 0 -.2 .1 -.2c0 0 .1 .1 .1 .2c0 .1 0 .2 -.1 .2c0 0 -.1 -.1 -.1 -.2Zm-.7 5.2c0 -.1 0 -.2 .1 -.2c.2 0 .3 .1 .3 .2c0 .1 -.1 .2 -.2 .2c-.2 0 -.3 -.1 -.2 -.2Zm-.8 -.6c0 -.2 .1 -.3 .2 -.3c.1 0 .2 .1 .2 .2c0 .1 -.1 .2 -.3 .2c0 -.1 -.1 -.1 -.1 -.1ZM349.4 583.3q.1 -.1 .2 -.2c0 0 .1 0 .1 .1q0 .1 -.1 .2c-.1 0 -.1 -.1 -.2 -.1Zm-1.8 -1.8c0 -.1 0 -.2 .1 -.2c.3 0 .6 .2 .6 .4c0 .1 -.1 .2 -.1 .2c-.4 0 -.6 -.3 -.6 -.4Zm-1.7 1.1c0 -.2 .1 -.3 .4 -.3c.3 0 .5 0 .4 .4c0 .2 -.2 .4 -.4 .4c-.2 0 -.4 -.3 -.4 -.5Zm-39.5 26.6c0 .2 -.1 .3 -.2 .3c-.2 0 -.3 -.1 -.3 -.3c0 -.1 .2 -.2 .3 -.2c.1 0 .2 .1 .2 .2Zm4.1 -6.5c0 .1 0 .2 0 .2c0 .1 -.2 .3 -.3 .2c0 0 -.2 -.2 -.1 -.3c0 -.2 .1 -.2 .1 -.4c0 -.1 .2 -.1 .3 -.1c0 .2 0 .3 0 .4Zm1.4 -.9c0 0 0 .1 0 .1c-.3 .2 -.6 .2 -.9 .1c0 -.2 .1 -.4 .3 -.4c.2 0 .3 0 .5 0c.1 .1 .1 .2 .1 .2Zm1.4 -2.6c0 .2 -.2 .2 -.4 .2c-.2 0 -.2 -.1 -.2 -.3c0 -.2 0 -.3 .2 -.3c.3 .1 .4 .2 .4 .4Zm2 -3.8q.1 -.1 .1 -.1c.1 0 .2 0 .2 0c0 .1 -.1 .2 -.1 .2c0 0 -.1 -.1 -.2 -.1Zm.6 -1.4c0 .1 -.1 .2 -.2 .2c-.2 0 -.3 -.1 -.3 -.3c0 -.1 .1 -.2 .3 -.2c.1 0 .2 .1 .2 .3Zm8.9 -5.2c0 0 -.1 .1 -.1 0h-.1c0 0 .1 0 .1 -.1q.1 .1 .1 .1Zm1.1 -1.6c0 0 -.1 .1 -.1 .1q-.1 -.1 -.2 -.2c0 0 0 -.2 .1 -.3c0 0 .1 0 .1 .1c0 .1 .1 .3 .1 .3Zm1.6 -.8c-.1 0 -.2 .1 -.3 .2c-.2 .1 -.4 -.1 -.4 -.2c0 -.4 .2 -.6 .5 -.6c.2 .1 .3 .4 .2 .6Zm12 -3.5c-.3 0 -.5 -.2 -.5 -.5c0 -.1 .2 -.3 .4 -.3c.2 0 .4 .2 .4 .4c0 .3 -.2 .4 -.3 .4Zm-1.1 .8c0 -.2 .2 -.3 .3 -.3c.3 0 .5 .2 .4 .4c0 .1 -.2 .3 -.4 .3c-.1 -.1 -.3 -.2 -.3 -.4Zm-2.3 .4c0 -.1 .1 -.2 .1 -.2c0 0 .1 0 .1 0c.5 0 .8 0 1.2 -.1c0 0 .1 0 .2 .1c-.2 .2 -.3 .4 -.6 .7c-.3 -.1 -.7 -.1 -.9 -.2c0 0 -.1 -.1 -.1 -.3ZM332.2 585.4c0 0 0 -.1 0 -.1c0 0 .1 0 .1 .1c0 0 -.1 .1 -.1 .1c0 0 0 -.1 0 -.1Zm-1 -2.8c.2 -.1 .6 -.1 .9 .1c.1 .1 .2 .4 .1 .5c-.1 .1 -.2 .3 -.2 .5c0 .1 -.1 .1 -.2 .2c-.1 0 -.2 -.1 -.3 -.2c0 -.1 0 -.3 0 -.4c-.1 -.1 -.2 -.2 -.3 -.2c-.1 -.3 -.1 -.5 0 -.5Zm-3.1 .7c0 -.2 0 -.4 .3 -.4c.3 0 .5 .2 .5 .3c0 .2 -.2 .4 -.5 .4c-.3 0 -.3 -.2 -.3 -.3ZM324 581.7c0 -.1 0 -.2 .1 -.2c.1 0 .2 0 .2 .2c0 .1 -.1 .2 -.2 .2c0 .1 -.1 -.1 -.1 -.2Zm-2.4 -.2c0 -.2 0 -.3 .2 -.3c.3 0 .5 0 .5 .2c.1 .1 .1 .3 0 .5c-.1 .2 -.4 .1 -.6 .1c0 0 -.1 -.1 -.1 -.1q0 -.1 0 -.2q0 -.2 0 -.2Zm-1.7 2.2c.1 -.1 .1 -.2 .1 -.2c.1 0 .2 0 .2 .1c0 .1 0 .3 -.2 .3q0 -.1 -.1 -.2Zm-2.1 -.5c0 0 0 -.1 0 -.1c0 0 .1 0 .1 0c0 0 0 .1 0 .1h-.1ZM317 581.9c.1 -.1 .2 -.2 .3 -.2c.1 0 .2 0 .2 .1c0 .1 0 .2 -.2 .2c-.1 0 -.2 -.1 -.3 -.1Zm-6.4 -.6c0 -.1 .1 -.2 .2 -.2c.2 0 .2 .2 .2 .3q0 .1 -.2 .1c-.1 0 -.2 0 -.2 -.2Zm-4.8 1.8c.1 0 0 0 0 0Zm-.3 -1.7c0 -.2 .2 -.3 .3 -.3c.2 0 .3 .1 .3 .3c0 .1 -.1 .2 -.4 .2c-.1 -.1 -.2 -.1 -.2 -.2Zm-6.8 2c0 -.1 .1 -.1 .1 -.2q.1 .1 .1 .2c0 .1 -.1 .1 -.1 .1q-.1 0 -.1 -.1Zm-.4 -1.8c0 -.2 .1 -.3 .4 -.5c.2 -.1 .5 -.1 .7 -.3c.1 -.1 .2 0 .3 0c0 .1 .1 .2 .1 .4c-.1 .3 -.1 .5 -.3 .8c-.1 .3 -.4 .3 -.6 .3c-.3 0 -.6 -.2 -.6 -.7Zm-2.1 1.6c0 -.1 .1 -.2 .2 -.2c.2 0 .4 .1 .4 .2c0 .2 -.1 .3 -.3 .3c-.1 0 -.3 -.1 -.3 -.3Zm-.4 -3.9c0 -.1 .2 -.2 .3 -.2c.2 0 .3 0 .3 .2c0 .2 -.1 .3 -.3 .3c-.2 -.1 -.4 -.2 -.3 -.3Zm-5.2 3.8c-.1 0 0 -.2 .1 -.2q.1 0 .2 .1c.1 .1 0 .2 -.1 .2c-.1 -.1 -.2 -.1 -.2 -.1ZM275.9 582c0 -.2 .1 -.3 .2 -.3c.2 0 .3 .1 .3 .2c0 .2 -.1 .3 -.3 .4c-.1 0 -.2 -.1 -.2 -.3Zm-.6 1c.1 -.2 .2 -.2 .3 -.1c.1 0 .1 .1 .3 .2q-.2 0 -.3 0c-.1 0 -.2 0 -.3 -.1Zm-5.2 5c0 0 0 -.1 .2 -.1c.1 0 .2 .1 .2 .1c0 .1 -.1 .1 -.1 .3c-.2 -.1 -.3 -.2 -.3 -.3Zm-2 -.8c.2 0 .3 0 .3 .2c0 .1 -.1 .2 -.2 .3c-.1 -.1 -.2 -.2 -.2 -.3c-.1 -.2 0 -.2 .1 -.2Zm-6.8 5.3c0 -.1 0 -.2 0 -.3c.1 -.2 .3 -.4 .6 -.4c.3 0 .4 .3 .5 .5c0 .4 -.1 .6 -.3 .8c-.1 .1 -.2 .1 -.4 .1c-.3 0 -.4 -.3 -.4 -.7Zm-2 1.1c0 0 .1 0 .1 0c0 0 0 .1 0 .1l-.1 -.1c.1 .1 0 0 0 0ZM258.1 596.5c0 -.1 .1 -.2 .3 -.2c.2 0 .3 .2 .2 .3c0 .1 -.1 .2 -.3 .2c-.1 0 -.2 -.1 -.2 -.3ZM257.1 599c.1 .1 0 .2 -.1 .2c0 0 -.1 0 -.1 -.1c-.1 -.1 0 -.2 .1 -.2c0 0 .1 .1 .1 .1Zm.4 -1.4c0 -.1 .1 -.1 .2 -.1c0 .1 .1 .2 0 .2c0 .1 -.1 .1 -.1 .1c-.1 0 -.2 -.1 -.1 -.2Zm-.8 3.7c-.1 -.2 .1 -.4 .4 -.5c.2 -.1 .3 .1 .3 .3c0 .1 0 .2 0 .3c0 .2 -.1 .3 -.3 .3c-.1 0 -.3 -.2 -.4 -.4Zm-.3 1.4c0 -.1 .1 -.1 .1 -.1q.1 -.1 .3 -.2q-.2 .3 -.4 .3Zm-15.9 5.6q-.1 0 0 0c-.1 -.1 0 -.1 0 0c0 -.1 0 0 0 0Zm2.6 -2.6c0 .1 -.1 .1 -.1 .2c0 0 -.1 -.1 -.1 -.1c0 0 0 -.1 .1 -.1c0 0 .1 0 .1 0Zm5.7 -3.1c0 .1 -.2 .2 -.3 .2c-.3 0 -.5 -.2 -.5 -.4c0 -.2 .2 -.4 .4 -.4c.2 0 .5 .3 .4 .6Zm2.8 -2.7c-.1 .1 -.1 .2 -.2 .3c0 0 -.1 0 -.1 0c-.1 0 -.3 -.2 -.3 -.4c0 -.1 .1 -.2 .2 -.3c.1 -.1 .3 -.1 .4 0c0 .2 0 .3 0 .4Zm403.8 -2c-.2 0 -.4 -.1 -.5 -.2c-.1 -.2 -.2 -.4 -.1 -.7q0 -.1 0 -.2l-1.4 -1.1c.1 .1 .1 .3 .1 .4c-.1 .2 -.3 .4 -.6 .4c-.3 0 -.5 -.1 -.5 -.4c0 -.5 .2 -.7 .7 -.7q.1 0 .1 0l-1.6 -1.2c0 0 0 .1 0 .1c0 0 0 .1 0 .1q-.1 .1 -.2 .1c-.2 .1 -.4 .2 -.6 .1c-.1 -.1 -.1 -.2 -.1 -.4c0 -.2 .1 -.4 .3 -.4l-13 -9.6c-.1 .1 -.2 .2 -.3 .2c-.3 -.1 -.5 -.5 -.4 -.6l-.3 -.2h.4q.1 -.1 .2 -.1q.1 0 .2 .1l5.3 -.2c.1 0 .2 -.1 .3 -.1c0 -.2 0 -.3 .1 -.5c.1 -.3 .4 -.3 .6 -.1c.1 .1 .1 .2 .3 0c.2 .2 .1 .4 .3 .6H646c0 -.1 .1 -.1 .2 -.1c.1 0 .2 0 .3 .1h1.3c0 0 .1 0 .1 0h.8q0 -.1 0 -.2c.3 .2 .4 .2 .7 .1q.4 -.1 .6 .1l3 -.1l10.6 -.2v-.1c0 0 .1 -.1 .1 -.1c.1 0 .2 .1 .2 .2h1.3l.1 -.1q.1 0 .2 .1h.7v-.1c0 -.3 0 -.6 0 -.7c.2 -.1 .2 -.2 .3 -.4c.1 -.3 .3 -.3 .5 -.2c.1 .1 .3 .3 .5 .5c.2 .2 .3 .3 .6 .4c.1 0 .1 .1 .2 .1c.1 .1 .2 .2 .2 .3h1c0 -.3 0 -.5 0 -.7c0 -.1 0 -.2 -.1 -.4c0 0 -.2 0 -.3 -.1c0 0 -.1 .1 -.1 .1q0 .1 -.1 .2c-.1 .3 -.3 .3 -.6 .3c-.2 -.1 -.4 -.3 -.3 -.6c0 -.1 .1 -.2 .1 -.3c.1 -.2 .3 -.4 .5 -.4c.1 0 .3 0 .5 -.1c0 -.1 -.1 -.2 -.2 -.2h-3.5c0 .1 0 .3 0 .4c0 .2 -.1 .3 -.3 .3c-.4 0 -.7 -.2 -.9 -.6c0 -.1 .1 -.1 .1 -.1H650c.2 .5 .2 .6 .7 .7c0 .1 0 .3 0 .5c-.2 .2 -.3 .4 -.6 .5c-.1 0 -.2 -.1 -.2 -.1c0 0 0 -.1 0 -.3c0 -.1 0 -.2 -.1 -.3c-.3 -.1 -.3 -.4 -.5 -.6c-.1 -.2 -.1 -.3 0 -.4h-1c0 .1 -.1 .1 -.1 .2c0 -.1 -.1 -.1 -.1 -.2h-2c0 .1 0 .2 0 .3c.2 .1 .4 .2 .6 .2c0 .3 0 .5 0 .9c0 .2 -.1 .2 -.2 .2c-.4 0 -.7 0 -1 0q-.1 0 -.3 -.2c.1 0 .2 -.1 .4 -.1c.3 0 .3 -.2 .4 -.4c.2 -.2 0 -.7 -.3 -.7c-.2 0 -.5 0 -.6 -.1c0 0 -.1 0 -.1 0c-.1 .1 -.2 .1 -.3 0c0 -.1 -.1 -.1 -.1 -.1h-9.8q-.1 0 -.2 0q-.1 0 -.1 0H619.9c-.1 .1 -.3 0 -.4 0h-5.3L634 572.5c0 -.2 0 -.3 0 -.4c0 -.1 .1 -.2 .3 -.2c.1 0 .2 .1 .2 .1c0 .1 0 .2 0 .3l-.1 .1l11.9 -4.9h-.1c0 -.3 .2 -.4 .4 -.4c.1 0 .1 .1 .2 .2l6.3 -2.6l1.6 -2.3l-8.8 3.3c0 .2 .1 .2 .3 .3c.2 0 .4 0 .5 0c.2 0 .3 .1 .3 .2c0 .1 0 .3 -.1 .4c-.1 .2 -.2 .3 -.3 .2c-.4 -.1 -.7 -.1 -.9 0c-.2 .1 -.4 -.1 -.5 -.3c0 -.3 -.1 -.4 -.1 -.7l-10.4 4.1c0 .2 -.1 .2 -.3 .3c0 0 -.1 0 -.2 0c-.1 0 -.2 0 -.3 -.1l-1.7 .7l3.1 -8.8c0 0 -.1 -.1 0 -.2q0 -.1 .1 -.2v.1l4.1 -11.6h-1l-4.1 9c.2 .1 .4 .3 .5 .5c0 .1 0 .2 0 .2c0 .4 -.1 .6 -.3 .7c-.2 .3 -.6 .4 -.9 .2l-5.4 11.6L615 577.4c0 0 .1 0 .2 0c.3 0 .4 .4 .2 .7c-.1 .1 -.2 .2 -.4 .2c-.4 .3 -.7 .1 -.8 -.3c0 -.1 0 -.3 0 -.4l-.7 .3c-.1 .2 -.3 .2 -.6 .3l-7.6 2.8l-15.8 .1c0 .1 -.1 .2 -.2 .2c-.2 .1 -.3 .1 -.5 0q-.1 -.1 -.2 -.2h-10c-.1 .2 -.2 .2 -.4 .2c-.2 0 -.3 -.1 -.5 -.2l-21.2 .1c.1 .1 .2 .1 .4 .2c.2 .1 .3 .4 .2 .7c-.1 .2 -.3 .2 -.5 .3c-.4 .1 -.7 0 -.9 -.3c-.3 -.3 -.2 -.7 .1 -.8h-2l1.9 -.9c-.1 -.1 -.1 -.3 0 -.4c.2 -.2 .2 -.5 .2 -.9c0 -.4 .1 -.8 .1 -1.2c0 -.2 .2 -.4 .4 -.5c.2 -.1 .6 0 .7 .3c.1 .1 .1 .3 .1 .5c.1 .1 .2 .1 .3 .2c.1 .1 .1 .4 0 .6c-.1 .1 -.2 .1 -.4 .1c-.1 -.1 -.2 -.1 -.3 -.2c-.1 -.1 -.3 -.1 -.3 0c0 .1 -.1 .2 -.1 .2c0 .1 .1 .2 .1 .4c0 .2 0 .4 0 .5l14.6 -7c0 0 0 -.1 0 -.1c0 -.2 .1 -.3 .3 -.3c.2 0 .3 0 .4 .1l9.9 -4.8l-1.2 -1.2l-6.3 2.6c.2 0 .4 .1 .4 .4c0 .4 -.2 .6 -.5 .6c-.3 0 -.6 -.2 -.6 -.6c0 -.1 .1 -.2 .1 -.3l-1.7 .7c-.1 .3 -.2 .4 -.4 .4c-.1 0 -.2 -.1 -.3 -.2l-4.8 2c0 0 0 .1 0 .2c-.1 0 -.2 0 -.2 0l-1.6 .6c0 .1 0 .2 0 .2c-.2 .5 -.8 .8 -1.3 .8c-.3 0 -.4 -.1 -.6 -.3l-4.1 1.7c.1 0 .3 0 .3 .1c.1 .1 .2 .2 .2 .2c0 .2 -.1 .4 -.2 .4c-.2 0 -.5 -.1 -.6 -.3c-.1 -.1 0 -.3 .1 -.4l-13.8 5.7H531.3c0 .1 .1 .1 .1 .2c0 .1 -.1 .4 -.3 .5c-.4 .1 -.7 -.1 -.8 -.4c0 -.1 0 -.2 0 -.2c0 0 .1 -.1 .1 -.1l-20.6 .1c0 .1 0 .2 0 .2c-.2 .2 -.2 .6 -.1 .8c0 0 0 .1 -.1 .2c-.1 0 -.3 -.1 -.3 -.1c-.1 0 -.3 -.1 -.4 -.1c-.1 -.2 -.1 -.4 -.1 -.7c0 -.1 0 -.2 -.1 -.3H504q0 .1 .1 .2c0 0 -.1 .1 -.1 .3c0 0 -.1 0 -.1 0c-.1 -.2 -.1 -.3 -.1 -.4h-8.9c.2 .1 .5 0 .6 .3c0 .3 -.3 .4 -.5 .5c-.1 .1 -.3 .1 -.3 .1c-.3 0 -.5 -.3 -.4 -.4c0 -.2 .3 -.4 .5 -.4H484.2c0 0 -.1 .1 -.1 .2c-.1 -.1 -.2 -.2 -.4 -.2h-2.2c0 0 -.1 0 -.1 0H466.7l-7.3 3.3l14.5 -.1q-.1 -.1 -.2 -.2c0 -.1 -.1 -.2 -.1 -.3c0 -.1 .1 -.2 .2 -.3c.1 0 .2 0 .3 0c.3 .2 .3 .4 .3 .7h4.5v-.1c0 -.1 .1 -.2 .2 -.2c.1 0 .1 .1 .2 .1v.1h1.4c.1 -.1 .2 -.1 .2 -.2c.2 -.1 .3 0 .4 .1q.1 0 .3 .1c.3 -.6 .3 -.9 .2 -1.3c-.1 0 -.1 .1 -.2 .1c-.2 .1 -.3 .2 -.5 .3c-.1 0 -.2 0 -.2 -.1c0 -.2 .2 -.4 .3 -.5c.1 -.2 .2 -.4 .4 -.6c.1 -.1 .2 -.3 .4 -.5c.1 .1 .2 .1 .2 .2c.2 .3 .3 .7 .6 1c.1 .2 .1 .4 0 .6c-.1 .2 -.1 .4 -.1 .6c0 .1 0 .2 0 .2H484c0 -.1 0 -.2 .1 -.3c0 -.2 .1 -.3 .2 -.3c.1 -.1 .3 -.1 .4 0c.1 0 .1 .2 0 .3c-.1 .1 -.2 .2 -.3 .3h2.1c0 -.1 0 -.2 0 -.3c.1 -.2 .1 -.3 .3 -.3c.2 0 .4 0 .4 .2c0 .1 .1 .2 .2 .3c0 0 .1 -.1 .1 -.1q0 -.1 0 -.2c0 -.1 0 -.2 0 -.3c0 -.2 .2 -.3 .4 -.3c.2 0 .3 .1 .3 .3c-.1 .2 -.2 .5 -.3 .7c0 .1 -.1 .1 -.1 .2l12.8 -.1c.1 -.2 .1 -.3 .2 -.5V584c.1 -.1 .3 -.2 .4 -.2c.1 0 .2 .1 .3 .2c0 .1 0 .3 0 .4c0 0 0 .1 0 .1h4.3c0 0 .1 -.1 .1 -.1c0 0 0 .1 .1 .1h.6c0 0 0 -.1 0 -.1c.1 0 .1 .1 .1 .1l12.7 -.1c0 0 0 -.1 0 -.1c0 -.2 .1 -.3 .2 -.3c.2 0 .3 .1 .3 .4v.1h4.5c-.1 0 -.2 -.1 -.3 -.1c0 -.7 0 -1.3 0 -2.1c.4 0 .7 0 .7 .4c.1 .3 .2 .4 .5 .5c.3 .1 .2 .4 .2 .6c-.1 .1 -.1 .2 -.3 .3c-.1 .1 -.3 .3 -.4 .4c.1 -.1 .2 -.2 .3 -.2c.1 0 .2 .1 .2 .1H527c-.1 0 -.2 -.1 -.2 -.2c0 -.1 .1 -.3 .3 -.3c.1 0 .1 .1 .2 .1c0 .2 -.1 .3 -.1 .4H531c0 -.2 0 -.4 -.2 -.5c-.1 0 0 -.2 .1 -.3c.3 -.1 .5 0 .8 0c.1 .3 .2 .4 .3 .7c0 .1 0 .2 0 .2l10.7 4c0 0 0 -.1 0 -.1c0 -.2 0 -.3 .2 -.3c.1 0 .2 .1 .3 .1c0 .2 -.1 .3 -.2 .3l5.7 2.1c.1 -.3 .2 -.7 .6 -.9c.1 .4 .1 .7 0 1c0 0 0 .1 -.1 .1l12.4 4.5l.9 -2l-7.1 -2.9c0 0 -.1 0 -.1 0l-7.9 -3.2c.1 0 .1 .1 .1 .3c0 0 0 .1 -.1 .1c-.2 0 -.3 -.1 -.3 -.3c0 -.1 .1 -.1 .2 -.1l-1.2 -.5c0 0 0 .1 0 .1q0 .1 -.1 .2c-.1 .2 -.3 .3 -.3 .7c0 .2 -.1 .3 -.3 .3c-.2 0 -.3 0 -.4 -.1c-.1 -.1 -.2 -.4 -.1 -.6q.1 -.1 .2 -.1c0 -.2 .2 -.4 .3 -.5q.1 -.1 .2 -.1l-5.8 -2.3h7c0 0 0 -.1 0 -.1c0 -.2 .2 -.3 .4 -.3c.2 0 .3 .2 .3 .4l21 -.1h-.2l17.1 5.6c.3 -.2 .9 -.2 1.1 0c0 .1 .1 .3 .1 .4l1.6 .5l5.7 7.4c0 -.2 .2 -.3 .4 -.2c.1 0 .2 0 .3 .1c.1 .1 .2 .3 .2 .5c0 .1 -.1 .3 -.2 .4q-.1 0 -.2 0L605 612.8l1.5 .1L603.1 608c-.2 .1 -.3 .2 -.5 .2c-.3 0 -.6 0 -.6 -.3c-.1 -.2 -.1 -.4 0 -.6c.1 -.2 .2 -.3 .4 -.3l-9.9 -15l13.1 4.2c.2 -.1 .4 -.1 .5 .1q.1 .1 .1 .2l.7 .2l1.2 -1.5L603 593.3c.2 .1 .2 .2 .2 .4c0 0 -.1 .2 -.3 .2c-.2 0 -.3 -.2 -.3 -.3c0 -.2 .1 -.3 .2 -.3q.1 0 .2 0L577.4 584h8.8c-.2 -.1 -.3 -.1 -.4 -.3c-.1 -.3 -.1 -.6 .1 -.7q.1 -.1 .2 -.2c.5 -.5 .6 -.5 1.3 -.1c.1 .1 .2 .3 .3 .4c.1 .5 -.2 .8 -.4 .9H601c0 0 .1 0 .1 .1h.7c-.1 -.2 -.2 -.5 -.1 -.9c0 -.2 .3 -.3 .4 -.2c.3 .1 .5 .1 .6 .4c0 .1 0 .2 .1 .3c0 .2 -.1 .2 -.2 .3l26.5 -.1q.1 0 .2 0c.1 -.3 .4 -.4 .6 -.2c.1 .1 .2 .2 .2 .2h1.7l3.5 2.5c0 -.1 .1 -.1 .1 -.2c.3 -.2 .7 -.3 .8 -.1c.1 .1 .2 .1 .2 .2c.1 .1 .1 .3 .1 .4c0 .1 0 .3 0 .4l13.9 9.2l3.3 10.8h1.2l-1.7 -8.9l6.4 4.4c0 -.2 .1 -.3 .1 -.5c.1 .3 .2 .4 .3 .5c0 .1 0 .2 0 .3l3.3 2.3q.3 -.7 1 -.8c0 .1 .1 .2 .1 .3c0 .2 0 .4 .1 .6c0 .1 .1 .2 .1 .3c0 .2 0 .3 -.1 .5l9.3 6.4l.7 -1L656 597.8c-.4 0 -.4 .1 -.6 .1ZM669 582.4c.1 0 .2 0 .4 0c-.2 .1 -.3 .2 -.4 .2c0 0 -.1 -.1 0 -.2c-.1 .1 -.1 0 0 0Zm-3.8 -.2c.1 -.1 .2 -.1 .2 0c.1 .1 .2 .1 .2 .2c-.1 .1 -.1 .2 -.2 .2c0 0 -.1 -.1 -.2 -.1c0 -.1 -.1 -.2 0 -.3Zm-1.4 -.3c0 0 .1 0 .1 0c0 0 0 .1 -.1 .1v-.1c0 .1 0 0 0 0Zm-2 -.3c.2 -.1 .2 -.3 .4 -.3c.2 .1 .2 .2 .3 .4c0 .1 .1 .2 .1 .3c-.1 .2 -.2 .3 -.4 .5c-.3 -.1 -.5 -.2 -.6 -.6c0 0 .1 -.2 .2 -.3Zm-9.7 -.7q0 .1 0 .2c0 0 -.1 0 -.1 .1q0 -.1 0 -.2c0 -.1 .1 -.1 .1 -.1Zm-3 .6v.1c0 .1 0 .3 -.1 .3c-.1 0 -.2 -.1 -.2 -.2c0 -.2 .1 -.2 .3 -.2Zm-.5 1q.1 0 0 0c.1 0 .1 .1 0 0c.1 .1 0 .1 0 0ZM643.7 581.2c.1 -.1 .2 -.1 .3 0c.1 .1 .2 .2 .3 .3c.1 0 .1 .1 0 .2c0 .1 -.1 .1 -.1 .2c0 0 -.1 0 -.2 0c-.1 0 -.2 0 -.3 -.1c-.2 0 -.3 -.2 -.3 -.3c.1 -.1 .2 -.2 .3 -.3Zm-1.1 .6c0 0 .1 .1 .1 .1c0 0 -.1 .1 -.1 .1c0 0 0 -.1 0 -.1c0 0 0 -.1 0 -.1Zm-1.3 -.7c0 0 .1 .1 0 0c.1 .1 0 .2 0 .2c-.1 0 -.1 -.1 0 -.2c-.1 .1 -.1 0 0 0ZM641 568.8c.1 0 .3 .1 .3 .4c0 .1 -.2 .3 -.3 .3c-.2 0 -.4 -.2 -.4 -.3c0 -.3 .2 -.4 .4 -.4Zm-4.9 1.9c.1 0 .2 .2 .1 .2c0 .1 -.1 .2 -.1 .2c-.2 0 -.3 -.1 -.4 -.2c.1 -.1 .2 -.3 .4 -.2Zm-3.3 1c0 0 .1 .1 .1 .1c0 0 -.1 0 -.2 .1c0 -.1 -.1 -.1 -.1 -.1c.1 0 .1 -.1 .2 -.1Zm-.5 -7.1c.1 0 .1 .1 .2 .2c0 .2 -.1 .2 -.2 .2c-.1 0 -.1 -.1 -.1 -.2c-.1 -.2 0 -.3 .1 -.2Zm-1.4 8.7c0 -.1 .2 -.2 .2 -.2c.1 0 .1 .1 .2 .3q-.1 0 -.2 .1c-.1 0 -.2 -.1 -.2 -.2Zm-.2 -5c0 0 .1 .1 .2 .1q-.1 .1 -.1 .1c-.1 0 -.2 0 -.2 -.1q0 -.1 .1 -.1Zm-.2 1.4c.2 0 .3 .1 .2 .4q-.1 0 -.2 .1c-.1 0 -.2 -.1 -.1 -.2c-.1 -.2 0 -.3 .1 -.3Zm-8.7 6.8c.1 -.1 .3 -.2 .5 -.1c.2 .1 .4 .3 .6 .6c-.3 .2 -.6 .2 -.8 .2c-.2 0 -.3 -.1 -.4 -.3c0 -.2 0 -.3 .1 -.4Zm-6.3 2.8c0 0 0 .1 .1 .1c0 0 -.1 .1 -.1 .1c0 0 0 -.1 -.1 -.1c0 -.1 .1 -.1 .1 -.1ZM580.4 567.8c.1 0 .2 .1 .3 .1c-.1 .1 -.2 .2 -.3 .2c0 0 -.1 -.1 -.2 -.1c0 -.1 .1 -.2 .2 -.2Zm-8.7 2.8c.1 -.1 .2 -.1 .4 -.2c.3 0 .5 .1 .5 .4c.1 .2 -.1 .4 -.3 .5c-.1 .1 -.3 .1 -.4 .1c-.1 0 -.3 -.1 -.4 -.3c0 -.1 0 -.3 .2 -.5Zm-5.4 2.1c.1 -.1 .2 -.1 .4 -.1c.1 .1 .1 .2 0 .4c0 0 -.1 .1 -.1 .1c0 0 -.1 0 -.1 0c-.2 -.2 -.3 -.3 -.2 -.4Zm-4 3.8c.1 0 .2 .1 .2 .1c0 .2 -.2 .4 -.3 .4c0 0 -.2 -.1 -.2 -.3c.1 -.1 .2 -.3 .3 -.2ZM561 577c.1 0 .1 .1 .1 .2c0 0 0 .1 0 .1c-.1 .2 -.6 .4 -.7 .2c-.1 0 -.1 -.1 -.1 -.1c.1 -.3 .4 -.6 .7 -.4Zm-95.9 6.5c-.1 0 -.2 -.1 -.2 -.2c0 -.1 .1 -.1 .2 -.2c0 0 .1 .1 .2 .1c.1 .2 -.1 .3 -.2 .3ZM467 583c-.1 0 -.2 -.1 -.2 -.2c0 -.1 .1 -.1 .2 -.1c0 0 .1 .1 .1 .1q0 .1 -.1 .2Zm8.4 .1c-.2 .1 -.3 .1 -.5 0c-.2 -.1 -.4 -.2 -.5 -.5c-.2 -.2 -.3 -.4 -.4 -.6c0 -.1 -.1 -.2 -.1 -.3c0 -.1 .1 -.2 .2 -.2c0 0 .2 0 .3 0c0 0 0 .1 .1 .1q.7 -.2 1.1 .3c.2 .4 .2 .7 -.2 1.2Zm.8 -.8c-.1 .1 -.2 0 -.2 -.2c0 -.1 0 -.3 .2 -.3c.1 0 .2 .1 .3 .2c-.1 .2 -.2 .3 -.3 .3Zm3.9 1.6c-.1 0 -.3 -.1 -.4 -.3c-.1 -.1 -.1 -.3 -.2 -.5c-.3 0 -.6 -.2 -.9 -.3c.1 -.3 .2 -.5 .5 -.5c.1 0 .2 0 .4 0c0 0 .1 -.2 .1 -.3c.1 -.2 .3 -.2 .4 -.2c.1 .1 .2 .3 .1 .5c0 0 -.1 .1 -.2 .2c-.2 .2 -.2 .5 .1 .6c.1 .1 .3 .3 .3 .6c.1 .2 0 .2 -.2 .2Zm2.7 -2c-.1 0 -.3 -.1 -.3 -.3c0 -.1 .1 -.1 .3 -.1c.1 0 .2 0 .2 .2c0 .1 -.1 .2 -.2 .2Zm2.2 1.5c0 .1 -.1 .1 -.2 .1c-.3 0 -.6 -.1 -.7 -.4c-.1 -.2 -.1 -.3 -.2 -.5c0 -.1 0 -.2 .2 -.3c0 0 0 .1 0 .2c.1 .3 .3 .6 .6 .6c0 0 .1 .1 .1 .1c.2 0 .2 .1 .2 .2Zm.8 .6v-.1v.1c0 -.1 0 0 0 0Zm1.8 -1.1c-.2 .2 -.4 .2 -.5 0c-.1 -.2 -.3 -.4 -.5 -.4c-.2 0 -.3 -.2 -.3 -.3c-.1 -.3 .1 -.5 .4 -.5c.1 0 .3 .1 .5 .1c.1 0 .2 .2 .2 .2c.1 .1 .2 .2 .3 .3c0 .3 0 .4 -.1 .6Zm.6 .1c0 0 0 -.1 -.2 -.2c.1 -.1 .2 -.2 .2 -.2c0 0 .1 .1 .1 .1c.2 .2 .1 .3 -.1 .3Zm3.6 -.6c-.1 0 -.2 -.1 -.2 -.1c0 -.1 .1 -.1 .1 -.3c.1 .1 .2 .2 .2 .2c0 .1 0 .2 -.1 .2Zm1.3 1.9c0 0 0 -.1 0 0q0 -.1 0 0c0 -.1 0 0 0 0Zm-.4 -1q-.1 0 -.2 0c-.2 0 -.2 -.2 -.2 -.2c0 -.2 .1 -.3 .3 -.2c.2 0 .4 .1 .6 .2q.1 0 .1 .1c-.2 -.1 -.4 0 -.6 .1Zm4.5 -1.4c.1 0 .2 .1 .2 .2c0 .1 -.1 .1 -.2 .2q-.1 -.1 -.1 -.2c0 -.1 0 -.2 .1 -.2Zm.9 1.2c-.1 .2 -.3 .3 -.5 .5c-.2 .2 -.4 .2 -.6 0c-.1 -.1 -.3 -.2 -.2 -.4c0 0 .1 -.1 .1 -.1c.3 0 .6 -.1 .7 -.4c.1 -.1 .1 -.2 .3 -.2c.1 0 .2 .1 .2 .3c.1 .2 .1 .3 0 .3Zm2.8 .2c-.1 0 -.2 -.1 -.2 -.2c0 0 .1 -.1 .2 -.1c.1 0 .1 .1 .2 .1c-.1 .1 -.1 .2 -.2 .2Zm4.4 .6c-.1 0 -.2 0 -.3 0c-.1 0 -.3 0 -.3 -.1c0 0 0 -.1 0 -.1c.3 -.1 .5 -.1 .6 .2c0 -.1 0 0 0 0Zm.9 0q-.1 .1 -.2 0c-.1 0 -.1 -.1 -.1 -.2c0 -.2 .2 -.4 .3 -.5c.2 0 .4 .1 .4 .3c-.1 .3 -.2 .4 -.4 .4Zm.9 -.3q-.1 0 0 0c-.1 0 0 0 0 0Zm3.3 -.3c-.1 0 -.1 -.1 -.1 -.1c0 0 .1 -.1 .1 -.1c.1 0 .1 .1 .2 .1c-.1 .1 -.2 .1 -.2 .1Zm2.2 .4c0 0 0 -.1 0 -.1c0 -.1 0 -.2 0 -.2c.1 0 .3 .1 .5 .1c-.2 .2 -.4 .2 -.5 .2Zm2.1 -1.4c-.1 0 0 0 0 0Zm3.5 .8c0 .1 -.1 .1 -.2 .1c-.3 0 -.5 -.1 -.6 -.4c.3 -.1 .6 0 .7 .2q.1 .1 .1 .1Zm-.1 -.5c-.1 0 -.2 0 -.2 -.1c0 -.1 .1 -.2 .2 -.2q.1 0 .2 .1c-.1 .1 -.2 .2 -.2 .2ZM559.6 593c.1 0 .2 .2 .2 .3c0 .2 -.1 .4 -.2 .4c-.2 0 -.3 -.1 -.3 -.3c0 -.2 .1 -.3 .3 -.4Zm-5.3 -1.5c.1 -.2 .3 -.2 .4 -.4c.2 0 .4 .1 .4 .2c0 .3 .1 .5 .2 .8c.1 .1 -.1 .2 -.3 .3c-.2 -.2 -.4 -.3 -.6 -.5c-.2 -.1 -.2 -.3 -.1 -.4Zm-2.4 -2.3c.2 0 .4 .2 .4 .4c0 .1 -.2 .3 -.5 .3c-.2 0 -.3 -.2 -.3 -.3c.1 -.3 .2 -.4 .4 -.4Zm-2.8 -.7c.1 0 .3 .1 .3 .3c0 .1 -.2 .2 -.2 .2c-.2 0 -.3 -.2 -.3 -.3c-.1 -.1 0 -.2 .2 -.2Zm-14.6 -4.2c-.4 -.2 -.5 -.3 -.6 -.5c-.1 -.2 0 -.4 .2 -.4c.2 -.1 .3 -.1 .4 .1c0 .2 0 .5 0 .8Zm10.4 -.6c-.3 0 -.5 -.2 -.5 -.4c0 -.2 .2 -.4 .5 -.4c.2 0 .4 .2 .4 .3c0 .3 -.2 .5 -.4 .5Zm1 -1.6c0 .2 -.1 .2 -.3 .2c-.2 0 -.3 0 -.3 -.3c0 -.2 0 -.4 .2 -.5c.1 0 .3 0 .4 0c0 .2 0 .4 0 .6Zm1 -1.1c-.2 0 -.2 -.1 -.2 -.2q0 -.1 .1 -.1c.1 0 .3 0 .2 .1c.1 .1 0 .2 -.1 .2Zm1.4 .4q-.1 0 -.1 -.1q0 -.1 0 -.2c0 0 .1 0 .1 0q0 .2 0 .3Zm2.2 2c-.1 0 -.2 -.1 -.2 -.2c0 -.1 .1 -.2 .2 -.1c.1 0 .2 0 .3 .1c-.1 .1 -.2 .2 -.3 .2Zm.3 -2.8c-.1 .3 -.3 .4 -.7 .2q-.1 -.1 -.1 -.3c0 -.4 .2 -.5 .6 -.4c.1 0 .2 .2 .2 .2q0 .2 0 .3Zm.8 .3c-.2 0 -.3 -.1 -.4 -.2c0 -.2 .2 -.4 .4 -.4c.1 0 .2 .2 .2 .4c.1 .1 -.1 .2 -.2 .2Zm.2 -2.2c-.2 0 -.2 -.1 -.2 -.2c0 -.1 .1 -.2 .2 -.2c.1 0 .2 .1 .1 .2c0 .1 -.1 .2 -.1 .2Zm.6 5.2c0 0 -.1 -.1 -.1 -.2c0 -.1 .1 -.2 .2 -.2c0 .1 .1 .1 .2 .2c-.1 .1 -.2 .2 -.3 .2Zm.8 -.8c-.2 0 -.3 0 -.3 -.2c0 -.1 .1 -.2 .2 -.2c.1 0 .1 .1 .1 .3c.1 .1 0 .1 0 .1ZM559.6 583.4c0 0 -.1 -.1 -.1 -.2c0 0 .1 -.1 .1 -.1c.1 0 .1 .1 .1 .2c0 0 -.1 .1 -.1 .1Zm1.4 -1.5c0 -.1 -.1 -.1 -.1 -.2c0 -.2 .3 -.4 .5 -.4c.1 0 .2 .1 .2 .2c-.1 .1 -.3 .4 -.6 .4Zm1.8 1.2c-.2 0 -.4 -.2 -.4 -.4c0 -.3 .1 -.4 .4 -.4c.2 0 .4 0 .4 .3c.1 .2 -.2 .5 -.4 .5ZM602.9 609c.2 0 .3 .1 .3 .2c0 .1 -.1 .3 -.3 .3c-.1 0 -.2 -.1 -.2 -.3c0 -.1 .1 -.2 .2 -.2Zm-4.2 -6.7c0 .1 .2 .1 .2 .1q.1 .2 .2 .4c0 .2 -.1 .3 -.2 .3c-.2 0 -.2 -.1 -.2 -.2c0 -.1 0 -.2 0 -.2c0 -.1 0 -.2 0 -.4Zm-1.4 -.7c.2 0 .4 -.1 .5 0c.1 .1 .3 .2 .2 .4c-.2 .1 -.5 .1 -.8 -.1q-.1 -.1 -.1 -.1c0 0 .2 -.1 .2 -.2Zm-1.1 -2.7c.1 0 .2 .1 .2 .3c0 .2 -.1 .3 -.2 .3c-.2 0 -.4 -.1 -.4 -.2c0 -.3 .2 -.4 .4 -.4Zm-2.6 -3.4c0 0 -.1 -.1 -.1 -.2c0 0 .1 -.1 .2 0q.1 0 .1 .1c-.1 0 -.1 .1 -.2 .1Zm-.1 -1.8c.2 0 .3 .1 .3 .3c0 .1 -.1 .3 -.3 .3c-.1 0 -.2 -.1 -.2 -.2c0 -.3 .1 -.4 .2 -.4Zm-9.1 -4.9c0 0 .1 0 .1 0c0 0 0 .1 -.1 .1c0 0 -.1 0 -.1 0q.1 -.1 .1 -.1Zm-1.1 -1.9c0 0 .1 0 .2 -.1c0 .1 .1 .2 .1 .3c-.1 .1 -.2 .1 -.3 .2c0 0 0 -.1 0 -.1c0 0 0 -.2 0 -.3Zm-1.5 -1c.4 -.1 .6 .2 .6 .5c0 .2 -.2 .4 -.4 .3c-.2 -.1 -.3 -.2 -.3 -.3c-.2 -.2 0 -.5 .1 -.5Zm-12.4 -3.3c0 -.3 .1 -.4 .4 -.4c.2 0 .4 .1 .4 .3c0 .3 -.2 .5 -.5 .5c-.2 -.1 -.3 -.2 -.3 -.4Zm.9 1.4c-.1 0 -.3 -.1 -.4 -.3c0 -.2 .2 -.4 .4 -.4c.1 0 .3 .1 .3 .3c.1 .3 0 .4 -.3 .4Zm2.5 .4c-.2 .1 -.6 .1 -.9 .2c-.2 -.3 -.4 -.6 -.6 -.7q.1 -.1 .2 -.1c.4 .1 .8 .1 1.2 .1c.1 0 .2 .1 .2 .2c.2 .2 .1 .3 -.1 .3Zm1.2 1.2c0 0 -.1 0 0 0c-.1 0 0 0 0 0Zm2.9 -.1c0 0 -.1 -.1 -.1 -.1c0 0 .1 -.1 .1 -.1c0 0 .1 0 .1 .1c0 0 0 .1 -.1 .1Zm1.1 -2.6c-.1 .1 -.3 .2 -.4 .2c0 .1 0 .3 0 .4c0 .1 0 .2 -.2 .2c-.1 0 -.2 -.1 -.2 -.2c-.1 -.2 -.1 -.3 -.2 -.4c-.2 -.2 -.1 -.5 .1 -.6c.3 -.2 .5 -.1 .9 -.1c0 .2 .1 .4 0 .5Zm2.9 .7c-.3 0 -.5 -.1 -.5 -.4c0 -.2 .2 -.3 .5 -.3c.1 0 .3 .2 .3 .4c-.1 .1 -.2 .3 -.3 .3Zm4 -1.7c0 0 -.1 -.1 -.1 -.2c0 -.1 .1 -.2 .1 -.2c.1 0 .2 0 .2 .2c0 .1 -.1 .3 -.2 .2Zm2.7 -.3q0 .1 -.1 .2c-.1 0 -.1 .1 -.1 .1c-.1 .1 -.3 .1 -.5 -.1c-.1 -.2 -.1 -.3 0 -.5c.1 -.2 .3 -.2 .5 -.2c.1 0 .1 .1 .2 .3q0 .1 0 .2Zm1.4 2.2c0 0 -.1 -.1 -.1 -.3c0 -.1 .1 -.2 .1 -.1c.1 0 .1 .1 .2 .2c0 .2 -.1 .2 -.2 .2Zm2.2 -.6c0 0 0 -.1 0 -.1c0 0 .1 0 .1 0c0 0 0 .1 0 .1h-.1ZM591.9 582c-.1 0 -.2 -.1 -.2 -.2c0 -.1 .1 -.2 .2 -.1c.1 0 .1 .1 .3 .2c-.2 0 -.2 .1 -.3 .1Zm6.4 -.4c-.1 0 -.2 -.1 -.3 -.1c0 -.2 .1 -.4 .3 -.3c.1 0 .2 .1 .2 .2c.1 .1 0 .1 -.2 .2Zm5 1.5c0 0 .1 0 0 0q.1 0 0 0q.1 0 0 0Zm.1 -1.6c-.2 0 -.4 0 -.4 -.2c0 -.2 .1 -.3 .3 -.3c.2 0 .3 .1 .3 .3q0 .2 -.2 .2Zm7 2.1c0 0 -.1 -.1 -.1 -.1c0 -.1 .1 -.1 .1 -.2q.1 .1 .1 .2c0 0 -.1 0 -.1 .1Zm-.3 -1.3c-.2 0 -.5 0 -.6 -.3c-.2 -.3 -.2 -.5 -.3 -.8c-.1 -.2 .1 -.3 .1 -.4c.1 -.1 .2 -.1 .3 0c.2 .2 .5 .2 .7 .3c.3 .1 .4 .3 .4 .5c.1 .5 -.2 .7 -.6 .7Zm2.5 1.2c-.1 0 -.2 -.2 -.2 -.3c0 -.1 .1 -.2 .3 -.2c.2 0 .3 .1 .3 .2c0 .2 -.2 .3 -.4 .3Zm.6 -4c-.2 0 -.3 -.1 -.3 -.3c0 -.1 .1 -.2 .3 -.2c.2 0 .2 .1 .2 .2c0 .2 -.1 .3 -.2 .3Zm5.2 3.6c-.1 0 -.2 -.1 -.1 -.2c0 0 .1 -.1 .2 -.1c.1 0 .2 .2 .2 .3c-.2 0 -.3 0 -.3 0Zm14.5 -.8c-.1 0 -.2 -.2 -.2 -.4c0 -.1 .2 -.2 .2 -.2c.2 0 .3 .1 .3 .3c.1 .2 -.1 .3 -.3 .3Zm.7 .8c-.1 0 -.2 0 -.3 0c.1 -.1 .2 -.2 .3 -.2q.1 -.1 .2 0v.1q-.1 .1 -.2 .1Zm5.3 5.1c-.1 -.1 -.2 -.2 -.2 -.2c0 -.1 .1 -.2 .3 -.2c.1 0 .2 .1 .2 .2c-.1 .1 -.2 .2 -.3 .2Zm2.3 -.9c0 .1 -.1 .2 -.2 .3c-.1 -.1 -.2 -.2 -.2 -.3c0 -.1 .1 -.2 .2 -.2c.1 .1 .2 .1 .2 .2Zm6.3 5.9c-.1 0 -.3 0 -.4 -.1c-.3 -.2 -.4 -.5 -.4 -.8c0 -.2 .3 -.5 .6 -.5c.2 0 .5 .2 .6 .4c0 .1 0 .3 0 .3c0 .4 -.1 .7 -.4 .7Zm2.3 .5c0 0 -.1 0 0 0c-.1 0 -.1 -.1 -.1 -.1q.1 0 .1 .1c0 -.1 0 0 0 0ZM650.8 596.8c-.1 0 -.1 -.1 -.2 -.2c0 -.2 .1 -.3 .1 -.3c.2 0 .3 .1 .4 .2c0 .2 -.2 .3 -.3 .3ZM652.2 598.9c.1 0 .2 .1 .1 .2c0 0 -.1 .1 -.1 .1c-.1 0 -.2 -.1 -.1 -.2c0 0 .1 -.1 .1 -.1Zm-.6 -1.1q-.1 0 -.1 0q0 -.1 0 -.2q.1 .1 .1 .1c0 0 0 .1 0 .1Zm.4 3.9c-.2 0 -.4 -.2 -.4 -.3c0 -.1 0 -.2 0 -.3c.1 -.2 .2 -.3 .4 -.3c.3 .1 .4 .3 .4 .5c0 .2 -.2 .4 -.4 .4Zm.4 .8c.1 .1 .2 .1 .3 .1c.1 0 .1 .1 .1 .2q-.3 -.1 -.4 -.3Zm16.2 5.7c.1 .1 0 .1 0 0q0 .1 0 0c0 .1 0 0 0 0Zm-2.5 -2.5c0 0 0 .1 .1 .1c0 0 -.1 .1 -.1 .1c0 -.1 -.1 -.1 -.1 -.2q.1 0 .1 0ZM660.7 602c.2 0 .4 .2 .4 .4c0 .2 -.2 .4 -.5 .4c-.1 0 -.3 -.1 -.3 -.2c0 -.3 .2 -.6 .4 -.6Zm-3 -2.4c.1 -.1 .3 -.1 .4 0c0 .1 0 .2 .1 .3c0 .2 -.1 .3 -.2 .3c0 0 -.1 0 -.1 0c-.1 0 -.1 -.1 -.2 -.2c-.2 -.2 -.1 -.3 0 -.4Z" class="g0_8"/>
</svg>