<?xml version="1.0" encoding="UTF-8" standalone="no"?>
<!DOCTYPE svg PUBLIC "-//W3C//DTD SVG 1.1//EN"
"http://www.w3.org/Graphics/SVG/1.1/DTD/svg11.dtd">
<svg viewBox="0 0 909 1286" version="1.1" xmlns="http://www.w3.org/2000/svg" xmlns:xlink="http://www.w3.org/1999/xlink">
<defs>
<clipPath id="c0_5"><path d="M-.2 1287.1V-.2H910.1V1287.1Z"/></clipPath>
<clipPath id="c1_5"><path d="M100.6 1168.5c-18.6 0 -36.4 -7.4 -49.5 -20.5C38 1134.8 30.6 1117 30.6 1098.5V541.2c0 -18.6 7.4 -36.4 20.5 -49.5C64.2 478.6 82 471.2 100.6 471.2H811.3c18.5 0 36.3 7.4 49.5 20.5c11.3 11.3 18.3 26.1 20 41.9v572.5c-1.7 15.7 -8.7 30.5 -20 41.9c-13.2 13.1 -31 20.5 -49.5 20.5Z"/></clipPath>
<clipPath id="c2_5"><path d="M376.1 408.9c-13.3 -1.7 -25.8 -7.7 -35.4 -17.3C329.4 380.2 323 364.8 323 348.8V100c0 -16.1 6.4 -31.5 17.7 -42.9C352.1 45.8 367.5 39.4 383.6 39.4H525.9c16 0 31.5 6.4 42.8 17.7c11.3 11.4 17.7 26.7 17.8 42.7V349c-.1 16 -6.5 31.3 -17.8 42.6c-9.6 9.6 -22 15.6 -35.3 17.3Z"/></clipPath>
<clipPath id="c3_5"><path d="M383.6 409.3c-16.1 0 -31.5 -6.4 -42.9 -17.7C329.4 380.2 323 364.8 323 348.7V100c0 -16.1 6.4 -31.5 17.7 -42.9C352.1 45.8 367.5 39.4 383.6 39.4H525.9c16 0 31.4 6.4 42.8 17.7c11.4 11.4 17.7 26.8 17.7 42.9V348.7c0 16.1 -6.3 31.5 -17.7 42.9c-11.4 11.3 -26.8 17.7 -42.8 17.7Z"/></clipPath>
<clipPath id="c4_5"><path d="M94.5 411.3C81.2 409.7 68.8 403.6 59.2 394C47.9 382.7 41.5 367.3 41.5 351.2V102.4c0 -16 6.4 -31.4 17.7 -42.8C70.6 48.2 86 41.9 102 41.9H244.4c16 0 31.4 6.3 42.8 17.7c11.3 11.4 17.7 26.8 17.7 42.8V351.2c0 16.1 -6.4 31.5 -17.7 42.8c-9.6 9.6 -22.1 15.7 -35.4 17.3Z"/></clipPath>
<clipPath id="c5_5"><path d="M102 411.8C86 411.8 70.6 405.4 59.2 394C47.9 382.7 41.5 367.3 41.5 351.2V102.4c0 -16 6.4 -31.4 17.7 -42.8C70.6 48.2 86 41.9 102 41.9H244.4c16 0 31.4 6.3 42.8 17.7c11.3 11.4 17.7 26.8 17.7 42.8V351.2c0 16.1 -6.4 31.5 -17.7 42.8c-11.4 11.4 -26.8 17.8 -42.8 17.8Z"/></clipPath>
<clipPath id="c6_5"><path d="M665.3 411.3C652 409.7 639.6 403.6 630 394C618.6 382.7 612.3 367.3 612.3 351.2V102.4c0 -16 6.3 -31.4 17.7 -42.8C641.4 48.2 656.8 41.9 672.8 41.9H815.1c16.1 0 31.5 6.3 42.9 17.7c11.3 11.4 17.7 26.8 17.7 42.8V351.2c0 16.1 -6.4 31.5 -17.7 42.8c-9.6 9.6 -22.1 15.7 -35.4 17.3Z"/></clipPath>
<clipPath id="c7_5"><path d="M672.8 411.8c-16 0 -31.4 -6.4 -42.8 -17.8C618.6 382.7 612.3 367.3 612.3 351.2V102.4c0 -16 6.3 -31.4 17.7 -42.8C641.4 48.2 656.8 41.9 672.8 41.9H815.1c16.1 0 31.5 6.3 42.9 17.7c11.3 11.4 17.7 26.8 17.7 42.8V351.2c0 16.1 -6.4 31.5 -17.7 42.8c-11.4 11.4 -26.8 17.8 -42.9 17.8Z"/></clipPath>
<clipPath id="c8_5"><path d="M374.7 1226.6c-34.2 0 -62 -27.8 -62 -62c0 -34.2 27.8 -62 62 -62h160c34.3 0 62 27.8 62 62c0 34.2 -27.7 62 -62 62Z"/></clipPath>
<clipPath id="c9_5"><path d="M369.5 1226.4c-31.8 -2.7 -56.7 -29.3 -56.7 -61.8c0 -34.2 27.7 -62 61.9 -62h160c34.2 0 62 27.8 62 62c0 32.5 -25 59.1 -56.8 61.8Z"/></clipPath>
<style type="text/css"><![CDATA[
.g0_5{
fill: #FFF;
}
.g1_5{
fill: #85927D;
}
.g2_5{
fill: none;
stroke: #FFF;
stroke-width: 6.875;
}
.g3_5{
fill: none;
stroke: #FFF;
stroke-width: 4.583;
}
.g4_5{
fill: #EAE9DE;
}
]]></style>
</defs>
<g clip-path="url(#c0_5)">
<path d="M0 0H909.8V1286.8H0V0Z" class="g0_5"/>
<path d="M0 0H909.8V1286.8H0V0Z" class="g1_5"/>
</g>
<path clip-path="url(#c1_5)" d="M100.6 471.2H811.3c18.5 0 36.3 7.4 49.5 20.5c13.1 13.1 20.5 30.9 20.5 49.5v557.3c0 18.5 -7.4 36.3 -20.5 49.5c-13.2 13.1 -31 20.5 -49.5 20.5H100.6c-18.6 0 -36.4 -7.4 -49.5 -20.5C38 1134.8 30.6 1117 30.6 1098.5V541.2c0 -18.6 7.4 -36.4 20.5 -49.5C64.2 478.6 82 471.2 100.6 471.2Z" class="g2_5"/>
<image clip-path="url(#c2_5)" preserveAspectRatio="none" x="317" y="39" width="276" height="370" xlink:href="img/1.jpg"/>
<path clip-path="url(#c3_5)" d="M383.6 39.4H525.9c16 0 31.4 6.4 42.8 17.7c11.4 11.4 17.7 26.8 17.7 42.9V348.7c0 16.1 -6.3 31.5 -17.7 42.9c-11.4 11.3 -26.8 17.7 -42.8 17.7H383.6c-16.1 0 -31.5 -6.4 -42.9 -17.7C329.4 380.2 323 364.8 323 348.7V100c0 -16.1 6.4 -31.5 17.7 -42.9C352.1 45.8 367.5 39.4 383.6 39.4Z" class="g3_5"/>
<image clip-path="url(#c4_5)" preserveAspectRatio="none" x="-73" y="42" width="493" height="369" xlink:href="img/2.jpg"/>
<path clip-path="url(#c5_5)" d="M102 41.9H244.4c16 0 31.4 6.3 42.8 17.7c11.3 11.4 17.7 26.8 17.7 42.8V351.2c0 16.1 -6.4 31.5 -17.7 42.8c-11.4 11.4 -26.8 17.8 -42.8 17.8H102C86 411.8 70.6 405.4 59.2 394C47.9 382.7 41.5 367.3 41.5 351.2V102.4c0 -16 6.4 -31.4 17.7 -42.8C70.6 48.2 86 41.9 102 41.9Z" class="g3_5"/>
<image clip-path="url(#c6_5)" preserveAspectRatio="none" x="605" y="42" width="278" height="369" xlink:href="img/3.jpg"/>
<path clip-path="url(#c7_5)" d="M672.8 41.9H815.1c16.1 0 31.5 6.3 42.9 17.7c11.3 11.4 17.7 26.8 17.7 42.8V351.2c0 16.1 -6.4 31.5 -17.7 42.8c-11.4 11.4 -26.8 17.8 -42.9 17.8H672.8c-16 0 -31.4 -6.4 -42.8 -17.8C618.6 382.7 612.3 367.3 612.3 351.2V102.4c0 -16 6.3 -31.4 17.7 -42.8C641.4 48.2 656.8 41.9 672.8 41.9Z" class="g3_5"/>
<path clip-path="url(#c8_5)" d="M312.7 1102.6H596.5v124H312.7v-124Z" class="g4_5"/>
<path clip-path="url(#c9_5)" d="M374.7 1102.6h160c34.2 0 62 27.8 62 62c0 34.2 -27.8 62 -62 62h-160c-34.2 0 -61.9 -27.8 -61.9 -62c0 -34.2 27.7 -62 61.9 -62Z" class="g3_5"/>
<path d="M102.5 641.7c0 .6 -.1 1.1 -.3 1.6c-.2 .4 -.5 .9 -.9 1.3c-.4 .3 -.8 .6 -1.3 .8c-.5 .2 -1 .3 -1.5 .3c-.6 0 -1.1 -.1 -1.6 -.3c-.5 -.2 -.9 -.5 -1.3 -.8c-.4 -.4 -.6 -.9 -.8 -1.3c-.3 -.5 -.4 -1 -.4 -1.6c0 -.5 .1 -1 .4 -1.5c.2 -.5 .4 -.9 .8 -1.3c.4 -.4 .8 -.7 1.3 -.9c.5 -.2 1 -.3 1.6 -.3c.5 0 1 .1 1.5 .3c.5 .2 .9 .5 1.3 .9c.4 .4 .7 .8 .9 1.3c.2 .5 .3 1 .3 1.5Z" class="g0_5"/>
<path d="M102.5 708.2c0 .5 -.1 1 -.3 1.5c-.2 .5 -.5 .9 -.9 1.3c-.4 .4 -.8 .7 -1.3 .9c-.5 .2 -1 .3 -1.5 .3c-.6 0 -1.1 -.1 -1.6 -.3c-.5 -.2 -.9 -.5 -1.3 -.9c-.4 -.4 -.6 -.8 -.8 -1.3c-.3 -.5 -.4 -1 -.4 -1.5c0 -.5 .1 -1.1 .4 -1.6c.2 -.4 .4 -.9 .8 -1.3c.4 -.3 .8 -.6 1.3 -.8c.5 -.2 1 -.3 1.6 -.3c.5 0 1 .1 1.5 .3c.5 .2 .9 .5 1.3 .8c.4 .4 .7 .9 .9 1.3c.2 .5 .3 1.1 .3 1.6Z" class="g0_5"/>
<path d="M102.5 774.6c0 .6 -.1 1.1 -.3 1.6c-.2 .5 -.5 .9 -.9 1.3c-.4 .4 -.8 .6 -1.3 .8c-.5 .2 -1 .4 -1.5 .4c-.6 0 -1.1 -.2 -1.6 -.4c-.5 -.2 -.9 -.4 -1.3 -.8c-.4 -.4 -.6 -.8 -.8 -1.3c-.3 -.5 -.4 -1 -.4 -1.6c0 -.5 .1 -1 .4 -1.5c.2 -.5 .4 -.9 .8 -1.3c.4 -.4 .8 -.7 1.3 -.9c.5 -.2 1 -.3 1.6 -.3c.5 0 1 .1 1.5 .3c.5 .2 .9 .5 1.3 .9c.4 .4 .7 .8 .9 1.3c.2 .5 .3 1 .3 1.5Z" class="g0_5"/>
<path d="M102.5 874.3c0 .6 -.1 1.1 -.3 1.6c-.2 .5 -.5 .9 -.9 1.3c-.4 .3 -.8 .6 -1.3 .8c-.5 .2 -1 .3 -1.5 .3c-.6 0 -1.1 -.1 -1.6 -.3c-.5 -.2 -.9 -.5 -1.3 -.8c-.4 -.4 -.6 -.8 -.8 -1.3c-.3 -.5 -.4 -1 -.4 -1.6c0 -.5 .1 -1 .4 -1.5c.2 -.5 .4 -.9 .8 -1.3c.4 -.4 .8 -.7 1.3 -.9c.5 -.2 1 -.3 1.6 -.3c.5 0 1 .1 1.5 .3c.5 .2 .9 .5 1.3 .9c.4 .4 .7 .8 .9 1.3c.2 .5 .3 1 .3 1.5Z" class="g0_5"/>
<path d="M102.5 940.8c0 .5 -.1 1 -.3 1.5c-.2 .5 -.5 .9 -.9 1.3c-.4 .4 -.8 .7 -1.3 .9c-.5 .2 -1 .3 -1.5 .3c-.6 0 -1.1 -.1 -1.6 -.3c-.5 -.2 -.9 -.5 -1.3 -.9c-.4 -.4 -.6 -.8 -.8 -1.3c-.3 -.5 -.4 -1 -.4 -1.5c0 -.5 .1 -1.1 .4 -1.5c.2 -.5 .4 -1 .8 -1.3c.4 -.4 .8 -.7 1.3 -.9c.5 -.2 1 -.3 1.6 -.3c.5 0 1 .1 1.5 .3c.5 .2 .9 .5 1.3 .9c.4 .3 .7 .8 .9 1.3c.2 .4 .3 1 .3 1.5Z" class="g0_5"/>
<path d="M102.5 1007.2c0 .6 -.1 1.1 -.3 1.6c-.2 .5 -.5 .9 -.9 1.3c-.4 .4 -.8 .6 -1.3 .9c-.5 .2 -1 .3 -1.5 .3c-.6 0 -1.1 -.1 -1.6 -.3c-.5 -.3 -.9 -.5 -1.3 -.9c-.4 -.4 -.6 -.8 -.8 -1.3c-.3 -.5 -.4 -1 -.4 -1.6c0 -.5 .1 -1 .4 -1.5c.2 -.5 .4 -.9 .8 -1.3c.4 -.4 .8 -.7 1.3 -.9c.5 -.2 1 -.3 1.6 -.3c.5 0 1 .1 1.5 .3c.5 .2 .9 .5 1.3 .9c.4 .4 .7 .8 .9 1.3c.2 .5 .3 1 .3 1.5Z" class="g0_5"/>
</svg>