<?xml version="1.0" encoding="UTF-8" standalone="no"?>
<!DOCTYPE svg PUBLIC "-//W3C//DTD SVG 1.1//EN"
"http://www.w3.org/Graphics/SVG/1.1/DTD/svg11.dtd">
<svg viewBox="0 0 909 1286" version="1.1" xmlns="http://www.w3.org/2000/svg" xmlns:xlink="http://www.w3.org/1999/xlink">
<defs>
<clipPath id="c0_2"><path d="M-.2 1287.1V-.2H910.1V1287.1Z"/></clipPath>
<clipPath id="c1_2"><path d="M95.9 1194.5c-17.3 0 -33.9 -6.8 -46.1 -19.1C37.5 1163.2 30.6 1146.6 30.6 1129.3V548.4c0 -17.4 6.9 -34 19.2 -46.2C62 490 78.6 483.1 95.9 483.1H813.5c17.3 0 33.9 6.9 46.2 19.1c10.9 10.9 17.5 25.2 18.9 40.5V1135c-1.4 15.2 -8 29.5 -18.9 40.4c-12.3 12.3 -28.9 19.1 -46.2 19.1Z"/></clipPath>
<clipPath id="c2_2"><path d="M375.9 1260.4c-33.8 0 -61.2 -27.4 -61.2 -61.1c0 -33.8 27.4 -61.1 61.2 -61.1H533.6c33.8 0 61.1 27.3 61.1 61.1c0 33.7 -27.3 61.1 -61.1 61.1Z"/></clipPath>
<clipPath id="c3_2"><path d="M375.9 1260.4c-33.8 0 -61.2 -27.4 -61.2 -61.1c0 -33.8 27.4 -61.1 61.2 -61.1H533.6c31.4 0 57.3 23.7 60.7 54.2v13.8c-3.4 30.5 -29.3 54.2 -60.7 54.2Z"/></clipPath>
<clipPath id="c4_2"><path d="M95.9 446.8C78.6 446.8 62 439.9 49.8 427.6C37.5 415.4 30.6 398.8 30.6 381.5V93.9C30.6 76.6 37.5 60 49.8 47.8C62 35.5 78.6 28.6 95.9 28.6H813.5c17.3 0 33.9 6.9 46.2 19.2c10.9 10.9 17.5 25.3 18.9 40.5V387.1c-1.4 15.2 -8 29.6 -18.9 40.5c-12.3 12.3 -28.9 19.2 -46.2 19.2Z"/></clipPath>
<clipPath id="c5_2"><path d="M226.5 685.8v-43h33.8v43Z"/></clipPath>
<style type="text/css"><![CDATA[
.g0_2{
fill: #FFF;
}
.g1_2{
fill: none;
stroke: #85927D;
stroke-width: 9.166;
}
.g2_2{
fill: #85927D;
}
.g3_2{
fill: none;
stroke: #85927D;
stroke-width: 4.583;
}
.g4_2{
fill: #000;
}
.g5_2{
fill: #34443A;
}
]]></style>
</defs>
<g clip-path="url(#c0_2)">
<path d="M0 0H909.8V1286.8H0V0Z" class="g0_2"/>
<path d="M0 0H909.8V1286.8H0V0Z" class="g0_2"/>
<g opacity="0.2">
<image preserveAspectRatio="none" x="-41" y="-13" width="992" height="1314" xlink:href="img/1.jpg"/>
</g>
</g>
<path clip-path="url(#c1_2)" d="M95.9 483.1H813.5c17.3 0 33.9 6.9 46.2 19.1c12.2 12.2 19.1 28.8 19.1 46.2v580.9c0 17.3 -6.9 33.9 -19.1 46.1c-12.3 12.3 -28.9 19.1 -46.2 19.1H95.9c-17.3 0 -33.9 -6.8 -46.1 -19.1C37.5 1163.2 30.6 1146.6 30.6 1129.3V548.4c0 -17.4 6.9 -34 19.2 -46.2C62 490 78.6 483.1 95.9 483.1Z" class="g1_2"/>
<path clip-path="url(#c2_2)" d="M314.7 1138.2H594.5v122.2H314.7V1138.2Z" class="g2_2"/>
<path clip-path="url(#c3_2)" d="M375.9 1138.2H533.6c33.7 0 61.1 27.3 61.1 61.1c0 33.7 -27.4 61.1 -61.1 61.1H375.9c-33.8 0 -61.2 -27.4 -61.2 -61.1c0 -33.8 27.4 -61.1 61.2 -61.1Z" class="g3_2"/>
<path clip-path="url(#c4_2)" d="M95.9 28.6H813.5c17.3 0 33.9 6.9 46.2 19.2c12.2 12.2 19.1 28.8 19.1 46.1V381.5c0 17.3 -6.9 33.9 -19.1 46.1c-12.3 12.3 -28.9 19.2 -46.2 19.2H95.9C78.6 446.8 62 439.9 49.8 427.6C37.5 415.4 30.6 398.8 30.6 381.5V93.9C30.6 76.6 37.5 60 49.8 47.8C62 35.5 78.6 28.6 95.9 28.6Z" class="g1_2"/>
<path d="M269.1 677.9H486.3v2.3H269.1v-2.3Z" class="g4_2"/>
<path clip-path="url(#c5_2)" d="M248.2 673.8c4 -6.4 8.5 -13.5 8.5 -17.4c0 -7.3 -6 -13.3 -13.3 -13.3c-7.4 0 -13.3 6 -13.3 13.3c0 3.7 4.6 11.2 8.5 17.4c-5.7 .6 -11.8 2.2 -11.8 5.3c0 1.7 1.8 3.1 5.3 4.1c9.7 2.9 28.2 1.3 28.2 -4.1c0 -3.1 -6.2 -4.8 -12.1 -5.3Zm-4.8 4.3c-3.5 -5.9 -11.5 -17.5 -11.5 -21.7c0 -6.3 5.1 -11.5 11.5 -11.5c6.3 0 11.5 5.2 11.5 11.5c0 4.4 -8 15.8 -11.5 21.7Z" class="g5_2"/>
<path d="M243.4 649.5c-3.6 0 -6.5 2.9 -6.5 6.4c0 3.6 2.9 6.5 6.5 6.5c3.5 0 6.4 -2.9 6.4 -6.5c0 -3.5 -2.9 -6.4 -6.4 -6.4Zm0 11.1c-2.6 0 -4.7 -2.1 -4.7 -4.7c0 -2.5 2.1 -4.6 4.7 -4.6c2.6 0 4.6 2.1 4.6 4.6c0 2.6 -2 4.7 -4.6 4.7Z" class="g5_2"/>
</svg>